<svg width="241" height="287" viewBox="0 0 241 287" fill="none" xmlns="http://www.w3.org/2000/svg">
<path opacity="0.8" d="M16.4 286.4V228.4L117.6 134.8C124 128.667 128.667 123.333 131.6 118.8C134.8 114.267 136.933 110.267 138 106.8C139.067 103.067 139.6 99.6 139.6 96.4C139.6 89.4667 137.333 84.1333 132.8 80.4C128.267 76.4 121.467 74.4 112.4 74.4C104.133 74.4 96.2667 76.6667 88.8 81.2C81.3333 85.4667 75.4667 91.8667 71.2 100.4L0 64.8C10.1333 45.6 25.3333 30 45.6 18C65.8667 6 91.0667 0 121.2 0C143.333 0 162.933 3.6 180 10.8C197.067 18 210.4 28.1333 220 41.2C229.6 54.2667 234.4 69.7333 234.4 87.6C234.4 96.6667 233.2 105.733 230.8 114.8C228.667 123.867 224.133 133.467 217.2 143.6C210.267 153.467 200 164.533 186.4 176.8L143.3 213.2H240.8V286.4H16.4Z" fill="url(#paint0_linear_520_970)"/>
<defs>
<linearGradient id="paint0_linear_520_970" x1="3.58049e-06" y1="286.4" x2="258.062" y2="271.986" gradientUnits="userSpaceOnUse">
<stop stop-color="#E1F3FF"/>
<stop offset="1" stop-color="#C5FBE8"/>
</linearGradient>
</defs>
</svg>
