<svg width="239" height="287" viewBox="0 0 239 287" fill="none" xmlns="http://www.w3.org/2000/svg">
<path opacity="0.8" d="M110.4 286.4C91.2 286.4 71.7333 284.267 52 280C32.2667 275.733 14.9333 269.467 0 261.2L32 191.6C44 198.533 56.5333 203.733 69.6 207.2C82.9333 210.4 95.4667 212 107.2 212C117.867 212 126.533 210.267 133.2 206.8C140.133 203.067 143.6 197.6 143.6 190.4C143.6 184.267 141.067 179.6 136 176.4C130.933 172.933 122.4 171.2 110.4 171.2H73.2V113.2L114.515 71.2H14.4V0H223.2V58L171.862 110.538C171.862 110.538 192.4 113.867 210.8 129.6C229.2 145.333 238.4 165.6 238.4 190.4C238.4 206.4 233.867 221.733 224.8 236.4C216 251.067 202.133 263.067 183.2 272.4C164.533 281.733 140.267 286.4 110.4 286.4Z" fill="url(#paint0_linear_520_969)"/>
<defs>
<linearGradient id="paint0_linear_520_969" x1="3.54481e-06" y1="286.4" x2="255.505" y2="272.271" gradientUnits="userSpaceOnUse">
<stop stop-color="#E1F3FF"/>
<stop offset="1" stop-color="#C5FBE8"/>
</linearGradient>
</defs>
</svg>
