<svg width="90" height="90" viewBox="0 0 90 90" fill="none" xmlns="http://www.w3.org/2000/svg">
<path d="M71.9708 13.6218L73.2278 13.0053L72.8435 12.2218H71.9708V13.6218ZM75.5333 20.8848L74.2763 21.5013L74.2844 21.5177L74.2929 21.534L75.5333 20.8848ZM76.2345 21.3925L76.4381 20.0073L76.4247 20.0054L76.2345 21.3925ZM84.2009 22.563L84.4072 21.1783L84.4044 21.1779L84.2009 22.563ZM84.7058 24.1425L83.7388 23.1302L83.732 23.1366L83.7254 23.1431L84.7058 24.1425ZM78.9414 29.7978L79.9017 30.8165L79.9119 30.8069L79.9219 30.7971L78.9414 29.7978ZM78.6749 30.6157L80.055 30.3805L80.0529 30.3678L80.0505 30.3552L78.6749 30.6157ZM80.0354 38.5979L81.4166 38.369L81.4155 38.3627L80.0354 38.5979ZM78.689 39.571L79.348 38.3358L79.3431 38.3333L78.689 39.571ZM71.5641 35.8056L70.9092 37.043L70.91 37.0433L71.5641 35.8056ZM70.7086 35.8056L71.3627 37.0433L71.3634 37.043L70.7086 35.8056ZM63.5837 39.571L64.2332 40.8113L64.2379 40.8088L63.5837 39.571ZM62.2373 38.5979L60.8572 38.3627L60.8568 38.3648L62.2373 38.5979ZM63.5977 30.6157L62.2222 30.3552L62.2198 30.3678L62.2176 30.3805L63.5977 30.6157ZM63.3313 29.7978L62.3508 30.7971L62.3608 30.8069L62.3709 30.8165L63.3313 29.7978ZM57.5669 24.1425L58.5473 23.1431L58.5466 23.1425L57.5669 24.1425ZM58.0718 22.563L57.8682 21.1779L57.8655 21.1783L58.0718 22.563ZM66.0381 21.3925L65.8391 20.0067L65.8346 20.0073L66.0381 21.3925ZM66.7394 20.8848L67.9798 21.534L67.9883 21.5177L67.9963 21.5013L66.7394 20.8848ZM70.3018 13.6218L71.5588 14.2383L71.5605 14.2349L70.3018 13.6218ZM71.9568 13.6218L70.6982 14.2349L71.0815 15.0218H71.9568V13.6218ZM11.6171 12.7898C11.6171 12.0166 10.9903 11.3898 10.2171 11.3898C9.44387 11.3898 8.81707 12.0166 8.81707 12.7898H11.6171ZM10.2171 72.1769H8.81707C8.81707 72.9501 9.44387 73.5769 10.2171 73.5769V72.1769ZM84.5512 73.5769C85.3244 73.5769 85.9512 72.9501 85.9512 72.1769C85.9512 71.4037 85.3244 70.7769 84.5512 70.7769V73.5769ZM4.00733 16.259C3.4621 16.8073 3.46454 17.6937 4.01278 18.2389C4.56102 18.7842 5.44745 18.7817 5.99267 18.2335L4.00733 16.259ZM10.2174 12L11.2101 11.0128C10.9473 10.7486 10.5901 10.6 10.2174 10.6C9.84477 10.6 9.48751 10.7486 9.22474 11.0128L10.2174 12ZM13.9793 17.7681C14.5245 18.3163 15.411 18.3188 15.9592 17.7735C16.5074 17.2283 16.5099 16.3419 15.9647 15.7936L13.9793 17.7681ZM80.7766 65.987C80.2321 65.438 79.3457 65.4344 78.7967 65.9789C78.2477 66.5234 78.2441 67.4098 78.7886 67.9588L80.7766 65.987ZM85 72.2332L85.9912 73.2219C86.5352 72.6766 86.5364 71.7942 85.994 71.2473L85 72.2332ZM79.2542 76.0113C78.7082 76.5588 78.7093 77.4452 79.2567 77.9912C79.8042 78.5373 80.6906 78.5361 81.2366 77.9887L79.2542 76.0113ZM10.2173 25.9373C10.9905 25.9373 11.6173 25.3105 11.6173 24.5373C11.6173 23.7641 10.9905 23.1373 10.2173 23.1373V25.9373ZM5.2103 23.1373C4.43711 23.1373 3.8103 23.7641 3.8103 24.5373C3.8103 25.3105 4.43711 25.9373 5.2103 25.9373V23.1373ZM10.2173 35.8093C10.9905 35.8093 11.6173 35.1825 11.6173 34.4093C11.6173 33.6361 10.9905 33.0093 10.2173 33.0093V35.8093ZM5.2103 33.0093C4.43711 33.0093 3.8103 33.6361 3.8103 34.4093C3.8103 35.1825 4.43711 35.8093 5.2103 35.8093V33.0093ZM10.2173 45.6813C10.9905 45.6813 11.6173 45.0545 11.6173 44.2813C11.6173 43.5081 10.9905 42.8813 10.2173 42.8813V45.6813ZM5.2103 42.8813C4.43711 42.8813 3.8103 43.5081 3.8103 44.2813C3.8103 45.0545 4.43711 45.6813 5.2103 45.6813V42.8813ZM10.2173 55.5532C10.9905 55.5532 11.6173 54.9264 11.6173 54.1532C11.6173 53.38 10.9905 52.7532 10.2173 52.7532V55.5532ZM5.2103 52.7532C4.43711 52.7532 3.8103 53.38 3.8103 54.1532C3.8103 54.9264 4.43711 55.5532 5.2103 55.5532V52.7532ZM10.2173 65.4252C10.9905 65.4252 11.6173 64.7984 11.6173 64.0252C11.6173 63.252 10.9905 62.6252 10.2173 62.6252V65.4252ZM5.2103 62.6252C4.43711 62.6252 3.8103 63.252 3.8103 64.0252C3.8103 64.7984 4.43711 65.4252 5.2103 65.4252V62.6252ZM14.2113 54.3036C13.5621 54.7235 13.3763 55.5902 13.7962 56.2394C14.2162 56.8887 15.0829 57.0745 15.7321 56.6546L14.2113 54.3036ZM24.1723 49.5277L24.7598 48.2569C24.3239 48.0554 23.8152 48.0913 23.4119 48.3522L24.1723 49.5277ZM35.8554 54.9291L35.2679 56.1998C35.8094 56.4502 36.45 56.3299 36.8638 55.9002L35.8554 54.9291ZM50.035 40.2057L50.9383 39.1361C50.3747 38.6601 49.5384 38.7031 49.0266 39.2345L50.035 40.2057ZM56.3464 45.5366L55.443 46.6061C55.7298 46.8484 56.102 46.9653 56.4758 46.9306C56.8497 46.8958 57.1939 46.7124 57.4313 46.4214L56.3464 45.5366ZM60.629 42.5008C61.1177 41.9017 61.0282 41.0198 60.429 40.5311C59.8298 40.0424 58.9479 40.1319 58.4592 40.7311L60.629 42.5008ZM16.0321 30.753C15.3523 30.3846 14.5026 30.6369 14.1341 31.3166C13.7656 31.9964 14.0179 32.8461 14.6977 33.2146L16.0321 30.753ZM27.2022 38.4006L26.535 39.6314C27.1485 39.964 27.9133 39.794 28.3281 39.2328L27.2022 38.4006ZM34.1448 29.0081L35.3688 28.3287C35.1377 27.9123 34.7108 27.642 34.2356 27.6111C33.7603 27.5802 33.302 27.793 33.0189 28.176L34.1448 29.0081ZM40.3962 43.1558C40.7714 43.8318 41.6236 44.0757 42.2997 43.7004C42.9757 43.3252 43.2196 42.473 42.8443 41.7969L40.3962 43.1558ZM46.9043 49.7212C46.5362 49.0413 45.6866 48.7885 45.0066 49.1566C44.3267 49.5248 44.0739 50.3744 44.442 51.0543L46.9043 49.7212ZM52.2931 62.615L51.062 63.2815C51.2774 63.6795 51.672 63.9487 52.1211 64.0043C52.5701 64.06 53.0184 63.8951 53.3245 63.5617L52.2931 62.615ZM61.7181 52.3481L62.4261 51.1403C61.8573 50.8068 61.1327 50.9155 60.6868 51.4013L61.7181 52.3481ZM68.8149 56.5084L68.1069 57.7162C68.6398 58.0286 69.3145 57.9548 69.7673 57.5346L68.8149 56.5084ZM76.8641 50.9486C77.4308 50.4226 77.4639 49.5368 76.9379 48.9701C76.412 48.4033 75.5262 48.3702 74.9594 48.8962L76.8641 50.9486ZM70.7139 14.2383L74.2763 21.5013L76.7902 20.2682L73.2278 13.0053L70.7139 14.2383ZM74.2929 21.534C74.6191 22.1572 75.2378 22.6689 76.0444 22.7795L76.4247 20.0054C76.6142 20.0314 76.728 20.1483 76.7736 20.2355L74.2929 21.534ZM76.031 22.7776L83.9974 23.9481L84.4044 21.1779L76.4381 20.0073L76.031 22.7776ZM83.9946 23.9477C83.6256 23.8927 83.4391 23.4164 83.7388 23.1302L85.6729 25.1549C87.0945 23.7968 86.291 21.4589 84.4072 21.1783L83.9946 23.9477ZM83.7254 23.1431L77.961 28.7984L79.9219 30.7971L85.6863 25.1419L83.7254 23.1431ZM77.9811 28.779C77.4072 29.32 77.1549 30.1134 77.2994 30.8763L80.0505 30.3552C80.0828 30.5258 80.0268 30.6986 79.9017 30.8165L77.9811 28.779ZM77.2948 30.8509L78.6553 38.8332L81.4155 38.3627L80.055 30.3805L77.2948 30.8509ZM78.6542 38.8269C78.5952 38.4709 78.9866 38.1431 79.348 38.3358L78.0299 40.8062C79.7658 41.7324 81.728 40.2481 81.4165 38.369L78.6542 38.8269ZM79.3431 38.3333L72.2183 34.5678L70.91 37.0433L78.0348 40.8088L79.3431 38.3333ZM72.219 34.5682C71.5428 34.2103 70.7298 34.2103 70.0537 34.5682L71.3634 37.043C71.2202 37.1187 71.0524 37.1187 70.9092 37.043L72.219 34.5682ZM70.0544 34.5678L62.9296 38.3333L64.2379 40.8088L71.3627 37.0433L70.0544 34.5678ZM62.9342 38.3308C63.1159 38.2356 63.3147 38.2784 63.4309 38.3624C63.5473 38.4466 63.6526 38.6244 63.6177 38.8311L60.8568 38.3648C60.5365 40.2616 62.5415 41.6972 64.2332 40.8112L62.9342 38.3308ZM63.6174 38.8332L64.9778 30.8509L62.2176 30.3805L60.8572 38.3627L63.6174 38.8332ZM64.9733 30.8763C65.1178 30.1134 64.8655 29.32 64.2916 28.779L62.3709 30.8165C62.2459 30.6986 62.1899 30.5258 62.2222 30.3552L64.9733 30.8763ZM64.3117 28.7984L58.5473 23.1431L56.5864 25.1419L62.3508 30.7971L64.3117 28.7984ZM58.5466 23.1425C58.8097 23.4002 58.6866 23.8869 58.2781 23.9477L57.8655 21.1783C55.9423 21.4648 55.2301 23.813 56.5871 25.1425L58.5466 23.1425ZM58.2753 23.9481L66.2417 22.7776L65.8346 20.0073L57.8683 21.1779L58.2753 23.9481ZM66.2372 22.7782C67.0058 22.6678 67.6448 22.174 67.9798 21.534L65.499 20.2355C65.5311 20.1742 65.5737 20.1271 65.6222 20.0917C65.6709 20.0563 65.7426 20.0205 65.8391 20.0067L66.2372 22.7782ZM67.9963 21.5013L71.5588 14.2383L69.0449 13.0053L65.4825 20.2682L67.9963 21.5013ZM71.5605 14.2349C71.386 14.5931 70.8727 14.5931 70.6982 14.2349L73.2154 13.0087C72.3678 11.2684 69.8909 11.2684 69.0432 13.0087L71.5605 14.2349ZM71.9568 15.0218H71.9708V12.2218H71.9568V15.0218ZM8.81707 12.7898V72.1769H11.6171V12.7898H8.81707ZM10.2171 73.5769H84.5512V70.7769H10.2171V73.5769ZM5.99267 18.2335L11.2101 12.9872L9.22474 11.0128L4.00733 16.259L5.99267 18.2335ZM9.22474 12.9872L13.9793 17.7681L15.9647 15.7936L11.2101 11.0128L9.22474 12.9872ZM78.7886 67.9588L84.006 73.2191L85.994 71.2473L80.7766 65.987L78.7886 67.9588ZM84.0088 71.2446L79.2542 76.0113L81.2366 77.9887L85.9912 73.2219L84.0088 71.2446ZM10.2173 23.1373H5.2103V25.9373H10.2173V23.1373ZM10.2173 33.0093H5.2103V35.8093H10.2173V33.0093ZM10.2173 42.8813H5.2103V45.6813H10.2173V42.8813ZM10.2173 52.7532H5.2103V55.5532H10.2173V52.7532ZM10.2173 62.6252H5.2103V65.4252H10.2173V62.6252ZM15.7321 56.6546L24.9327 50.7032L23.4119 48.3522L14.2113 54.3036L15.7321 56.6546ZM23.5848 50.7984L35.2679 56.1998L36.4429 53.6583L24.7598 48.2569L23.5848 50.7984ZM36.8638 55.9002L51.0434 41.1768L49.0266 39.2345L34.847 53.9579L36.8638 55.9002ZM49.1316 41.2752L55.443 46.6061L57.2497 44.467L50.9383 39.1361L49.1316 41.2752ZM57.4313 46.4214L60.629 42.5008L58.4592 40.7311L55.2615 44.6517L57.4313 46.4214ZM14.6977 33.2146L26.535 39.6314L27.8694 37.1698L16.0321 30.753L14.6977 33.2146ZM28.3281 39.2328L35.2706 29.8403L33.0189 28.176L26.0764 37.5685L28.3281 39.2328ZM32.9207 29.6875L40.3962 43.1558L42.8443 41.7969L35.3688 28.3287L32.9207 29.6875ZM44.442 51.0543L51.062 63.2815L53.5243 61.9484L46.9043 49.7212L44.442 51.0543ZM53.3245 63.5617L62.7495 53.2948L60.6868 51.4013L51.2618 61.6682L53.3245 63.5617ZM61.0101 53.5558L68.1069 57.7162L69.523 55.3007L62.4261 51.1403L61.0101 53.5558ZM69.7673 57.5346L76.8641 50.9486L74.9594 48.8962L67.8626 55.4822L69.7673 57.5346Z" fill="url(#paint0_linear_515_976)"/>
<defs>
<linearGradient id="paint0_linear_515_976" x1="85" y1="44.5" x2="5" y2="44.5" gradientUnits="userSpaceOnUse">
<stop stop-color="#0EBDAD"/>
<stop offset="1" stop-color="#19A0FA"/>
</linearGradient>
</defs>
</svg>
