<svg width="90" height="90" viewBox="0 0 90 90" fill="none" xmlns="http://www.w3.org/2000/svg">
<path d="M19.9596 77.9999C19.9596 77.9999 20.7056 73.9797 18.408 70.2117C16.1103 66.4437 9.33689 58.2845 6.72598 48.7606C4.11507 39.2367 2.9961 36.4626 5.09975 35.1572C7.2034 33.8517 10.0679 37.323 11.4405 39.9785C12.8131 42.6339 14.9914 45.7937 15.2301 47.826C15.4688 49.8584 15.6031 51.2825 17.5277 52.1578C19.4523 53.033 22.7495 54.5907 23.4955 56.4302C24.2415 58.2697 24.4205 60.6136 24.4205 60.6136M21.8843 42.2034V21.8946C21.8843 20.0254 20.3625 18.5123 18.4826 18.5123C16.6028 18.5123 15.081 20.0254 15.081 21.8946V47.1434M28.6723 42.0107V15.3823C28.6723 13.5131 27.1505 12 25.2706 12C23.3908 12 21.869 13.5131 21.869 15.3823V40.6163M35.4611 42.0107V19.4619C35.4611 17.5927 33.9393 16.0796 32.0595 16.0796C30.1796 16.0796 28.6578 17.5927 28.6578 19.4619V34.4895M42.2495 33.822V27.3838C42.2495 25.5146 40.7278 24.0014 38.8479 24.0014C36.968 24.0014 35.4462 25.5146 35.4462 27.3838V42.3965M36.9382 74.4693V78M71.0443 77.9999C71.0443 77.9999 70.2983 73.9797 72.5959 70.2117C74.8935 66.4437 81.667 58.2845 84.2779 48.7606C86.8888 39.2367 88.0078 36.4626 85.8892 35.1572C83.7706 33.8517 80.921 37.323 79.5484 39.9785C78.1758 42.6339 75.9976 45.7937 75.7589 47.826C75.5201 49.8584 75.3859 51.2825 73.4613 52.1578C71.5366 53.033 68.2394 54.5907 67.4935 56.4302C66.7475 58.2697 66.5535 60.6136 66.5535 60.6136M69.1192 42.2034V21.8946C69.1192 20.0254 70.641 18.5123 72.5208 18.5123C74.4007 18.5123 75.9225 20.0254 75.9225 21.8946V47.1434M62.3312 42.0107V15.3823C62.3312 13.5131 63.853 12 65.7328 12C67.6127 12 69.1345 13.5131 69.1345 15.3823V40.6163M55.5423 42.0107V19.4619C55.5423 17.5927 57.0641 16.0796 58.944 16.0796C60.8238 16.0796 62.3456 17.5927 62.3456 19.4619V34.4895M48.7543 33.822V27.3838C48.7543 25.5146 50.2761 24.0014 52.156 24.0014C54.0358 24.0014 55.5576 25.5146 55.5576 27.3838V42.3965M54.0655 74.4693V78M46.9341 38.124L51.5293 47.3957C51.7083 47.7517 52.0365 47.9891 52.4244 48.0484L62.704 49.5319C63.6887 49.6803 64.0766 50.867 63.3604 51.5494L55.9156 58.7591C55.6321 59.0262 55.5128 59.4267 55.5724 59.8124L57.3329 70.0039C57.4971 70.9681 56.4825 71.7099 55.6023 71.25L46.397 66.4435C46.0538 66.2655 45.6361 66.2655 45.2929 66.4435L36.0876 71.25C35.2073 71.7099 34.1928 70.9681 34.3569 70.0039L36.1174 59.8124C36.1771 59.4267 36.0577 59.041 35.7743 58.7591L28.3294 51.5494C27.6282 50.867 28.0161 49.6654 28.9859 49.5319L39.2654 48.0484C39.6533 47.9891 39.9965 47.7517 40.1606 47.3957L44.7558 38.124C45.1885 37.2487 46.4566 37.2487 46.8893 38.124H46.9341Z" stroke="url(#paint0_linear_515_975)" stroke-width="2.8" stroke-linecap="round" stroke-linejoin="round"/>
<defs>
<linearGradient id="paint0_linear_515_975" x1="87" y1="45" x2="4" y2="45" gradientUnits="userSpaceOnUse">
<stop stop-color="#0EBDAD"/>
<stop offset="1" stop-color="#19A0FA"/>
</linearGradient>
</defs>
</svg>
