<svg width="90" height="90" viewBox="0 0 90 90" fill="none" xmlns="http://www.w3.org/2000/svg">
<path d="M50.6007 59.5486L42.2448 55.1893C41.7232 54.914 41.1129 54.914 40.5914 55.1893L26.8757 62.3447C25.5774 63.0273 24.046 61.9264 24.3012 60.4843L26.9201 45.3367C27.02 44.7643 26.8313 44.1808 26.4096 43.7735L15.3128 33.0403C14.2586 32.0165 14.8357 30.2441 16.3004 30.035L31.6362 27.8223C32.2133 27.7342 32.7126 27.382 32.979 26.8535L39.8368 13.071C40.4915 11.761 42.3669 11.761 43.0216 13.071L49.8794 26.8535C50.1346 27.3709 50.634 27.7342 51.2221 27.8223L66.5579 30.035C68.0116 30.2441 68.5997 32.0165 67.5455 33.0403L57.5695 42.6947C56.8593 43.3882 56.4598 44.3239 56.4598 45.3147V46.6027M16.256 12.7406L20.0178 16.4835M67.6122 12.7406L63.8504 16.4835M17.4544 61.7833L13.6925 65.5261M41.4124 4V6.86219M41.4124 67.7828V70.645M75.6238 37.7848H72.7387M10.8852 37.7848H8M81.3167 67.3535C86.6098 78.0867 78.3538 85 71.2962 85C66.7243 85 64.3274 84.4386 58.1576 76.8097C51.9878 69.1809 52.5093 68.4213 53.4304 67.3535C56.1491 64.172 60.9651 71.7238 60.9651 71.7238C60.9651 71.7238 55.3612 58.2165 54.4735 55.7506C53.5857 53.2847 53.9408 51.9857 55.5942 51.3032C57.514 50.5106 58.6348 52.338 59.6002 54.3195C60.5656 56.301 63.129 62.5538 63.129 62.5538C63.129 62.5538 62.6518 59.9668 65.0487 59.3283C67.4456 58.6898 68.056 61.2328 68.056 61.2328C68.056 61.2328 68.7995 58.7559 70.5749 58.6898C72.7388 58.6128 73.2937 60.6824 73.2937 60.6824C73.2937 60.6824 73.7708 58.6898 75.6129 58.6898C78.6534 58.6898 81.3056 67.3535 81.3056 67.3535H81.3167Z" stroke="url(#paint0_linear_515_974)" stroke-width="2.8" stroke-linecap="round" stroke-linejoin="round"/>
<defs>
<linearGradient id="paint0_linear_515_974" x1="83" y1="44.5" x2="8" y2="44.5" gradientUnits="userSpaceOnUse">
<stop stop-color="#0EBDAD"/>
<stop offset="1" stop-color="#19A0FA"/>
</linearGradient>
</defs>
</svg>
