<svg width="77" height="74" viewBox="0 0 77 74" fill="none" xmlns="http://www.w3.org/2000/svg">
<path fill-rule="evenodd" clip-rule="evenodd" d="M62.7245 53.3765C64.2889 51.837 66.4658 50.8785 68.8739 50.8785H76.2533V52.0618C76.2533 56.6282 72.3914 60.3449 67.644 60.3449H62.7245V67.4447V68.628V70.9946H71.3337V73.3611H4.9195V70.9946H13.5288V68.628H8.6092C3.8618 68.628 0 64.9113 0 60.3449V59.1616H7.3793C9.7875 59.1616 11.9644 60.1201 13.5288 61.6596V60.3449V59.1616V49.6952C11.4945 49.6952 9.8391 48.1025 9.8391 46.1453V42.8912C9.8391 42.0665 9.4431 41.3104 8.8048 40.9187C5.1569 38.6764 3.2321 34.704 3.7819 30.5518C4.4153 25.7714 8.4912 21.9079 13.4734 21.3659C16.6257 21.0239 19.7828 21.9824 22.1307 24.0012C24.4797 26.021 25.8277 28.9165 25.8277 31.9457C25.8277 35.582 23.9251 38.9308 20.7384 40.9022C20.0743 41.3128 19.6782 42.0381 19.6782 42.8427V46.1453C19.6782 48.1025 18.0228 49.6952 15.9886 49.6952V53.3765C17.553 51.837 19.7299 50.8785 22.138 50.8785H29.5174V52.0618C29.5174 56.6282 25.6555 60.3449 20.9081 60.3449H15.9886V67.4447V68.628V70.9946H36.8967V68.628H33.2071C29.8162 68.628 27.0576 65.9738 27.0576 62.7115V61.5282H33.2071C34.5968 61.5282 35.8661 61.9909 36.8967 62.7423V59.1616V57.9784V49.6952H33.2071C29.8162 49.6952 27.0576 47.0411 27.0576 43.7788V42.5955H33.2071C34.5968 42.5955 35.8661 43.0582 36.8967 43.8095V37.8623C33.5059 37.8623 30.7473 35.2082 30.7473 31.9457V28.958C30.7473 27.5356 30.0315 26.1582 28.7856 25.1773C24.6937 21.9575 22.7358 17.0114 23.5487 11.9457C24.5388 5.77004 29.9565 0.78368 36.4318 0.0878782C40.6368 -0.36066 44.8381 0.922033 47.9633 3.61057C51.0921 6.30257 52.8853 10.1612 52.8853 14.1963C52.8853 18.4953 50.888 22.5149 47.4049 25.2258C46.1984 26.1653 45.506 27.5238 45.506 28.952V31.9457C45.506 35.2082 42.7473 37.8623 39.3565 37.8623V42.7268C40.9209 41.1873 43.0978 40.2289 45.506 40.2289H51.6554V41.4122C51.6554 45.9785 47.7936 49.6952 43.0462 49.6952H39.3565V53.2759C40.3872 52.5245 41.6564 52.0618 43.0462 52.0618H49.1956V53.2451C49.1956 56.5075 46.437 59.1616 43.0462 59.1616H39.3565V67.4447V68.628V70.9946H60.2647V68.628H55.3451C50.5977 68.628 46.7359 64.9113 46.7359 60.3449V59.1616H54.1152C56.5233 59.1616 58.7002 60.1201 60.2634 61.6596V60.3449V59.1616V49.6952C58.2292 49.6952 56.5738 48.1025 56.5738 46.1453V42.8912C56.5738 42.0665 56.1777 41.3104 55.5407 40.9187C51.8928 38.6764 49.968 34.704 50.5178 30.5518C51.1512 25.7714 55.227 21.9079 60.2093 21.3659C63.3628 21.0239 66.5187 21.9824 68.8665 24.0012C71.2156 26.021 72.5636 28.9165 72.5636 31.9457C72.5636 35.582 70.6609 38.9308 67.4743 40.9022C66.8102 41.3128 66.4141 42.0381 66.4141 42.8427V46.1453C66.4141 48.1025 64.7587 49.6952 62.7245 49.6952V53.3765ZM52.9579 30.8512C52.5299 34.0863 54.0267 37.1795 56.8653 38.9237C58.1419 39.7094 58.9253 41.0678 59.0163 42.5955H60.2647V35.2779C58.8368 34.788 57.8049 33.4865 57.8049 31.9457C57.8049 29.9886 59.4603 28.3959 61.4946 28.3959C63.5288 28.3959 65.1842 29.9886 65.1842 31.9457C65.1842 33.4865 64.1524 34.788 62.7245 35.2779V42.5955H63.9691C64.0491 41.082 64.8436 39.7164 66.1436 38.913C68.623 37.3783 70.1038 34.7739 70.1038 31.9457C70.1038 29.5898 69.0547 27.3368 67.2271 25.7666C65.6295 24.3927 63.6272 23.6627 61.5056 23.6627C61.1674 23.6627 60.828 23.6805 60.4848 23.7171C56.6156 24.1384 53.4498 27.1392 52.9579 30.8512ZM61.4946 30.7625C60.8169 30.7625 60.2647 31.2938 60.2647 31.9457C60.2647 32.5978 60.8169 33.129 61.4946 33.129C62.1722 33.129 62.7245 32.5978 62.7245 31.9457C62.7245 31.2938 62.1722 30.7625 61.4946 30.7625ZM59.0348 44.9621V46.1453C59.0348 46.7985 59.587 47.3286 60.2647 47.3286H62.7245C63.4021 47.3286 63.9543 46.7985 63.9543 46.1453V44.9621H59.0348ZM49.3199 61.5282C49.8905 64.225 52.3749 66.2614 55.3451 66.2614H60.1405C59.5698 63.5647 57.0854 61.5282 54.1152 61.5282H49.3199ZM46.5256 54.4284H43.0462C41.4424 54.4284 40.0748 55.4177 39.5668 56.7951H43.0462C44.65 56.7951 46.0176 55.8058 46.5256 54.4284ZM49.0714 42.5955H45.506C42.5358 42.5955 40.0514 44.6319 39.4807 47.3286H43.0462C46.0151 47.3286 48.5008 45.2922 49.0714 42.5955ZM25.979 12.3054C25.3013 16.5345 26.9321 20.6618 30.3426 23.3456C32.003 24.6508 33.0066 26.4671 33.1726 28.3959H35.582L34.844 17.7462H33.2071C31.1728 17.7462 29.5174 16.1535 29.5174 14.1963C29.5174 12.2391 31.1728 10.6464 33.2071 10.6464H33.3657C35.3003 10.6464 36.9176 12.1019 37.0468 13.9597L37.1452 15.3796H39.1081L39.2065 13.9608C39.3356 12.1019 40.9529 10.6464 42.8875 10.6464H43.0462C45.0804 10.6464 46.7359 12.2391 46.7359 14.1963C46.7359 16.1535 45.0804 17.7462 43.0462 17.7462H41.4092L40.6713 28.3959H43.0794C43.2405 26.4588 44.2269 24.6555 45.8589 23.3858C48.7603 21.1268 50.4255 17.7769 50.4255 14.1963C50.4255 10.8334 48.93 7.61835 46.3214 5.37364C44.0363 3.40823 41.1743 2.36213 38.1402 2.36213C37.6654 2.36213 37.1858 2.3882 36.7036 2.4391C31.313 3.01887 26.803 7.16866 25.979 12.3054ZM37.3087 17.7462L38.0467 28.3959H38.2053L38.9433 17.7462H37.3087ZM41.6601 14.1182L41.5728 15.3796H43.0462C43.7239 15.3796 44.2761 14.8483 44.2761 14.1963C44.2761 13.5443 43.7239 13.013 43.0462 13.013H42.8875C42.2431 13.013 41.7031 13.4981 41.6601 14.1182ZM33.2071 15.3796H34.6805L34.5931 14.1182C34.5501 13.4981 34.0102 13.013 33.3657 13.013H33.2071C32.5294 13.013 31.9772 13.5443 31.9772 14.1963C31.9772 14.8483 32.5294 15.3796 33.2071 15.3796ZM33.2071 30.7625V31.9457C33.2071 33.903 34.8625 35.4957 36.8967 35.4957H39.3565C41.3908 35.4957 43.0462 33.903 43.0462 31.9457V30.7625H33.2071ZM29.7277 44.9621C30.2356 46.3394 31.6033 47.3286 33.2071 47.3286H36.6864C36.1785 45.9512 34.8108 44.9621 33.2071 44.9621H29.7277ZM29.7277 63.8948C30.2356 65.2722 31.6033 66.2614 33.2071 66.2614H36.6864C36.1785 64.884 34.8108 63.8948 33.2071 63.8948H29.7277ZM26.9334 53.2451H22.138C19.1678 53.2451 16.6835 55.2815 16.1128 57.9784H20.9081C23.8771 57.9784 26.3627 55.9419 26.9334 53.2451ZM6.222 30.8512C5.794 34.0863 7.2908 37.1795 10.1294 38.9237C11.406 39.7094 12.1894 41.0678 12.2805 42.5955H13.5288V35.2779C12.1009 34.788 11.069 33.4865 11.069 31.9457C11.069 29.9886 12.7244 28.3959 14.7587 28.3959C16.7929 28.3959 18.4484 29.9886 18.4484 31.9457C18.4484 33.4865 17.4165 34.788 15.9886 35.2779V42.5955H17.2332C17.3132 41.082 18.1077 39.7164 19.4077 38.913C21.8871 37.3783 23.3679 34.7739 23.3679 31.9457C23.3679 29.5898 22.3188 27.3368 20.4912 25.7666C18.8936 24.3927 16.8913 23.6627 14.7698 23.6627C14.4315 23.6627 14.0921 23.6805 13.7489 23.7171C9.8797 24.1384 6.714 27.1392 6.222 30.8512ZM14.7587 30.7625C14.081 30.7625 13.5288 31.2938 13.5288 31.9457C13.5288 32.5978 14.081 33.129 14.7587 33.129C15.4364 33.129 15.9886 32.5978 15.9886 31.9457C15.9886 31.2938 15.4364 30.7625 14.7587 30.7625ZM12.2989 44.9621V46.1453C12.2989 46.7985 12.8511 47.3286 13.5288 47.3286H15.9886C16.6662 47.3286 17.2185 46.7985 17.2185 46.1453V44.9621H12.2989ZM2.584 61.5282C3.1547 64.225 5.639 66.2614 8.6092 66.2614H13.4046C12.8339 63.5647 10.3495 61.5282 7.3793 61.5282H2.584ZM62.8487 57.9784H67.644C70.6142 57.9784 73.0986 55.9419 73.6693 53.2451H68.8739C65.905 53.2451 63.4193 55.2815 62.8487 57.9784ZM0 70.9946H2.4598V73.3612H0V70.9946ZM73.7935 70.9946H76.2532V73.3612H73.7935V70.9946Z" fill="url(#paint0_linear_404_8163)"/>
<defs>
<linearGradient id="paint0_linear_404_8163" x1="0.0014" y1="36.6819" x2="76.2586" y2="36.6819" gradientUnits="userSpaceOnUse">
<stop stop-color="#00B2FF"/>
<stop offset="1" stop-color="#0EBEAD"/>
</linearGradient>
</defs>
</svg>
