<svg width="80" height="74" viewBox="0 0 80 74" fill="none" xmlns="http://www.w3.org/2000/svg">
<path fill-rule="evenodd" clip-rule="evenodd" d="M78.1302 70.828H75.1124V23.6305C75.1124 22.1453 73.8566 20.9371 72.3127 20.9371H62.4008C61.7594 20.9371 61.2393 21.4374 61.2393 22.0546C61.2393 22.6717 61.7594 23.1721 62.4008 23.1721H72.3127C72.5756 23.1721 72.7894 23.3777 72.7894 23.6305V70.8281H58.1384V65.2502H66.999C68.1831 65.2502 69.1467 64.3233 69.1467 63.1839V60.5406C69.1467 59.4014 68.1832 58.4743 66.999 58.4743H58.1384V55.1958H66.999C68.1831 55.1958 69.1467 54.2688 69.1467 53.1295V50.4861C69.1467 49.3469 68.1832 48.4198 66.999 48.4198H58.1384V45.1413H66.999C68.1831 45.1413 69.1467 44.2143 69.1467 43.075V40.4318C69.1467 39.2924 68.1832 38.3655 66.999 38.3655H58.1384V35.0869H66.999C68.1831 35.0869 69.1467 34.16 69.1467 33.0206V30.3774C69.1467 29.2381 68.1832 28.311 66.999 28.311H58.1384V13.3549C58.1384 12.2641 57.462 11.2883 56.4155 10.8691L32.207 1.16195C31.3749 0.828191 30.4305 0.915839 29.6808 1.3968C28.9308 1.87776 28.483 2.68296 28.483 3.55069V8.78719H22.3183V4.2081C22.3183 3.591 21.7982 3.0906 21.1568 3.0906C20.5153 3.0906 19.9953 3.591 19.9953 4.2081V8.78729H13.0263C11.4826 8.78729 10.2266 9.99552 10.2266 11.4809V14.9851H6.3108C4.7669 14.9851 3.5108 16.1929 3.5108 17.6775V63.5768H2.8C1.2561 63.5768 0 64.7854 0 66.2707V70.3697C0 71.8551 1.2561 73.0636 2.8 73.0636L78.1302 73.0631C78.7716 73.0631 79.2917 72.5628 79.2917 71.9456C79.2917 71.3285 78.7716 70.828 78.1302 70.828ZM66.8237 60.7095V63.0154H58.1384V60.7095H66.8237ZM66.8237 50.655V52.9608H58.1384V50.655H66.8237ZM66.8237 40.6005V42.9064H58.1384V40.6005H66.8237ZM66.8237 30.5462V32.8521H58.1384V30.5462H66.8237ZM30.806 3.55069C30.806 3.38578 30.9082 3.29563 30.9691 3.25647C31.0301 3.2176 31.1556 3.16142 31.3132 3.22492L44.9986 8.71253V59.0586C44.9986 59.6757 45.5187 60.1761 46.1601 60.1761C46.8016 60.1761 47.3216 59.6757 47.3216 59.0586V9.64396L55.5224 12.9324C55.7005 13.0037 55.8156 13.1695 55.8156 13.3549L55.8151 70.8284H47.3216V64.2988C47.3216 63.6816 46.8016 63.1812 46.1601 63.1812C45.5187 63.1812 44.9986 63.6816 44.9986 64.2988V70.8284H39.2927V34.4741C39.2927 32.8089 37.8847 31.4541 36.1537 31.4541H30.806V3.55069ZM36.1537 33.6891C36.6036 33.6891 36.9697 34.0411 36.9697 34.4741V70.8281H22.3183V34.4741C22.3183 34.0413 22.6842 33.6891 23.1343 33.6891H36.1537ZM19.9953 34.4741V42.3562H5.8338V33.6891H20.1066C20.0361 33.94 19.9953 34.2021 19.9953 34.4741ZM5.8338 44.5912H19.9953V53.2599H5.8338V44.5912ZM12.5497 11.4808C12.5497 11.2279 12.7636 11.0222 13.0264 11.0222H28.4826V14.9845H12.5497V11.4808ZM6.3108 17.2199H28.483V21.1474H14.1032C13.4617 21.1474 12.9417 21.6478 12.9417 22.2649C12.9417 22.8821 13.4617 23.3824 14.1032 23.3824H28.483V31.4541H5.8338V23.3824H8.6939C9.3353 23.3824 9.8554 22.8821 9.8554 22.2649C9.8554 21.6478 9.3353 21.1474 8.6939 21.1474H5.8338V17.6773C5.8338 17.4253 6.0478 17.2199 6.3108 17.2199ZM5.8338 55.4951H19.9953V63.5768H5.8338V55.4951ZM2.8 70.8284C2.537 70.8284 2.323 70.6227 2.323 70.3696V66.2706C2.323 66.0176 2.537 65.8117 2.8 65.8117H19.9953V70.8284H2.8ZM26.9532 41.0474C27.5947 41.0474 28.1147 40.5471 28.1147 39.9299V37.5404C28.1147 36.9233 27.5947 36.4229 26.9532 36.4229C26.3118 36.4229 25.7917 36.9233 25.7917 37.5404V39.9299C25.7917 40.5471 26.3116 41.0474 26.9532 41.0474ZM33.4528 39.9299C33.4528 40.5471 32.9328 41.0474 32.2913 41.0474C31.6499 41.0474 31.1298 40.5471 31.1298 39.9299V37.5404C31.1298 36.9233 31.6499 36.4229 32.2913 36.4229C32.9328 36.4229 33.4528 36.9233 33.4528 37.5404V39.9299ZM26.9532 49.3964C27.5947 49.3964 28.1147 48.8961 28.1147 48.2789V45.8894C28.1147 45.2722 27.5947 44.7719 26.9532 44.7719C26.3118 44.7719 25.7917 45.2722 25.7917 45.8894V48.2789C25.7917 48.8961 26.3116 49.3964 26.9532 49.3964ZM33.4528 48.2789C33.4528 48.8961 32.9328 49.3964 32.2913 49.3964C31.6499 49.3964 31.1298 48.8961 31.1298 48.2789V45.8894C31.1298 45.2722 31.6499 44.7719 32.2913 44.7719C32.9328 44.7719 33.4528 45.2722 33.4528 45.8894V48.2789ZM26.9532 57.7454C27.5947 57.7454 28.1147 57.2451 28.1147 56.6279V54.2384C28.1147 53.6212 27.5947 53.1209 26.9532 53.1209C26.3118 53.1209 25.7917 53.6212 25.7917 54.2384V56.6279C25.7917 57.2451 26.3116 57.7454 26.9532 57.7454ZM33.4528 56.6279C33.4528 57.2451 32.9328 57.7454 32.2913 57.7454C31.6499 57.7454 31.1298 57.2451 31.1298 56.6279V54.2384C31.1298 53.6212 31.6499 53.1209 32.2913 53.1209C32.9328 53.1209 33.4528 53.6212 33.4528 54.2384V56.6279ZM26.9532 66.0942C27.5947 66.0942 28.1147 65.5938 28.1147 64.9767V62.5871C28.1147 61.97 27.5947 61.4697 26.9532 61.4697C26.3118 61.4697 25.7917 61.97 25.7917 62.5871V64.9767C25.7917 65.5938 26.3116 66.0942 26.9532 66.0942ZM33.4528 64.9767C33.4528 65.5938 32.9328 66.0942 32.2913 66.0942C31.6499 66.0942 31.1298 65.5938 31.1298 64.9767V62.5871C31.1298 61.97 31.6499 61.4697 32.2913 61.4697C32.9328 61.4697 33.4528 61.97 33.4528 62.5871V64.9767Z" fill="url(#paint0_linear_404_8168)"/>
<defs>
<linearGradient id="paint0_linear_404_8168" x1="0.0015" y1="37.0141" x2="79.2972" y2="37.0141" gradientUnits="userSpaceOnUse">
<stop stop-color="#00B2FF"/>
<stop offset="1" stop-color="#0EBEAD"/>
</linearGradient>
</defs>
</svg>
