<svg width="80" height="74" viewBox="0 0 80 74" fill="none" xmlns="http://www.w3.org/2000/svg">
<path d="M76.9017 51.1996C76.9251 51.1541 76.9459 51.1076 76.9625 51.0597C81.7023 40.6102 80.8554 27.7995 74.6993 18.0079C77.9858 14.2551 73.7168 8.88071 69.0484 10.9602C68.228 10.1594 67.3667 9.39188 66.4741 8.66616C68.2261 4.1167 62.3787 0.384555 58.737 3.78371C48.1523 -1.32168 34.9873 -1.25703 24.461 3.9565C20.7165 0.165962 14.4278 4.23023 16.6949 8.98606C15.3965 10.0706 14.1675 11.2421 13.0343 12.481C12.0559 13.5507 13.8284 15.0169 14.8001 13.9546C15.8544 12.8022 16.9966 11.712 18.2031 10.7017C20.5362 12.3091 23.9192 11.4903 25.1992 9.03667C29.4232 10.198 33.4569 11.8649 37.2157 14.0043C36.901 15.0881 37.0295 16.2987 37.5694 17.2992C34.4758 19.8519 31.6898 22.7394 29.2706 25.904C27.0372 25.2594 24.5754 26.3384 23.6042 28.3586C18.679 28.3838 13.7384 28.8899 8.88771 29.8694C8.45941 29.1069 7.81001 28.4752 7.02281 28.0519C7.93421 24.6572 9.37761 21.4278 11.322 18.4418C12.0967 17.2518 10.1411 16.0147 9.33091 17.2588C7.26371 20.4333 5.72831 23.8663 4.75721 27.4751C-0.859444 27.5662 -1.80238 34.9883 3.54461 36.4161C3.46581 46.9793 8.2471 57.2492 16.5381 64.2452C14.8086 68.7078 20.4235 72.3889 24.129 69.2412C34.9431 74.7339 48.6102 74.7347 59.4248 69.2431C63.1936 72.8035 69.2299 68.8258 67.107 64.1714C71.3801 60.544 74.6996 56.1072 76.9017 51.1996ZM75.4244 48.695C72.179 45.6151 68.6274 42.8212 64.8355 40.3686C65.374 38.7573 64.906 36.9444 63.6484 35.7549C66.837 30.6907 69.3402 25.2605 71.1023 19.588C71.6894 19.59 72.2539 19.4865 72.774 19.2993C78.1732 28.0095 79.1607 39.2399 75.4244 48.695ZM21.4735 61.3549C20.4868 52.1232 22.2183 42.9133 26.5035 34.5904C29.1657 35.3838 32.0431 33.7117 32.5601 31.1013C40.6443 32.0533 48.4302 34.3204 55.737 37.8511C55.3856 39.1558 55.6766 40.5945 56.5137 41.6799C48.2775 51.6468 37.4058 59.1468 24.9631 63.4453C24.2092 62.3049 22.9413 61.5071 21.4735 61.3549ZM57.9321 38.9859C57.9321 37.7168 59.0051 36.6844 60.324 36.6844C63.497 36.8106 63.4961 41.1616 60.324 41.2873C59.0051 41.2873 57.9321 40.255 57.9321 38.9859ZM73.5045 15.0469C73.5045 16.316 72.4315 17.3484 71.1126 17.3484C67.9394 17.2222 67.9402 12.8712 71.1126 12.7454C72.4315 12.7454 73.5045 13.7779 73.5045 15.0469ZM67.2568 12.4141C65.6363 14.5889 66.3884 17.7328 68.8314 19.0255C67.1245 24.4972 64.7046 29.735 61.6262 34.6207C60.9826 34.4439 60.2682 34.3999 59.6065 34.4967C56.3888 27.9334 51.7067 22.0217 45.9872 17.2996C46.5276 16.2983 46.6564 15.0899 46.3413 14.0045C49.9616 11.9442 53.8395 10.3205 57.8946 9.16626C59.2424 11.6518 62.858 12.3537 65.1026 10.4929C65.8466 11.1043 66.5668 11.7465 67.2568 12.4141ZM39.3865 15.2203C39.3865 13.9512 40.4595 12.9188 41.7784 12.9188C44.9516 13.045 44.9507 17.3959 41.7784 17.5216C40.4595 17.5216 39.3865 16.4892 39.3865 15.2203ZM62.0639 4.71128C63.3829 4.71128 64.4559 5.74373 64.4559 7.01276C64.3243 10.0659 59.8032 10.0652 59.672 7.01276C59.672 5.74373 60.745 4.71128 62.0639 4.71128ZM20.9605 9.31404C19.6416 9.31404 18.5686 8.28169 18.5686 7.01257C18.7002 3.95929 23.2214 3.96035 23.3525 7.01257C23.3525 8.28169 22.2794 9.31404 20.9605 9.31404ZM25.6928 6.84093C25.6806 6.52997 25.6359 6.22729 25.5615 5.93529C35.3759 1.08728 47.6367 1.00281 57.5268 5.70977C57.3997 6.11578 57.3301 6.54507 57.3278 6.98957C53.0624 8.19491 48.9838 9.89747 45.1761 12.0607C43.3458 10.2523 40.2117 10.2516 38.3809 12.0605C34.413 9.80607 30.1536 8.05367 25.6928 6.84093ZM39.1217 18.9779C40.7071 20.0115 42.8492 20.0116 44.4348 18.9781C49.8954 23.4817 54.3688 29.1193 57.45 35.3795C57.2412 35.5328 57.0461 35.7027 56.8666 35.8864C49.1632 32.1542 40.9425 29.7812 32.4036 28.8264C32.173 28.1599 31.786 27.5614 31.2835 27.0715C33.5752 24.0978 36.2052 21.3819 39.1217 18.9779ZM27.9075 27.9513C29.2263 27.9513 30.2993 28.9837 30.2993 30.2528C30.1677 33.306 25.6466 33.3052 25.5154 30.2528C25.5156 28.9837 26.5886 27.9513 27.9075 27.9513ZM2.32251 32.0154C2.32251 30.7464 3.39551 29.7141 4.71441 29.7141C7.88741 29.8402 7.88651 34.1911 4.71441 34.3168C3.39561 34.3169 2.32251 33.2846 2.32251 32.0154ZM5.88931 36.4152C5.88931 36.4152 9.45051 35.6734 9.45051 32.0451C9.45051 32.0451 18.5885 30.6498 23.1861 30.6008C23.2723 31.6858 23.7574 32.6649 24.5013 33.4037C19.9324 42.1838 18.0895 51.9183 19.1503 61.6731C18.6935 61.855 18.273 62.1036 17.9013 62.4058C10.2523 55.8605 5.88931 44.8938 5.88931 36.4152ZM20.9605 68.1703C19.6416 68.1703 18.5686 67.1379 18.5686 65.8688C18.5686 64.5998 19.6416 63.5673 20.9605 63.5673C22.2617 63.5673 23.3525 64.644 23.3525 65.8688C23.3525 67.1379 22.2794 68.1703 20.9605 68.1703ZM41.7784 71.1383C36.0881 71.1383 30.4611 69.8366 25.4319 67.3652C25.6361 66.8063 25.7261 66.1696 25.6864 65.5765C38.5577 61.1448 49.8052 53.4 58.3258 43.1019C59.0258 43.4155 59.8025 43.5594 60.5743 43.5207C61.0952 45.3674 61.5068 47.2513 61.7985 49.1351C62.0218 50.5773 64.3421 50.255 64.1181 48.8075C63.8084 46.8073 63.37 44.8067 62.8133 42.8473C63.0936 42.6807 63.354 42.4864 63.5913 42.2691C67.5037 44.8062 71.1514 47.7187 74.4559 50.9421C72.4065 55.2695 69.4237 59.1878 65.634 62.4255C65.2593 62.1568 64.8414 61.9405 64.3929 61.7868C64.6233 59.7047 64.7237 57.6026 64.6899 55.5235C64.6662 54.0605 62.3215 54.0948 62.3454 55.5581C62.3779 57.5566 62.281 59.5775 62.0584 61.5788C59.2932 61.9988 57.4847 64.7376 58.2467 67.3044C53.1859 69.815 47.5153 71.1383 41.7784 71.1383ZM62.8022 68.365C61.4833 68.365 60.4103 67.3327 60.4103 66.0636C60.5419 63.0103 65.0631 63.0113 65.1942 66.0636C65.1942 67.3327 64.1212 68.365 62.8022 68.365Z" fill="url(#paint0_linear_404_8169)"/>
<defs>
<linearGradient id="paint0_linear_404_8169" x1="0.00150606" y1="36.682" x2="80.0056" y2="36.682" gradientUnits="userSpaceOnUse">
<stop stop-color="#00B2FF"/>
<stop offset="1" stop-color="#0EBEAD"/>
</linearGradient>
</defs>
</svg>
