<svg width="75" height="73" viewBox="0 0 75 73" fill="none" xmlns="http://www.w3.org/2000/svg">
<path fill-rule="evenodd" clip-rule="evenodd" d="M37.5 0.792969C37.8853 0.792969 38.2632 0.943732 38.5355 1.20591C38.8081 1.46809 38.9648 1.83167 38.9648 2.20228C38.9648 2.57298 38.8081 2.93656 38.5355 3.19874C38.2632 3.46082 37.8853 3.61168 37.5 3.61168C37.1147 3.61168 36.737 3.46082 36.4644 3.19874C36.1917 2.93656 36.0352 2.57298 36.0352 2.20228C36.0352 1.83167 36.1917 1.46809 36.4644 1.20591C36.7368 0.943732 37.1147 0.792969 37.5 0.792969ZM62.155 5.91036C62.155 5.13201 62.811 4.50106 63.6199 4.50106C64.4287 4.50106 65.0847 5.13201 65.0847 5.91036V6.8771C65.0847 7.65545 64.4287 8.2864 63.6199 8.2864C62.8108 8.2864 62.155 7.65545 62.155 6.8771V5.91036ZM60.5681 8.40349H59.5634C58.7545 8.40349 58.0985 9.03445 58.0985 9.8128C58.0985 10.5912 58.7545 11.2221 59.5634 11.2221H60.5681C61.377 11.2221 62.033 10.5912 62.033 9.8128C62.033 9.03445 61.377 8.40349 60.5681 8.40349ZM67.1719 46.8888L62.2854 45.7656V43.9007C64.9978 42.2514 66.8042 39.3427 66.8042 36.0341V30.7819C66.8042 25.6528 62.4671 21.4802 57.1359 21.4802C54.2602 21.4802 51.6751 22.6959 49.9025 24.6195C48.3501 19.4468 43.3847 15.6527 37.5152 15.6527C31.6362 15.6527 26.664 19.4588 25.1202 24.6442C23.3471 22.7063 20.7526 21.4802 17.8645 21.4802C12.5333 21.4802 8.1962 25.653 8.1962 30.7819V36.0341C8.1962 39.3428 10.0027 42.2516 12.715 43.9007V45.7656L7.8286 46.8888C3.2191 47.948 0 51.8721 0 56.4311V65.9049C0 66.6833 0.656 67.3143 1.4648 67.3143H13.1782V71.5423C13.1782 72.3208 13.8341 72.9517 14.643 72.9517H30.7129C31.5218 72.9517 32.1778 72.3208 32.1778 71.5423C32.1778 70.764 31.5218 70.133 30.7129 70.133H24.1734V63.9302C24.1734 63.1518 23.5175 62.5209 22.7086 62.5209C21.8997 62.5209 21.2437 63.1518 21.2437 63.9302V70.133H16.1077V63.7743C16.1077 58.9946 19.4818 54.8787 24.313 53.7648L31.5176 52.1037L36.1532 62.2505C36.387 62.7622 36.913 63.0927 37.494 63.0927C38.075 63.0927 38.6013 62.7624 38.8351 62.2507L43.466 52.1187L50.6496 53.7697C55.4852 54.881 58.8623 58.9979 58.8623 63.7809V65.3536C58.7874 65.523 58.7458 65.7092 58.7458 65.9048C58.7458 66.1004 58.7874 66.2868 58.8623 66.456V70.133H53.7563V63.9302C53.7563 63.1518 53.1003 62.5209 52.2914 62.5209C51.4825 62.5209 50.8266 63.1518 50.8266 63.9302V70.133H43.6525C42.8436 70.133 42.1876 70.764 42.1876 71.5423C42.1876 72.3208 42.8436 72.9517 43.6525 72.9517H60.3271C61.136 72.9517 61.7919 72.3208 61.7919 71.5423V67.3143H73.5352C74.344 67.3143 75 66.6833 75 65.9049V56.4311C75 51.8721 71.7809 47.948 67.1719 46.8888ZM57.1358 24.2989C60.8514 24.2989 63.8744 27.2072 63.8744 30.7819V31.1308V31.2725H59.6845C56.5195 31.2725 53.4095 30.473 50.6687 28.9575C51.4898 26.2681 54.0782 24.2989 57.1358 24.2989ZM50.3972 35.8041C50.4023 35.6602 50.406 32.0146 50.406 32.0146C53.2857 33.3772 56.4605 34.0913 59.6846 34.0913H63.8745V36.0342C63.8744 39.6089 60.8514 42.5171 57.1358 42.5171C53.4202 42.5171 50.3972 39.6087 50.3972 36.0341V35.8041ZM27.5537 28.0552C27.5537 22.7707 32.0224 18.4716 37.5151 18.4716C43.0077 18.4716 47.4763 22.7709 47.4763 28.0552V28.2389L42.0396 25.1659C41.4227 24.8171 40.6343 24.9483 40.1748 25.4758C38.0625 27.9011 34.9646 29.2921 31.6756 29.2921H27.5537V28.0552ZM11.1256 31.131V30.7819C11.1256 27.2071 14.1486 24.2989 17.8642 24.2989C20.9218 24.2989 23.5102 26.2682 24.3312 28.9576C21.5903 30.473 18.4805 31.2726 15.3154 31.2726H11.1256V31.131ZM11.1256 36.0341V34.0912H15.3155C18.5429 34.0912 21.7208 33.3758 24.6028 32.0105V36.0341C24.6028 39.6089 21.5798 42.5171 17.8642 42.5171C14.1486 42.5171 11.1256 39.6087 11.1256 36.0341ZM13.1782 63.7743V64.4956H8.7891V58.2341C8.7891 57.4556 8.1331 56.8246 7.3242 56.8246C6.5153 56.8246 5.8594 57.4556 5.8594 58.2341V64.4956H2.9297V56.4311C2.9297 53.1819 5.2239 50.3853 8.5088 49.6303L13.1521 48.5631L16.1826 55.5471C14.2872 57.8125 13.1782 60.6839 13.1782 63.7743ZM17.8645 52.1066L15.6398 46.9795C15.6423 46.9458 15.6444 46.9122 15.6444 46.878V45.0856C16.3576 45.2474 17.1003 45.3358 17.8642 45.3358C18.6248 45.3358 19.3639 45.2481 20.0744 45.0877V46.7888C20.0728 46.8153 20.072 46.8418 20.072 46.8683C20.072 46.9126 20.0764 46.9568 20.0808 47.0009L17.8645 52.1066ZM23.6304 51.0238C22.7654 51.2232 21.9388 51.5007 21.154 51.8429L22.5807 48.556L27.2247 49.6267C27.5849 49.7097 27.9359 49.8195 28.2756 49.9528L23.6304 51.0238ZM30.9013 48.0862C29.9817 47.5374 28.9727 47.1311 27.9075 46.8856L23.0041 45.7552V43.9068C24.2235 43.1673 25.2593 42.1735 26.0314 41.0026C27.1358 43.0784 28.8308 44.8168 30.9013 46.0124V48.0862ZM41.1523 50.1785L37.4944 58.1816L33.831 50.1628V47.2562C34.9988 47.5919 36.2353 47.773 37.5149 47.773C38.7776 47.773 39.9983 47.5965 41.1523 47.2694V50.1785ZM37.5151 44.9544C32.0222 44.9543 27.5537 40.655 27.5537 35.3707V32.1109H31.6755C35.4144 32.1109 38.958 30.6892 41.5759 28.173L47.4677 31.5032V35.7015C47.2854 40.833 42.8925 44.9544 37.5151 44.9544ZM44.082 46.0389C46.1653 44.8473 47.8723 43.1078 48.9851 41.0274C49.7556 42.1874 50.7853 43.1724 51.9959 43.9068V45.7552L47.0925 46.8856C46.0208 47.1327 45.0062 47.5426 44.082 48.0965V46.0389ZM51.3302 51.0285L46.6976 49.9635C47.0457 49.8255 47.4056 49.7119 47.7753 49.6267L52.408 48.5587L53.8406 51.8602C53.0457 51.5118 52.2076 51.2301 51.3302 51.0285ZM54.9161 47.0219C54.922 46.9708 54.9262 46.9193 54.9262 46.8677V46.8557C54.9261 46.8465 54.9259 46.8374 54.9256 46.8283V45.0877C55.6361 45.2483 56.3752 45.3358 57.1358 45.3358C57.8997 45.3358 58.6424 45.2474 59.3556 45.0855V46.8779L59.3557 46.8856L59.3559 46.8974L59.3564 46.909C59.3569 46.9193 59.3575 46.9295 59.3581 46.9398L59.359 46.9541L57.1225 52.1066L54.9161 47.0219ZM72.0703 64.4956H69.1406V58.2341C69.1406 57.4556 68.4847 56.8246 67.6758 56.8246C66.8669 56.8246 66.2109 57.4556 66.2109 58.2341V64.4956H61.7919V63.781C61.7919 60.6948 60.6866 57.8273 58.7966 55.5639L61.8366 48.5606L66.4912 49.6303C69.7761 50.3853 72.0703 53.1819 72.0703 56.4311V64.4956ZM38.4975 70.5459C38.2252 70.2838 37.8472 70.1329 37.462 70.1329C37.0766 70.1329 36.6987 70.2838 36.4263 70.5459C36.1539 70.808 35.9971 71.1716 35.9971 71.5423C35.9971 71.9129 36.1537 72.2765 36.4263 72.5387C36.6987 72.8009 37.0766 72.9516 37.462 72.9516C37.8472 72.9516 38.2252 72.8009 38.4975 72.5387C38.77 72.2765 38.9268 71.9129 38.9268 71.5423C38.9268 71.1716 38.7701 70.808 38.4975 70.5459ZM32.5868 33.3841C32.9721 33.3841 33.35 33.5349 33.6223 33.7971C33.8962 34.0593 34.0517 34.4228 34.0517 34.7936C34.0517 35.1642 33.8962 35.5277 33.6223 35.7899C33.35 36.0521 32.9735 36.2029 32.5868 36.2029C32.2016 36.2029 31.8238 36.0521 31.5512 35.7899C31.2786 35.5277 31.122 35.1642 31.122 34.7936C31.122 34.4228 31.2787 34.0593 31.5512 33.7971C31.8236 33.5349 32.2016 33.3841 32.5868 33.3841ZM43.4179 33.7971C43.1456 33.5349 42.7677 33.3841 42.3824 33.3841C41.9971 33.3841 41.6192 33.5349 41.3468 33.7971C41.0743 34.0593 40.9176 34.4228 40.9176 34.7936C40.9176 35.1642 41.0741 35.5277 41.3468 35.7899C41.6194 36.0521 41.9971 36.2029 42.3824 36.2029C42.7677 36.2029 43.1456 36.0521 43.4179 35.7899C43.6918 35.5277 43.8472 35.1642 43.8472 34.7936C43.8472 34.4228 43.6918 34.0593 43.4179 33.7971ZM38.2476 38.5412C38.8199 37.9909 39.7472 37.9909 40.3193 38.5412C40.8913 39.0915 40.8913 39.984 40.3192 40.5344C39.5314 41.2924 38.4968 41.6712 37.462 41.6712C36.4272 41.6712 35.3926 41.2923 34.6048 40.5344C34.0328 39.984 34.0328 39.0915 34.6048 38.5412C35.1771 37.9909 36.1044 37.9909 36.6765 38.5412C37.1097 38.958 37.8144 38.958 38.2476 38.5412ZM66.6711 8.40349H67.6758C68.4847 8.40349 69.1406 9.03445 69.1406 9.8128C69.1406 10.5912 68.4847 11.2221 67.6758 11.2221H66.6711C65.862 11.2221 65.2062 10.5912 65.2062 9.8128C65.2062 9.03445 65.8622 8.40349 66.6711 8.40349ZM63.6199 11.3393C62.811 11.3393 62.155 11.9702 62.155 12.7487V13.7153C62.155 14.4937 62.8108 15.1247 63.6199 15.1247C64.4287 15.1247 65.0847 14.4937 65.0847 13.7153V12.7487C65.0847 11.9702 64.4287 11.3393 63.6199 11.3393ZM8.2474 8.40349H7.2428C6.4339 8.40349 5.7779 9.03445 5.7779 9.8128C5.7779 10.5912 6.4339 11.2221 7.2428 11.2221H8.2474C9.0563 11.2221 9.7122 10.5912 9.7122 9.8128C9.7122 9.03445 9.0563 8.40349 8.2474 8.40349ZM14.3503 8.40349H15.3549C16.1638 8.40349 16.8198 9.03445 16.8198 9.8128C16.8198 10.5912 16.1638 11.2221 15.3549 11.2221H14.3503C13.5413 11.2221 12.8855 10.5912 12.8855 9.8128C12.8855 9.03445 13.5414 8.40349 14.3503 8.40349ZM11.299 11.3393C10.4901 11.3393 9.8342 11.9702 9.8342 12.7487V13.7153C9.8342 14.4937 10.49 15.1247 11.299 15.1247C12.1079 15.1247 12.7638 14.4937 12.7638 13.7153V12.7487C12.7638 11.9702 12.1079 11.3393 11.299 11.3393ZM9.8342 5.91036C9.8342 5.13201 10.4901 4.50106 11.299 4.50106C12.1079 4.50106 12.7638 5.13201 12.7638 5.91036V6.8771C12.7638 7.65545 12.1079 8.2864 11.299 8.2864C10.49 8.2864 9.8342 7.65545 9.8342 6.8771V5.91036ZM37.5 6.1608C36.6911 6.1608 36.0352 6.79176 36.0352 7.57011V11.2781C36.0352 12.0565 36.6911 12.6875 37.5 12.6875C38.3089 12.6875 38.9648 12.0565 38.9648 11.2781V7.57011C38.9648 6.79176 38.3089 6.1608 37.5 6.1608ZM32.3664 6.44722L30.2228 4.38474C29.6506 3.83441 28.7234 3.83441 28.151 4.38474C27.579 4.93516 27.579 5.82753 28.151 6.37805L30.2948 8.44044C30.5809 8.7157 30.9558 8.85328 31.3306 8.85328C31.7055 8.85328 32.0803 8.7157 32.3664 8.44044C32.9384 7.89011 32.9384 6.99775 32.3664 6.44722ZM44.7769 4.3071C45.3492 3.75677 46.2764 3.75677 46.8486 4.3071C47.4206 4.85762 47.4206 5.74998 46.8486 6.30031L44.6333 8.43168C44.3472 8.70695 43.9725 8.84453 43.5975 8.84453C43.2225 8.84453 42.8478 8.70695 42.5616 8.43168C41.9896 7.88116 41.9896 6.9888 42.5616 6.43847L44.7769 4.3071Z" fill="url(#paint0_linear_404_8170)"/>
<defs>
<linearGradient id="paint0_linear_404_8170" x1="0.0014" y1="36.8736" x2="75.0053" y2="36.8736" gradientUnits="userSpaceOnUse">
<stop stop-color="#00B2FF"/>
<stop offset="1" stop-color="#0EBEAD"/>
</linearGradient>
</defs>
</svg>
