<svg width="81" height="70" viewBox="0 0 81 70" fill="none" xmlns="http://www.w3.org/2000/svg">
<path fill-rule="evenodd" clip-rule="evenodd" d="M66.742 35.5851H78.5064C79.37 35.5851 80.0701 36.2587 80.0701 37.0894V46.3161C80.0701 47.6876 79.5371 48.9796 78.5675 49.9756V66.1539C78.5675 68.0466 76.9672 69.5861 75.0002 69.5861L35.8092 69.5845C26.2442 69.5845 17.2517 66.0009 10.4882 59.4936C3.7248 52.9864 0 44.3345 0 35.132C0 28.9489 1.7148 22.9111 4.9645 17.6213L0.471 13.2776C0.0252997 12.8467 -0.10697 12.2002 0.1354 11.639C0.3778 11.0777 0.9474 10.712 1.5794 10.712H10.4687V2.18569C10.4687 1.57753 10.849 1.02922 11.433 0.796104C12.0168 0.562887 12.6889 0.691136 13.1367 1.12072L17.637 5.44043C23.1278 2.32414 29.3935 0.679688 35.8089 0.679688C42.7723 0.679688 49.5238 2.60459 55.3331 6.24649C60.992 9.79381 65.4806 14.7776 68.3142 20.6588C68.6773 21.4126 68.3365 22.307 67.5531 22.6565C67.3402 22.7515 67.1166 22.7964 66.8964 22.7964C66.3062 22.7964 65.7413 22.4735 65.4767 21.9243C60.1394 10.8465 48.4942 3.68851 35.8087 3.68851C30.2263 3.68851 24.7693 5.05231 19.9317 7.64281L25.2224 12.7206C25.5166 13.0028 25.6819 13.3861 25.6819 13.7857V23.2483L35.3237 32.5247C35.9344 33.1124 35.9344 34.065 35.3237 34.6526C35.0186 34.9464 34.6183 35.0933 34.2181 35.0933C33.818 35.0933 33.4179 34.9464 33.1124 34.6526L23.4707 25.3761H13.6355C13.2197 25.3761 12.8208 25.2166 12.5272 24.9329L7.2512 19.8326C4.5496 24.493 3.1273 29.752 3.1273 35.1321C3.1273 52.3376 17.5657 66.3572 35.3971 66.5705C35.3797 66.4339 35.3699 66.2952 35.3699 66.1541V60.7024C28.5095 60.5888 21.8798 57.9003 17.0121 53.2171C10.6859 47.1304 7.9757 38.4547 9.762 30.0095C9.9342 29.1953 10.7596 28.6694 11.6061 28.8352C12.4523 29.0009 12.9987 29.7953 12.8265 30.6095C11.25 38.0628 13.6415 45.7187 19.2237 51.0895C23.5727 55.2739 29.2697 57.5956 35.37 57.6959V49.975C34.4391 49.0166 33.8675 47.7312 33.8675 46.319V37.0898C33.8675 36.259 34.5676 35.5852 35.4312 35.5852H47.1955V32.4728C47.1955 30.96 48.4749 29.729 50.0474 29.729H58.584C57.566 25.7381 55.4414 22.1057 52.3951 19.1748C46.9547 13.9402 39.1801 11.6057 31.5986 12.9294C30.749 13.0773 29.935 12.5354 29.7808 11.7177C29.6266 10.9001 30.1905 10.1172 31.0401 9.96881C39.631 8.46917 48.4407 11.1147 54.6066 17.047C58.2402 20.5431 60.716 24.9215 61.791 29.7288H63.8902C65.4626 29.7288 66.742 30.9598 66.742 32.4727V35.5851ZM22.5547 14.4096L13.596 5.81161V11.5944L22.5547 20.2331V14.4096ZM20.3433 22.3665L11.3836 13.721H5.3419L14.2855 22.3665H20.3433ZM63.6143 32.7378H50.3228V35.5851H63.6143V32.7378ZM65.1782 59.3546H75.4398V51.5985C75.132 51.6486 74.8178 51.6757 74.4993 51.6757H74.4957L61.6044 51.6679C61.332 53.897 59.3574 55.6324 56.9686 55.6324C54.5834 55.6324 52.6114 53.9024 52.3341 51.6782H39.4378C39.1172 51.6782 38.8032 51.6506 38.4971 51.6003V66.1539C38.4971 66.3819 38.6856 66.567 38.9203 66.5755H40.8207C40.832 66.5755 40.8428 66.5771 40.854 66.5772H75.0002C75.2428 66.5772 75.44 66.3874 75.44 66.1538V62.3635H65.1782C64.3146 62.3635 63.6144 61.6897 63.6144 60.859C63.6144 60.0284 64.3146 59.3546 65.1782 59.3546ZM55.4271 48.4956V51.1402C55.4271 51.9581 56.1188 52.6234 56.9688 52.6234C57.8187 52.6234 58.5104 51.9581 58.5104 51.1402V48.4956H55.4271ZM76.2264 47.9788C76.6884 47.5348 76.9427 46.9444 76.9427 46.3161L76.9425 38.5941H36.9946V46.3187C36.9946 47.6148 38.0905 48.6693 39.4378 48.6693H52.2994V47.2802C52.2994 46.2911 53.1357 45.4866 54.1637 45.4866H59.7734C60.8015 45.4866 61.6377 46.2913 61.6377 47.2802V48.6591L74.4977 48.6669H74.4993C75.1517 48.6669 75.7649 48.4225 76.2264 47.9788ZM46.7413 23.9576C43.772 21.2678 39.8896 19.7863 35.8093 19.7863C33.8984 19.7863 32.0286 20.1086 30.2521 20.7438C29.4426 21.0335 29.0304 21.8994 29.3313 22.6784C29.6321 23.4573 30.5321 23.854 31.3419 23.5643C32.7688 23.054 34.2717 22.7952 35.8094 22.7952C39.0896 22.7952 42.2107 23.9859 44.5974 26.1481C44.8994 26.4219 45.2846 26.5574 45.669 26.5574C46.085 26.5574 46.5 26.3987 46.8078 26.0842C47.3997 25.4794 47.3699 24.5271 46.7413 23.9576ZM70.5901 26.9023L70.6029 26.9528C70.8065 27.7603 70.2909 28.5735 69.4518 28.7694C69.328 28.7983 69.204 28.8121 69.0821 28.8121C68.3769 28.8121 67.7371 28.3504 67.5637 27.6618L67.5543 27.6253C67.3468 26.8185 67.8583 26.003 68.6966 25.8033C69.5348 25.6039 70.3826 26.0957 70.5901 26.9023ZM22.9868 35.1319C22.9868 39.4943 25.3079 43.4464 29.1957 45.7033C29.9352 46.1327 30.1729 47.0573 29.7267 47.7687C29.4331 48.237 28.9163 48.4963 28.3865 48.4963C28.1114 48.4963 27.8331 48.4266 27.5802 48.2799C22.7459 45.4733 19.8597 40.5581 19.8597 35.132C19.8597 33.4565 20.139 31.8085 20.6898 30.2341C20.9653 29.4467 21.8522 29.0234 22.6706 29.2882C23.4889 29.5532 23.9292 30.4066 23.6536 31.1939C23.2112 32.4585 22.9868 33.7834 22.9868 35.1319Z" fill="url(#paint0_linear_404_8171)"/>
<defs>
<linearGradient id="paint0_linear_404_8171" x1="0.0015" y1="35.1342" x2="80.0758" y2="35.1342" gradientUnits="userSpaceOnUse">
<stop stop-color="#00B2FF"/>
<stop offset="1" stop-color="#0EBEAD"/>
</linearGradient>
</defs>
</svg>
