<svg width="84" height="69" viewBox="0 0 84 69" fill="none" xmlns="http://www.w3.org/2000/svg">
<path fill-rule="evenodd" clip-rule="evenodd" d="M58.1457 12.0798C58.1457 5.92308 63.2019 0.982422 69.6011 0.982422C76.0003 0.982422 81.1354 5.84707 81.1354 12.0038C81.1354 18.1605 75.9213 23.1012 69.6011 23.1012C63.2809 23.1012 58.1457 18.2365 58.1457 12.0798ZM60.5948 12.0038C60.5948 16.7924 64.6239 20.6688 69.6011 20.6688C74.5782 20.6688 78.6073 16.8684 78.6073 12.0798C78.6073 7.2912 74.5782 3.41474 69.6011 3.41474C64.7029 3.41474 60.5948 7.2152 60.5948 12.0038ZM73.1792 13.5641C73.195 13.6227 73.2115 13.684 73.2351 13.752C73.3141 13.98 73.3141 14.132 73.3141 14.3601C73.3141 14.6642 73.3141 14.8922 73.2351 15.1202L72.9981 15.8043C72.9358 15.8942 72.8858 15.9842 72.8383 16.0694C72.7655 16.2004 72.6988 16.3203 72.6031 16.4123C72.4451 16.6404 72.2871 16.7924 72.1291 16.9444C72.0584 16.9898 71.9947 17.0351 71.9338 17.0785C71.7907 17.1804 71.6634 17.2711 71.4971 17.3244C71.2601 17.4764 71.0231 17.5525 70.7861 17.6285H70.7071V18.8447V19.2247H70.312H69.206H68.811V18.8447V17.7045H68.653C68.416 17.7045 68.258 17.7045 68.021 17.6285C67.9123 17.5936 67.8036 17.5748 67.7025 17.5573C67.5832 17.5365 67.4745 17.5176 67.389 17.4764C67.231 17.4764 66.9939 17.4004 66.8359 17.3244C66.8089 17.3158 66.7829 17.3071 66.7576 17.2986C66.5609 17.2331 66.4049 17.1811 66.1249 17.2484L65.8879 17.1724V16.9444L66.0459 15.5763L66.1249 15.0442L66.5989 15.2722C66.6384 15.2722 66.6779 15.2912 66.7174 15.3102C66.7569 15.3292 66.7964 15.3482 66.8359 15.3482C66.8754 15.3482 66.9149 15.3672 66.9545 15.3863C66.9939 15.4052 67.0334 15.4243 67.073 15.4243C67.152 15.4623 67.231 15.4812 67.31 15.5003C67.389 15.5192 67.468 15.5383 67.547 15.5763C67.705 15.6523 67.863 15.7283 68.021 15.7283C68.0537 15.7283 68.1 15.7413 68.1542 15.7566C68.2309 15.7782 68.3234 15.8043 68.416 15.8043H68.811H69.127H69.443C69.5356 15.8043 69.6281 15.7782 69.7048 15.7566C69.759 15.7413 69.8053 15.7283 69.838 15.7283C69.8775 15.6903 69.9368 15.6712 69.996 15.6523C70.0553 15.6332 70.1145 15.6143 70.154 15.5763C70.312 15.5003 70.391 15.4243 70.47 15.3482L70.7071 15.1202C70.7861 15.0442 70.8651 14.8922 70.8651 14.8162V14.4361C70.8651 14.3471 70.838 14.258 70.8155 14.1843C70.7996 14.1321 70.7861 14.0875 70.7861 14.056C70.7559 13.998 70.7372 13.9511 70.7213 13.9109C70.6955 13.846 70.6769 13.799 70.6281 13.752L70.3911 13.524C70.312 13.524 70.233 13.448 70.154 13.372C70.1145 13.334 70.0553 13.315 69.996 13.296C69.9368 13.277 69.8775 13.258 69.838 13.22C69.759 13.1439 69.601 13.0679 69.522 13.0679C69.364 12.9919 69.127 12.9159 68.89 12.8399C68.8422 12.8169 68.7871 12.7869 68.7269 12.7542C68.5885 12.6789 68.4232 12.5889 68.258 12.5359C68.2207 12.5179 68.179 12.5 68.135 12.481C67.9925 12.4198 67.8257 12.348 67.705 12.2319C67.468 12.1559 67.31 12.0038 67.152 11.8518C67.073 11.7758 67.0137 11.6998 66.9545 11.6238C66.8952 11.5478 66.8359 11.4718 66.7569 11.3958C66.7174 11.3197 66.6582 11.2247 66.5989 11.1297C66.5397 11.0347 66.4804 10.9396 66.4409 10.8636C66.3301 10.7037 66.297 10.5812 66.2598 10.4435C66.244 10.3849 66.2275 10.3236 66.2039 10.2556C66.1249 10.0276 66.1249 9.87554 66.1249 9.64752C66.1249 9.4195 66.1249 9.11547 66.2039 8.88745L66.4409 8.20339C66.5199 7.97527 66.5989 7.74725 66.7569 7.59523C66.9149 7.36721 67.073 7.2152 67.231 7.06318C67.389 6.91117 67.547 6.75915 67.784 6.68315C68.021 6.53113 68.258 6.45513 68.495 6.37912H68.574V5.23901V4.85898H68.969H70.075H70.47V5.23901V6.30311H70.5491C70.6281 6.30311 70.6873 6.32207 70.7466 6.34112C70.8058 6.36007 70.8651 6.37912 70.9441 6.37912C71.0366 6.37912 71.1292 6.40519 71.2059 6.42684C71.2601 6.44204 71.3064 6.45513 71.3391 6.45513C71.4316 6.45513 71.4971 6.4812 71.5513 6.50285C71.5896 6.51805 71.6224 6.53113 71.6551 6.53113C71.6946 6.53113 71.7538 6.55018 71.8131 6.56914C71.8723 6.58819 71.9316 6.60714 71.9711 6.60714L72.2871 6.68315V6.98718L72.1291 8.20339L72.0501 8.65943L71.6551 8.50742C71.6224 8.50742 71.5896 8.49433 71.5513 8.47903C71.4971 8.45748 71.4316 8.43141 71.3391 8.43141C71.2996 8.43141 71.2403 8.41236 71.1811 8.3934C71.1218 8.37435 71.0626 8.3554 71.0231 8.3554C70.9903 8.3554 70.9441 8.34232 70.8899 8.32702C70.8132 8.30547 70.7206 8.27939 70.6281 8.27939C70.4701 8.20339 70.3911 8.20339 70.233 8.20339H69.996H69.759C69.601 8.20339 69.522 8.20339 69.364 8.27939C69.206 8.27939 69.048 8.3554 68.969 8.43141L68.732 8.65943C68.6925 8.69743 68.6728 8.75439 68.653 8.81144C68.6332 8.8684 68.6135 8.92545 68.574 8.96346C68.574 9.00146 68.5542 9.05842 68.5345 9.11547C68.5147 9.17243 68.495 9.22948 68.495 9.26749V9.64752C68.495 9.72353 68.495 9.87554 68.574 9.95155C68.574 10.1036 68.653 10.1796 68.732 10.2556L68.969 10.4836C69.0085 10.5216 69.0678 10.5407 69.127 10.5596C69.1863 10.5787 69.2455 10.5976 69.285 10.6356C69.3245 10.6736 69.3838 10.6927 69.443 10.7116C69.5023 10.7307 69.5615 10.7496 69.601 10.7876C69.68 10.8636 69.838 10.9396 69.917 10.9396C70.075 11.0156 70.312 11.0917 70.5491 11.1677C70.6676 11.2057 70.7663 11.2627 70.8651 11.3198C70.9638 11.3767 71.0626 11.4338 71.1811 11.4718C71.2184 11.4897 71.2601 11.5077 71.3041 11.5265C71.4466 11.5879 71.6134 11.6597 71.7341 11.7758C71.9711 11.8518 72.1291 12.0038 72.2871 12.1559C72.3661 12.2319 72.4254 12.3079 72.4846 12.3839C72.5439 12.4599 72.6031 12.5359 72.6821 12.6119C72.8028 12.728 72.8774 12.8885 72.9411 13.0256L72.9416 13.0265C72.9611 13.0685 72.9796 13.1083 72.9981 13.1439C73.109 13.3039 73.1421 13.4265 73.1792 13.5641ZM64.0709 24.5453C63.6758 24.0132 62.8068 23.9371 62.2538 24.3173L49.4554 34.1225L32.9439 27.5097C32.5489 27.3577 32.0749 27.4337 31.7589 27.6617L14.0624 39.8231C13.5094 40.2031 13.3514 40.9633 13.7464 41.4954C13.9834 41.8754 14.3784 42.0274 14.7734 42.0274C15.0104 42.0274 15.2474 41.9514 15.4844 41.7994L32.6279 30.0179L49.2184 36.6307C49.6134 36.7827 50.1664 36.7067 50.4825 36.4787L63.8338 26.2935C64.3869 25.9134 64.4659 25.0774 64.0709 24.5453ZM76.7113 66.1985H82.5574C83.2685 66.1985 83.8215 66.7306 83.7425 67.4147C83.7425 68.0987 83.1895 68.6308 82.4784 68.6308H75.3682H63.7549H56.9607H45.3473H38.5531H26.9398H19.9876H8.3742H1.26404C0.55302 68.6308 0 68.0987 0 67.4147C0 66.7306 0.55302 66.1985 1.26404 66.1985H7.1892V48.4883C7.1892 47.8042 7.7422 47.2722 8.4532 47.2722H20.1456C20.8566 47.2722 21.4096 47.8042 21.4096 48.4883V66.1985H25.6758V41.3434C25.6758 40.6594 26.2288 40.1273 26.9398 40.1273H38.5531C39.2642 40.1273 39.8172 40.6594 39.8172 41.3434V66.1985H44.0833V43.1677C44.0833 42.4836 44.6363 41.9515 45.3473 41.9515H57.0397C57.7507 41.9515 58.3037 42.4836 58.3037 43.1677V66.1985H62.5698V31.0062C62.5698 30.3221 63.1229 29.79 63.8339 29.79H75.4472C76.1582 29.79 76.7113 30.3221 76.7113 31.0062V66.1985ZM9.7173 66.1985H18.8026V49.7045H9.7173V66.1985ZM28.2038 66.1985H37.2891V42.5596H28.2038V66.1985ZM46.6114 66.1985H55.6966V44.3838H46.6114V66.1985ZM65.0979 66.1985H74.1832V32.2223H65.0979V66.1985Z" fill="url(#paint0_linear_404_8172)"/>
<defs>
<linearGradient id="paint0_linear_404_8172" x1="0.00158" y1="34.8079" x2="83.7559" y2="34.8079" gradientUnits="userSpaceOnUse">
<stop stop-color="#00B2FF"/>
<stop offset="1" stop-color="#0EBEAD"/>
</linearGradient>
</defs>
</svg>
