<svg width="74" height="68" viewBox="0 0 74 68" fill="none" xmlns="http://www.w3.org/2000/svg">
<path d="M68.3537 13.9423H51.2482C52.3823 12.533 53.064 10.787 53.064 8.89117C53.064 4.24925 49.0294 0.472656 44.0701 0.472656C41.1264 0.472656 38.5173 1.80952 36.875 3.862C35.2336 1.80952 32.6236 0.472656 29.6799 0.472656C24.7206 0.472656 20.686 4.24925 20.686 8.89117C20.686 10.787 21.3677 12.533 22.5018 13.9423H5.3963C2.4203 13.9423 0 16.2077 0 18.9934V25.7282C0 27.9229 1.5047 29.7893 3.5976 30.4847V62.7696C3.5976 65.5553 6.0178 67.8207 8.9939 67.8207H64.7561C67.7322 67.8207 70.1524 65.5553 70.1524 62.7696V30.4847C72.2453 29.7893 73.75 27.9229 73.75 25.7282V18.9934C73.75 16.2077 71.3297 13.9423 68.3537 13.9423ZM31.4787 27.4119V17.3097H42.2713V27.4119H31.4787ZM42.2713 30.7793V64.4533H31.4787V30.7793H42.2713ZM44.0701 3.84006C47.0462 3.84006 49.4665 6.10546 49.4665 8.89117C49.4665 11.6769 47.0462 13.9423 44.0701 13.9423H38.6738V8.89117C38.6738 6.10546 41.094 3.84006 44.0701 3.84006ZM24.2835 8.89117C24.2835 6.10546 26.7038 3.84006 29.6799 3.84006C32.656 3.84006 35.0762 6.10546 35.0762 8.89117V13.9423H29.6799C26.7038 13.9423 24.2835 11.6769 24.2835 8.89117ZM3.5976 18.9934C3.5976 18.0648 4.4043 17.3097 5.3963 17.3097H27.8811V27.4119H5.3963C4.4043 27.4119 3.5976 26.6567 3.5976 25.7282V18.9934ZM7.1951 62.7696V30.7793H27.8811V64.4533H8.9939C8.0019 64.4533 7.1951 63.6982 7.1951 62.7696ZM64.7561 64.4533H45.8689V30.7793H66.5549V62.7696C66.5549 63.6982 65.7481 64.4533 64.7561 64.4533ZM70.1524 25.7282C70.1524 26.6567 69.3457 27.4119 68.3537 27.4119H45.8689V17.3097H68.3537C69.3457 17.3097 70.1524 18.0648 70.1524 18.9934V25.7282Z" fill="url(#paint0_linear_404_8173)"/>
<defs>
<linearGradient id="paint0_linear_404_8173" x1="0.0014" y1="34.1479" x2="73.7552" y2="34.1479" gradientUnits="userSpaceOnUse">
<stop stop-color="#00B2FF"/>
<stop offset="1" stop-color="#0EBEAD"/>
</linearGradient>
</defs>
</svg>
