<svg width="75" height="73" viewBox="0 0 75 73" fill="none" xmlns="http://www.w3.org/2000/svg">
<path fill-rule="evenodd" clip-rule="evenodd" d="M35.8602 10.6513L41.157 12.906L43.5007 18.0015C43.5907 18.2049 43.741 18.3783 43.9326 18.5003C44.1243 18.6221 44.3491 18.6871 44.5788 18.6871C44.8086 18.6871 45.0332 18.6221 45.225 18.5003C45.4167 18.3783 45.5668 18.2049 45.6569 18.0015L48.0006 12.906L53.2973 10.6513C53.5087 10.5647 53.689 10.4202 53.8156 10.2358C53.9424 10.0513 54.0099 9.83523 54.0099 9.61415C54.0099 9.39317 53.9424 9.17695 53.8156 8.99256C53.689 8.80817 53.5087 8.66362 53.2973 8.57705L48.0006 6.32233L45.61 1.27188C45.5199 1.06853 45.3698 0.895091 45.1781 0.773247C44.9865 0.651403 44.7617 0.586426 44.5319 0.586426C44.3022 0.586426 44.0774 0.651403 43.8858 0.773247C43.6941 0.895091 43.5439 1.06853 43.4538 1.27188L41.1101 6.36744L35.8133 8.62216C35.602 8.70873 35.4218 8.85328 35.295 9.03767C35.1684 9.22206 35.1008 9.43828 35.1008 9.65926C35.1008 9.88034 35.1684 10.0965 35.295 10.2808C35.4218 10.4653 35.602 10.6098 35.8133 10.6965L35.8602 10.6513ZM42.5164 8.26139C42.7839 8.13975 42.9993 7.93256 43.1257 7.67518L44.5319 4.55245L45.9382 7.67518C46.0646 7.93256 46.28 8.13975 46.5475 8.26139L49.7935 9.61415L46.5475 10.967C46.28 11.0885 46.0646 11.2957 45.9382 11.5532L44.5319 14.676L43.1257 11.5532C42.9993 11.2957 42.7839 11.0885 42.5164 10.967L39.2703 9.61415L42.5164 8.26139ZM13.9115 14.4844L12.8921 19.5461C12.8516 19.7648 12.8792 19.9902 12.9714 20.1939C13.0637 20.3976 13.2164 20.5705 13.4105 20.6909C13.6046 20.8113 13.8312 20.874 14.0622 20.8709C14.2931 20.8677 14.5179 20.7991 14.7084 20.6734L18.7513 17.9904L22.7707 20.6847C22.9666 20.8163 23.1997 20.8871 23.4387 20.8876C23.6632 20.8871 23.8828 20.8244 24.0714 20.7072C24.2618 20.5877 24.4119 20.4174 24.5034 20.2173C24.595 20.0171 24.6241 19.7956 24.5871 19.5799L23.591 14.5181L26.6144 11.5307C26.7693 11.3825 26.8782 11.1955 26.9285 10.9909C26.9789 10.7863 26.9687 10.5723 26.8992 10.3729C26.8298 10.1735 26.7037 9.99681 26.5353 9.8628C26.367 9.72869 26.163 9.64263 25.9464 9.61425L21.7747 9.05054L19.8294 4.66527C19.7393 4.46192 19.5891 4.28848 19.3974 4.16664C19.2057 4.04469 18.9811 3.97972 18.7513 3.97972C18.5215 3.97972 18.2968 4.04469 18.1051 4.16664C17.9135 4.28848 17.7632 4.46192 17.6731 4.66527L15.7279 9.05054L11.5562 9.61425C11.3395 9.64263 11.1356 9.72869 10.9673 9.8628C10.7989 9.99681 10.6729 10.1735 10.6033 10.3729C10.5339 10.5723 10.5238 10.7863 10.574 10.9909C10.6244 11.1955 10.7332 11.3825 10.8882 11.5307L13.9115 14.4844ZM16.7123 11.1813C16.9027 11.1479 17.0815 11.0697 17.2328 10.9536C17.3841 10.8376 17.5033 10.6872 17.5794 10.5161L18.7513 7.96834L19.9231 10.5161C20.0025 10.6916 20.127 10.8447 20.2848 10.961C20.4427 11.0774 20.6288 11.1531 20.8255 11.1813L23.3567 11.542L21.5285 13.3232C21.3953 13.4533 21.2968 13.6125 21.2417 13.7874C21.1866 13.9621 21.1765 14.1471 21.2122 14.3265L21.7864 17.2576L19.4427 15.6906C19.2465 15.5597 19.0134 15.4895 18.7747 15.4895C18.536 15.4895 18.3029 15.5597 18.1067 15.6906L15.7631 17.2576L16.3372 14.3265C16.373 14.1471 16.3628 13.9621 16.3077 13.7874C16.2526 13.6125 16.1541 13.4533 16.0209 13.3232L14.181 11.542L16.7123 11.1813ZM31.9581 56.9623C31.8878 56.9623 23.9894 54.7077 19.5834 50.4801C15.211 46.2851 15.2352 39.1151 15.2358 38.928V38.9249C15.2382 38.6589 15.1429 38.4007 14.9665 38.1958C14.7902 37.991 14.5442 37.8526 14.2721 37.8055C13.9999 37.7582 13.7192 37.8051 13.4796 37.9378C13.2399 38.0703 13.0567 38.2803 12.9624 38.5304L0.0720812 71.2231C-0.00789477 71.4324 -0.0216987 71.6596 0.032567 71.8764C0.0867273 72.0931 0.206533 72.2894 0.376812 72.4407C0.592926 72.6353 0.877531 72.744 1.17362 72.7451C1.34337 72.7459 1.51133 72.7113 1.66581 72.6436L32.1338 59.1155C32.3689 59.028 32.5684 58.8698 32.7026 58.6646C32.8368 58.4592 32.8987 58.2177 32.879 57.976C32.8592 57.7342 32.759 57.505 32.593 57.3223C32.4272 57.1398 32.2045 57.0135 31.9581 56.9623ZM9.98594 52.4529C10.9528 56.6712 13.0357 60.5776 16.0326 63.794L9.06016 66.8716L7.16171 59.6003L9.98594 52.4529ZM5.70865 63.2866L6.88047 67.796L3.28292 69.4419L5.70865 63.2866ZM18.2709 62.7906C14.3632 58.7629 12.0454 53.5457 11.7202 48.0451L13.478 43.5357C14.1004 46.7271 15.6388 49.6871 17.9193 52.0809C20.9862 54.761 24.5692 56.8368 28.466 58.1911L18.2709 62.7906ZM69.8205 51.3254L73.9923 51.8891V51.923C74.2066 51.9529 74.4079 52.0394 74.5742 52.1727C74.7405 52.306 74.8651 52.481 74.9342 52.6783C75.0035 52.8756 75.0144 53.0875 74.9661 53.2904C74.9177 53.4934 74.8119 53.6795 74.6603 53.8282L71.6369 56.7818L72.633 61.8436C72.67 62.0593 72.6409 62.2808 72.5494 62.4809C72.4578 62.6811 72.3077 62.8513 72.1174 62.9709C71.9288 63.0881 71.7091 63.1507 71.4845 63.1512C71.2457 63.1507 71.0126 63.0798 70.8166 62.9483L66.7971 60.254L62.7543 62.937C62.5638 63.0627 62.339 63.1313 62.1081 63.1345C61.8772 63.1376 61.6504 63.075 61.4563 62.9546C61.2624 62.8341 61.1096 62.6612 61.0174 62.4574C60.9251 62.2538 60.8975 62.0285 60.9379 61.8097L61.9575 56.7705L58.9341 53.8168C58.7825 53.6682 58.6767 53.4821 58.6283 53.2792C58.58 53.0763 58.5909 52.8643 58.6601 52.667C58.7293 52.4697 58.8539 52.2947 59.0202 52.1614C59.1865 52.028 59.3878 51.9416 59.602 51.9116L63.7739 51.3254L65.7191 46.9289C65.8092 46.7254 65.9593 46.5521 66.151 46.4302C66.3427 46.3083 66.5674 46.2433 66.7971 46.2433C67.027 46.2433 67.2517 46.3083 67.4434 46.4302C67.635 46.5521 67.7852 46.7254 67.8753 46.9289L69.8205 51.3254ZM69.2525 56.0509C69.3076 55.8761 69.406 55.7169 69.5393 55.5868L71.4026 53.7717L68.8714 53.4111C68.6746 53.3829 68.4886 53.3072 68.3307 53.1908C68.1729 53.0744 68.0484 52.9214 67.9691 52.7459L66.7971 50.1981L65.6605 52.7797C65.5812 52.9551 65.4566 53.1083 65.2988 53.2246C65.1409 53.3409 64.9548 53.4167 64.7581 53.4448L62.227 53.8056L64.0316 55.5868C64.1649 55.7169 64.2633 55.8761 64.3184 56.0509C64.3735 56.2257 64.3837 56.4107 64.348 56.5902L63.7739 59.5212L66.1175 57.9542C66.3137 57.8233 66.5468 57.7532 66.7854 57.7532C67.0242 57.7532 67.2573 57.8233 67.4534 57.9542L69.7971 59.5212L69.2229 56.5902C69.1872 56.4107 69.1974 56.2257 69.2525 56.0509ZM66.4716 35.1274C66.345 35.3118 66.1647 35.4564 65.9533 35.5429L60.7504 37.7977L58.4066 42.8932C58.3166 43.0966 58.1664 43.27 57.9747 43.3919C57.783 43.5137 57.5583 43.5787 57.3286 43.5787C57.0988 43.5787 56.8741 43.5137 56.6823 43.3919C56.4907 43.27 56.3405 43.0966 56.2504 42.8932L53.9068 37.7977L48.5163 35.5429C48.3049 35.4564 48.1246 35.3118 47.9979 35.1274C47.8712 34.943 47.8036 34.7268 47.8036 34.5058C47.8036 34.2848 47.8712 34.0687 47.9979 33.8843C48.1246 33.6998 48.3049 33.5553 48.5163 33.4687L53.813 31.214L56.1566 26.1185C56.2467 25.9151 56.397 25.7417 56.5887 25.6198C56.7803 25.4979 57.005 25.4329 57.2348 25.4329C57.4646 25.4329 57.6893 25.4979 57.8809 25.6198C58.0726 25.7417 58.2229 25.9151 58.3128 26.1185L60.6566 31.214L65.9533 33.4687C66.1647 33.5553 66.345 33.6998 66.4716 33.8843C66.5984 34.0687 66.666 34.2848 66.666 34.5058C66.666 34.7268 66.5984 34.943 66.4716 35.1274ZM57.2817 39.5676L58.6878 36.4448V36.4899C58.8086 36.2314 59.0262 36.0262 59.2972 35.915L62.5432 34.5058L59.2972 33.153C59.0241 33.0392 58.8062 32.8296 58.6878 32.5668L57.2817 29.444L55.8637 32.5668C55.7482 32.8275 55.5349 33.0368 55.2661 33.153L52.02 34.5058L55.2661 35.87C55.5327 35.9834 55.7458 36.1884 55.8637 36.4448L57.2817 39.5676ZM17.2631 42.3069C17.3679 42.3233 17.4747 42.3233 17.5794 42.3069C17.8425 42.3162 18.1011 42.2402 18.3137 42.0909C18.5263 41.9416 18.6805 41.7278 18.7514 41.4839C20.284 35.4452 20.6809 29.1914 19.9232 23.0182C19.889 22.7192 19.7327 22.4455 19.4888 22.2574C19.2448 22.0692 18.9332 21.9819 18.6224 22.0149C18.3117 22.0477 18.0272 22.1981 17.8316 22.4327C17.6359 22.6674 17.5453 22.9672 17.5794 23.2662C18.2522 29.1569 17.8557 35.1152 16.4076 40.8752C16.36 41.0232 16.3446 41.1791 16.3624 41.3332C16.3802 41.4872 16.4308 41.636 16.5111 41.7704C16.5914 41.9047 16.6996 42.0217 16.829 42.114C16.9584 42.2064 17.1061 42.2721 17.2631 42.3069ZM53.6565 48.3705C53.8497 48.6028 53.9397 48.8991 53.9067 49.1949C53.8892 49.3423 53.8417 49.4849 53.7668 49.6146C53.6919 49.7443 53.5912 49.8585 53.4703 49.9507C53.3495 50.0428 53.2109 50.1111 53.0626 50.1517C52.9143 50.1922 52.7591 50.2042 52.6059 50.187C42.5983 49.116 32.3916 55.5756 32.2861 55.6433C32.0974 55.7704 31.872 55.8374 31.6415 55.8349C31.3922 55.8307 31.1507 55.75 30.9523 55.6047C30.7538 55.4594 30.6088 55.2569 30.5382 55.0268C30.4676 54.7967 30.4752 54.5508 30.5598 54.3252C30.6444 54.0995 30.8017 53.9056 31.0088 53.7718C31.4541 53.4788 42.0241 46.8274 52.8754 47.9548C53.1826 47.9888 53.4634 48.1382 53.6565 48.3705ZM19.1381 45.396C19.353 45.5839 19.6328 45.6885 19.9232 45.6892C20.0867 45.6888 20.2484 45.6555 20.3978 45.5914C20.5471 45.5274 20.6808 45.4339 20.7904 45.3171C21.2826 44.7985 32.8136 32.4655 33.9854 17.5959C33.9977 17.4479 33.9796 17.299 33.9321 17.1576C33.8845 17.0163 33.8086 16.8854 33.7085 16.7723C33.6084 16.6593 33.4861 16.5663 33.3486 16.4988C33.2111 16.4311 33.0612 16.3902 32.9073 16.3783C32.7534 16.3666 32.5986 16.384 32.4517 16.4297C32.3048 16.4754 32.1688 16.5485 32.0512 16.6448C31.9337 16.7411 31.8371 16.8587 31.7668 16.991C31.6965 17.1232 31.6541 17.2675 31.6417 17.4155C30.4699 31.5073 19.1733 43.6825 19.0561 43.8065C18.8483 44.0279 18.7403 44.3196 18.7557 44.6176C18.7711 44.9155 18.9086 45.1954 19.1381 45.396ZM29.6378 48.2593C29.9424 47.9437 37.0439 41.1796 45.5398 40.0523V40.0298C45.6936 40.009 45.8503 40.0176 46.0006 40.0551C46.1511 40.0926 46.2923 40.1583 46.4164 40.2483C46.5405 40.3384 46.6449 40.451 46.7237 40.5798C46.8024 40.7088 46.854 40.8512 46.8756 40.9993C46.8971 41.1473 46.8882 41.298 46.8492 41.4427C46.8102 41.5874 46.742 41.7233 46.6485 41.8427C46.5548 41.962 46.4377 42.0624 46.3038 42.1382C46.1699 42.2141 46.0217 42.2637 45.8679 42.2844C38.1571 43.3441 31.3604 49.7925 31.3018 49.8601C31.1929 49.9658 31.0633 50.0497 30.9205 50.1069C30.7776 50.1642 30.6245 50.1935 30.4698 50.1935C30.315 50.1935 30.1619 50.1642 30.0191 50.1069C29.8763 50.0497 29.7467 49.9658 29.6378 49.8601C29.5279 49.7553 29.4408 49.6307 29.3812 49.4933C29.3218 49.3558 29.2911 49.2086 29.2911 49.0597C29.2911 48.9109 29.3218 48.7635 29.3812 48.6262C29.4408 48.4888 29.5279 48.3642 29.6378 48.2593ZM50.3209 27.2568C50.2675 27.1174 50.1858 26.9895 50.0809 26.8805C49.9758 26.7716 49.8494 26.6836 49.7089 26.6218C49.5685 26.56 49.4166 26.5255 49.2623 26.5203C49.1078 26.5152 48.9539 26.5394 48.8093 26.5918C39.2821 30.0301 24.3762 45.3957 23.7552 46.0495C23.6003 46.2102 23.4975 46.4107 23.4592 46.6266C23.421 46.8425 23.4489 47.0645 23.5396 47.2654C23.6303 47.4663 23.78 47.6375 23.9702 47.7579C24.1603 47.8783 24.3829 47.9428 24.6106 47.9435C24.7713 47.943 24.9302 47.9107 25.0773 47.8486C25.2245 47.7866 25.3568 47.696 25.4661 47.5827C25.6185 47.4249 40.618 31.9579 49.6296 28.7112C49.7745 28.6597 49.9075 28.5812 50.0207 28.4801C50.134 28.3791 50.2255 28.2575 50.2897 28.1223C50.3539 27.9872 50.3898 27.8411 50.3951 27.6926C50.4005 27.5441 50.3753 27.396 50.3209 27.2568ZM25.7823 50.1983H28.1261V52.453H25.7823V50.1983ZM22.2669 47.9437H19.9232V50.1984H22.2669V47.9437ZM64.0035 23.0586C63.8607 23.0024 63.7309 22.9198 63.6213 22.8153L58.9339 18.3172C58.8102 18.199 58.7156 18.0556 58.6568 17.8976C58.598 17.7397 58.5766 17.571 58.5941 17.4041C58.613 17.2379 58.6702 17.0778 58.7614 16.9354C58.8526 16.7931 58.9756 16.6721 59.1215 16.5812L62.637 14.3264C62.8283 14.2052 63.0524 14.1406 63.2815 14.1406C63.5106 14.1406 63.7347 14.2052 63.926 14.3264L67.4416 16.5812C67.6795 16.7335 67.8513 16.9643 67.9247 17.2301C67.998 17.4958 67.9679 17.7782 67.84 18.0241L65.4962 22.5335C65.4137 22.6927 65.2932 22.8308 65.1445 22.9366C64.9958 23.0425 64.8232 23.1129 64.6408 23.1422H64.4534C64.2991 23.1431 64.1462 23.1146 64.0035 23.0586ZM65.2854 17.8888L63.2815 16.6037L61.5823 17.7197L64.1135 20.1435L65.2854 17.8888ZM42.8914 66.2062L38.204 62.8243C37.9785 62.6601 37.6988 62.58 37.4167 62.5986C37.1346 62.6173 36.8689 62.7335 36.6688 62.9258L34.3252 65.1804C34.2153 65.2852 34.1282 65.4099 34.0686 65.5472C34.0092 65.6846 33.9785 65.832 33.9785 65.9808C33.9785 66.1296 34.0092 66.277 34.0686 66.4143C34.1282 66.5517 34.2153 66.6764 34.3252 66.7812L37.8408 70.1632C37.9503 70.2677 38.0801 70.3503 38.2228 70.4065C38.3656 70.4626 38.5185 70.4911 38.6728 70.4901C38.9033 70.4942 39.1292 70.4271 39.3172 70.2985L42.8328 68.0438C42.994 67.9417 43.1265 67.8029 43.2184 67.6396C43.3104 67.4764 43.3591 67.2938 43.3602 67.1081C43.3602 66.9331 43.3178 66.7605 43.2364 66.604C43.155 66.4474 43.0369 66.3112 42.8914 66.2062ZM38.825 67.9085L36.8095 65.9808L37.6063 65.2142L40.161 67.1081L38.825 67.9085ZM7.59214 33.1198C7.40806 33.0104 7.25907 32.8541 7.1616 32.6682L4.79456 28.1249C4.71775 27.9721 4.67781 27.8044 4.67781 27.6346C4.67781 27.4647 4.71775 27.2971 4.79456 27.1442C4.86864 26.9908 4.9777 26.8554 5.11363 26.7481C5.24955 26.6407 5.40877 26.5642 5.57968 26.5241L10.2671 25.3968C10.5358 25.3356 10.8183 25.3676 11.0648 25.4872C11.3114 25.6069 11.5061 25.8065 11.6147 26.0507L13.9584 30.56C14.0351 30.713 14.075 30.8806 14.075 31.0504C14.075 31.2202 14.0351 31.3879 13.9584 31.5408C13.8842 31.6942 13.7752 31.8296 13.6392 31.9369C13.5033 32.0442 13.3441 32.1208 13.1732 32.1608L8.48579 33.2882C8.39243 33.2991 8.29802 33.2991 8.20455 33.2882C7.98823 33.2875 7.77623 33.2293 7.59214 33.1198ZM11.1929 30.2782L9.91545 27.8319L7.56011 28.4068L8.8491 30.8532L11.1929 30.2782ZM51.5631 63.7264C51.2523 63.7264 50.9543 63.8451 50.7345 64.0565C50.5147 64.2679 50.3913 64.5546 50.3913 64.8537V67.1083C50.3913 67.4073 50.5147 67.694 50.7345 67.9055C50.9543 68.1169 51.2523 68.2356 51.5631 68.2356C51.8739 68.2356 52.172 68.1169 52.3918 67.9055C52.6115 67.694 52.735 67.4073 52.735 67.1083V64.8537C52.735 64.5546 52.6115 64.2679 52.3918 64.0565C52.172 63.8451 51.8739 63.7264 51.5631 63.7264ZM50.7345 57.2923C50.9543 57.081 51.2523 56.9622 51.5631 56.9622C51.8739 56.9622 52.172 57.081 52.3918 57.2923C52.6115 57.5038 52.735 57.7906 52.735 58.0895V60.3442C52.735 60.6432 52.6115 60.9299 52.3918 61.1414C52.172 61.3527 51.8739 61.4715 51.5631 61.4715C51.2523 61.4715 50.9543 61.3527 50.7345 61.1414C50.5147 60.9299 50.3913 60.6432 50.3913 60.3442V58.0895C50.3913 57.7906 50.5147 57.5038 50.7345 57.2923ZM49.2193 61.4717H46.8755C46.5648 61.4717 46.2667 61.5904 46.0469 61.8019C45.8272 62.0133 45.7037 62.3 45.7037 62.5991C45.7037 62.898 45.8272 63.1848 46.0469 63.3962C46.2667 63.6076 46.5648 63.7264 46.8755 63.7264H49.2193C49.53 63.7264 49.8281 63.6076 50.0479 63.3962C50.2676 63.1848 50.3911 62.898 50.3911 62.5991C50.3911 62.3 50.2676 62.0133 50.0479 61.8019C49.8281 61.5904 49.53 61.4717 49.2193 61.4717ZM53.9067 61.4717H56.2503C56.5612 61.4717 56.8592 61.5904 57.079 61.8019C57.2988 62.0133 57.4221 62.3 57.4221 62.5991C57.4221 62.898 57.2988 63.1848 57.079 63.3962C56.8592 63.6076 56.5612 63.7264 56.2503 63.7264H53.9067C53.5958 63.7264 53.2977 63.6076 53.078 63.3962C52.8582 63.1848 52.7347 62.898 52.7347 62.5991C52.7347 62.3 52.8582 62.0133 53.078 61.8019C53.2977 61.5904 53.5958 61.4717 53.9067 61.4717ZM69.1407 7.35942C68.8299 7.35942 68.5319 7.47823 68.312 7.68958C68.0924 7.90103 67.9689 8.1878 67.9689 8.48674V10.7415C67.9689 11.0404 68.0924 11.3272 68.312 11.5386C68.5319 11.75 68.8299 11.8688 69.1407 11.8688C69.4515 11.8688 69.7496 11.75 69.9693 11.5386C70.1891 11.3272 70.3126 11.0404 70.3126 10.7415V8.48674C70.3126 8.1878 70.1891 7.90103 69.9693 7.68958C69.7496 7.47823 69.4515 7.35942 69.1407 7.35942ZM69.9693 4.77474C69.7496 4.9861 69.4515 5.1049 69.1407 5.1049C68.8299 5.1049 68.5319 4.9861 68.312 4.77474C68.0924 4.56329 67.9689 4.27652 67.9689 3.97759V1.72286C67.9689 1.42393 68.0924 1.13716 68.312 0.925805C68.5319 0.714352 68.8299 0.595549 69.1407 0.595549C69.4515 0.595549 69.7496 0.714352 69.9693 0.925805C70.1891 1.13716 70.3126 1.42393 70.3126 1.72286V3.97759C70.3126 4.27652 70.1891 4.56329 69.9693 4.77474ZM64.4534 7.35952H66.7971C67.1079 7.35952 67.406 7.24072 67.6258 7.02927C67.8455 6.81792 67.969 6.53115 67.969 6.23211C67.969 5.93318 67.8455 5.64641 67.6258 5.43505C67.406 5.2236 67.1079 5.1048 66.7971 5.1048H64.4534C64.1427 5.1048 63.8446 5.2236 63.6248 5.43505C63.4051 5.64641 63.2816 5.93318 63.2816 6.23211C63.2816 6.53115 63.4051 6.81792 63.6248 7.02927C63.8446 7.24072 64.1427 7.35952 64.4534 7.35952ZM73.8282 7.35952H71.4845C71.1737 7.35952 70.8756 7.24072 70.6559 7.02927C70.4361 6.81792 70.3126 6.53115 70.3126 6.23211C70.3126 5.93318 70.4361 5.64641 70.6559 5.43505C70.8756 5.2236 71.1737 5.1048 71.4845 5.1048H73.8282C74.139 5.1048 74.437 5.2236 74.6568 5.43505C74.8766 5.64641 75 5.93318 75 6.23211C75 6.53115 74.8766 6.81792 74.6568 7.02927C74.437 7.24072 74.139 7.35952 73.8282 7.35952Z" fill="url(#paint0_linear_404_8174)"/>
<defs>
<linearGradient id="paint0_linear_404_8174" x1="0.00137754" y1="36.667" x2="75.0053" y2="36.667" gradientUnits="userSpaceOnUse">
<stop stop-color="#00B2FF"/>
<stop offset="1" stop-color="#0EBEAD"/>
</linearGradient>
</defs>
</svg>
