<svg width="84" height="79" viewBox="0 0 84 79" fill="none" xmlns="http://www.w3.org/2000/svg">
<path d="M4.4792 48.9464C4.7528 49.6616 5.184 50.3054 5.7357 50.833C6.7141 51.7762 8.059 52.3618 9.5426 52.3618C11.0218 52.3618 12.3711 51.7762 13.3493 50.833C14.3276 49.8898 14.935 48.5888 14.935 47.1627V44.2703C13.7991 44.3641 12.8021 44.1272 12.0232 43.8141C11.9535 44.1405 11.8748 44.458 11.7728 44.7709C11.3879 45.9778 10.7434 47.0777 9.7233 47.8689C8.6894 48.6737 7.317 49.1387 5.4992 49.0491C5.1747 49.0356 4.8361 49 4.4792 48.9464ZM36.26 41.199H47.0451V37.9309H38.7406C38.059 37.9309 37.4376 38.2037 36.9879 38.6373C36.5381 39.071 36.26 39.6656 36.26 40.3227V41.199ZM47.0449 43.5639H36.2598V47.1625C36.2598 48.5887 36.8672 49.8897 37.8455 50.8328C38.8237 51.776 40.173 52.3617 41.6522 52.3617C43.1358 52.3617 44.4852 51.776 45.4591 50.8328C46.4373 49.8897 47.0448 48.5887 47.0448 47.1625L47.0449 43.5639ZM80.6619 51.4589C81.3203 51.7942 81.8998 52.2502 82.3775 52.791C83.2352 53.7658 83.75 55.0219 83.75 56.3853V64.3608C83.75 65.0136 83.2028 65.5409 82.526 65.5409C81.8491 65.5409 81.2972 65.0134 81.2972 64.3608V56.3853C81.2972 55.5986 81.0003 54.8743 80.5089 54.3155C80.073 53.8192 79.4841 53.4527 78.8119 53.2784C77.5183 54.1903 75.9276 54.7268 74.2122 54.7268C72.4364 54.7268 70.7948 54.1547 69.4732 53.1846C69.223 53.2114 68.9817 53.2786 68.7499 53.3814C68.4345 53.5243 68.1471 53.7434 67.9152 54.0384L61.3263 62.4521C61.0945 62.7472 60.7328 62.9261 60.3481 62.9261H51.9046C51.2786 62.9261 50.7129 63.1674 50.305 63.5607C49.8968 63.9586 49.6418 64.5039 49.6418 65.1031C49.6418 65.7065 49.8968 66.252 50.305 66.6453C50.7129 67.0387 51.2786 67.2847 51.9046 67.2847H61.9894C62.3931 67.2847 62.7036 67.2445 63.0886 67.0567C63.8026 66.7124 64.4703 65.6665 64.9571 65.0405L69.3205 59.4747C69.7284 58.9518 70.4935 58.8487 71.0359 59.2422C71.5737 59.6355 71.6803 60.3776 71.2724 60.8963L67.1225 66.1982V76.5074H81.2972V69.7165C81.2972 69.0637 81.8489 68.5364 82.526 68.5364C83.203 68.5364 83.75 69.0639 83.75 69.7165V77.6919C83.75 78.3446 83.2028 78.8721 82.526 78.8721C55.4237 78.8721 28.3263 78.8721 1.22877 78.8721C0.5519 78.8721 0 78.3445 0 77.6919V69.7165C0 69.0637 0.5519 68.5364 1.22877 68.5364C1.9058 68.5364 2.4528 69.0639 2.4528 69.7165V76.5074H16.6322V66.1982L12.4778 60.8963C12.0698 60.3776 12.1765 59.6355 12.719 59.2422C13.2569 58.8487 14.0265 58.9516 14.4346 59.4747L18.7003 64.9199C19.0898 65.416 19.4794 65.9166 19.8687 66.4175C20.0912 66.699 20.3648 66.9137 20.6663 67.0567C21.0047 67.2221 21.3201 67.2847 21.6911 67.2847H31.8502C32.4716 67.2847 33.0372 67.0387 33.4498 66.6453C33.8579 66.252 34.1082 65.7065 34.1082 65.1031C34.1082 64.5039 33.8579 63.9586 33.4498 63.5607C33.0372 63.1674 32.4716 62.9261 31.8502 62.9261H23.4021C23.0311 62.9261 22.6648 62.7606 22.4239 62.4521L15.835 54.0384C15.4592 53.5601 14.8982 53.2517 14.2771 53.1846C12.9601 54.1502 11.3188 54.7268 9.5429 54.7268C7.8274 54.7268 6.2322 54.1904 4.9386 53.283C4.2802 53.4484 3.696 53.8105 3.26 54.2933C2.7592 54.8564 2.45312 55.5852 2.45312 56.3855V64.3609C2.45312 65.0137 1.90597 65.5411 1.2291 65.5411C0.55223 65.5411 0.000329971 65.0136 0.000329971 64.3609V56.3855C0.000329971 55.0041 0.53358 53.7301 1.40985 52.751C1.8829 52.228 2.45312 51.7853 3.093 51.459C2.17963 50.1939 1.69741 48.7007 1.69741 47.1629V40.3229C1.69741 39.013 2.24915 37.8238 3.1441 36.9612C4.0391 36.1029 5.2677 35.5663 6.6262 35.5663H12.4545C13.8132 35.5663 15.0465 36.1027 15.9413 36.9612C16.8364 37.824 17.3881 39.0131 17.3881 40.3229V47.1629C17.3881 48.6783 16.9198 50.0956 16.1175 51.2802C16.7806 51.6021 17.3415 52.0446 17.7913 52.617L24.0094 60.5566H28.9196V55.7598C28.9196 54.4009 29.6661 53.1713 30.8763 52.1296C31.8131 51.325 33.0464 50.623 34.4096 50.0688C34.0202 49.1702 33.807 48.1911 33.807 47.1629V42.3838V40.3227C33.807 39.0128 34.3633 37.8236 35.2538 36.961C36.1488 36.1027 37.3821 35.5662 38.7406 35.5662H48.2737C48.9509 35.5662 49.5026 36.0982 49.5026 36.7509V42.3838V47.1629C49.5026 48.1329 49.308 49.0629 48.9602 49.9212C50.4254 50.4755 51.7514 51.1908 52.7532 52.0222C54.0374 53.0863 54.8304 54.3558 54.8304 55.7597V60.5565H59.7406L65.9587 52.6168C66.4178 52.0355 66.9926 51.5885 67.6373 51.2846C66.8304 50.0955 66.3621 48.6783 66.3621 47.1627V40.3227C66.3621 39.0128 66.9185 37.8236 67.8089 36.961C68.7038 36.1027 69.9371 35.5662 71.2956 35.5662H77.1243C78.4827 35.5662 79.7163 36.1026 80.611 36.961C81.5012 37.8238 82.0577 39.013 82.0577 40.3227V47.1627C82.0575 48.7003 81.5707 50.1935 80.6619 51.4589ZM79.2708 48.9464C78.9185 49 78.5753 49.0356 78.2508 49.0491C76.4377 49.1385 75.0652 48.6736 74.0312 47.8689C73.0064 47.0777 72.362 45.9779 71.9771 44.7709C71.8796 44.458 71.7963 44.1405 71.7312 43.8141C70.9477 44.1271 69.9555 44.364 68.8149 44.2703V47.1627C68.8149 48.5888 69.4222 49.8898 70.4005 50.833C71.3787 51.7762 72.7282 52.3618 74.212 52.3618C75.691 52.3618 77.0405 51.7762 78.0189 50.833C78.5662 50.3054 78.9972 49.6616 79.2708 48.9464ZM68.8149 41.9008C70.4516 42.1243 71.6478 41.2079 71.8611 41.029C72.1024 40.8323 72.3294 40.7117 72.6587 40.6981C73.3357 40.6669 73.9059 41.1676 73.9383 41.8202C73.9802 42.5893 74.0913 43.3672 74.3185 44.0778C74.5689 44.8691 74.963 45.5665 75.5613 46.0314C76.1502 46.4876 76.9803 46.7467 78.1348 46.693C78.5799 46.6706 79.0667 46.6038 79.6045 46.4874V40.3224C79.6045 39.6653 79.3217 39.0707 78.8719 38.637C78.4222 38.2035 77.8054 37.9306 77.1239 37.9306H71.2955C70.6138 37.9306 69.997 38.2035 69.5473 38.637C69.0975 39.0707 68.8149 39.6653 68.8149 40.3224V41.9008ZM14.9351 41.9008V40.3226C14.9351 39.6654 14.6571 39.0708 14.2072 38.6372C13.7576 38.2036 13.1362 37.9307 12.4545 37.9307H6.6259C5.949 37.9307 5.3276 38.2036 4.8778 38.6372C4.4281 39.0708 4.1499 39.6654 4.1499 40.3226V46.4876C4.6831 46.6038 5.1699 46.6707 5.6152 46.6932C6.7698 46.7469 7.5998 46.4876 8.1885 46.0316C8.7867 45.5668 9.1808 44.8693 9.4359 44.078C9.6631 43.3672 9.7744 42.5894 9.8115 41.8203C9.8439 41.1676 10.4189 40.667 11.0911 40.6982C11.4065 40.7118 11.6475 40.8235 11.8794 41.0201C12.0512 41.1676 13.266 42.1287 14.9351 41.9008ZM35.7222 52.1027C34.4422 52.581 33.3109 53.189 32.504 53.8865C31.8039 54.4855 31.3726 55.1293 31.3726 55.7597V60.5565H31.8502C33.1486 60.5565 34.331 61.066 35.1842 61.8886C36.0374 62.7112 36.5659 63.8468 36.5659 65.1031C36.5659 65.8944 36.3526 66.6366 35.9863 67.2847H47.7637C47.3974 66.6366 47.1887 65.8944 47.1887 65.1031C47.1887 63.8468 47.7172 62.7112 48.5706 61.8886C49.4238 61.066 50.6014 60.5565 51.9044 60.5565H52.3774V55.7597C52.3774 55.1069 51.9137 54.4363 51.1626 53.8149C50.2816 53.0863 49.0574 52.4559 47.6942 51.9776C47.5365 52.1609 47.3696 52.3397 47.198 52.5051C45.7746 53.8776 43.8132 54.727 41.6525 54.727C39.4963 54.727 37.5305 53.8776 36.1116 52.5051C35.977 52.3752 35.8471 52.2413 35.7222 52.1027ZM10.2242 9.45785C9.5472 9.45785 9.0002 8.9259 9.0002 8.2732C9.0002 7.6204 9.5473 7.09297 10.2242 7.09297H32.9352C33.6122 7.09297 34.1594 7.6206 34.1594 8.2732C34.1594 8.9259 33.612 9.45785 32.9352 9.45785H10.2242ZM10.2242 21.904C9.5472 21.904 9.0002 21.372 9.0002 20.7192C9.0002 20.0665 9.5473 19.5346 10.2242 19.5346H21.5799C22.2569 19.5346 22.8086 20.0665 22.8086 20.7192C22.8086 21.372 22.2569 21.904 21.5799 21.904H10.2242ZM10.2242 15.681C9.5472 15.681 9.0002 15.1489 9.0002 14.4963C9.0002 13.8436 9.5473 13.3161 10.2242 13.3161H32.9352C33.6122 13.3161 34.1594 13.8437 34.1594 14.4963C34.1594 15.1489 33.612 15.681 32.9352 15.681H10.2242ZM34.1918 28.2924C34.3633 28.7529 34.6368 29.1641 34.9848 29.4994C35.6062 30.1029 36.4685 30.4784 37.4282 30.4784H44.6384C45.3155 30.4784 45.8625 31.006 45.8625 31.6632C45.8625 32.3159 45.3153 32.8433 44.6384 32.8433H37.4282C35.7915 32.8433 34.3169 32.1997 33.2504 31.1624C32.453 30.3892 31.8872 29.3966 31.6461 28.2924H14.5411L8.9863 33.6481C8.7638 33.8628 8.4578 33.9968 8.1146 33.9968C7.4376 33.9968 6.8858 33.4693 6.8858 32.8167V28.1941C5.3278 27.9436 3.932 27.2241 2.8611 26.1868C1.51175 24.8903 0.6772 23.0976 0.6772 21.1216V7.87103C0.6772 5.89947 1.51192 4.10676 2.8611 2.80598C4.2057 1.50941 6.065 0.700195 8.1146 0.700195H35.0453C37.0945 0.700195 38.9541 1.50941 40.2986 2.80598C41.648 4.10676 42.4825 5.89947 42.4825 7.87103V10.0616H63.3206C64.948 10.0616 66.4226 10.701 67.4937 11.7336C68.5648 12.7664 69.2279 14.188 69.2279 15.7572V27.1482C69.2279 28.7174 68.5648 30.139 67.4937 31.1717C66.7007 31.9363 65.6808 32.4861 64.5448 32.7187V37.368C64.5448 37.6676 64.4288 37.9714 64.1877 38.204C63.71 38.6644 62.9311 38.6644 62.4533 38.204L56.8939 32.8438H50.1937C49.5167 32.8438 48.965 32.3163 48.965 31.6636C48.965 31.0064 49.5167 30.4789 50.1937 30.4789H57.4039C57.7471 30.4789 58.053 30.6131 58.2756 30.832L62.0916 34.5112V31.6635C62.0916 31.0063 62.6434 30.4787 63.3206 30.4787C64.2663 30.4787 65.1335 30.1032 65.7595 29.4997C66.3855 28.8962 66.7749 28.0647 66.7749 27.1482V15.7572C66.7749 14.8407 66.3855 14.0092 65.7595 13.4057C65.1335 12.8022 64.2663 12.4267 63.3206 12.4267H42.4824V21.1219C42.4824 23.0979 41.6478 24.8906 40.2985 26.1871C38.9537 27.4879 37.0944 28.2927 35.0451 28.2927L34.1918 28.2924ZM14.0309 25.9275H35.0451C36.4177 25.9275 37.6602 25.3865 38.5644 24.5149C39.4685 23.6431 40.0296 22.4405 40.0296 21.1216V7.87103C40.0296 6.55226 39.4685 5.34971 38.5644 4.47785C37.6603 3.60598 36.4177 3.06508 35.0451 3.06508H8.1144C6.7419 3.06508 5.4992 3.60598 4.595 4.47785C3.6909 5.34952 3.1297 6.55207 3.1297 7.87103V21.1218C3.1297 22.4405 3.6909 23.6431 4.595 24.5151C5.499 25.3867 6.7419 25.9276 8.1144 25.9276C8.7915 25.9276 9.3385 26.4596 9.3385 27.1124V29.9601L13.1638 26.2765C13.4051 26.0438 13.7157 25.9275 14.0309 25.9275ZM64.6696 69.6494H19.0852V76.5072H64.6697L64.6696 69.6494Z" fill="url(#paint0_linear_404_8175)"/>
<defs>
<linearGradient id="paint0_linear_404_8175" x1="83.75" y1="57.3749" x2="9.10797" y2="79.5989" gradientUnits="userSpaceOnUse">
<stop stop-color="#19A0FA"/>
<stop offset="1" stop-color="#0EBEAD"/>
</linearGradient>
</defs>
</svg>
