<svg width="100" height="100" viewBox="0 0 100 100" fill="none" xmlns="http://www.w3.org/2000/svg">
<path d="M86.9017 64.4657C86.9251 64.4184 86.9459 64.37 86.9625 64.3203C91.7023 53.4593 90.8554 40.1441 84.6993 29.967C87.9858 26.0664 83.7168 20.4804 79.0484 22.6418C78.228 21.8094 77.3667 21.0117 76.4741 20.2574C78.2261 15.5288 72.3787 11.6497 68.737 15.1827C58.1523 9.87628 44.9873 9.94348 34.461 15.3623C30.7165 11.4225 24.4278 15.6468 26.6949 20.5899C25.3965 21.7171 24.1675 22.9348 23.0343 24.2225C22.0559 25.3343 23.8284 26.8582 24.8001 25.7541C25.8544 24.5563 26.9966 23.4232 28.2031 22.3731C30.5362 24.0438 33.9192 23.1927 35.1992 20.6425C39.4232 21.8496 43.4569 23.5821 47.2157 25.8057C46.901 26.9322 47.0295 28.1905 47.5694 29.2304C44.4758 31.8836 41.6898 34.8848 39.2706 38.174C37.0372 37.504 34.5754 38.6255 33.6042 40.7253C28.679 40.7515 23.7384 41.2775 18.8877 42.2955C18.4594 41.503 17.81 40.8464 17.0228 40.4065C17.9342 36.8781 19.3776 33.5216 21.322 30.418C22.0967 29.1811 20.1411 27.8953 19.3309 29.1884C17.2637 32.4879 15.7283 36.0561 14.7572 39.807C9.14055 39.9017 8.19761 47.616 13.5446 49.1C13.4658 60.0792 18.2471 70.7535 26.5381 78.0249C24.8086 82.6633 30.4235 86.4893 34.129 83.2177C44.9431 88.9267 58.6102 88.9275 69.4248 83.2196C73.1936 86.9202 79.2299 82.7859 77.107 77.9482C81.3801 74.178 84.6996 69.5665 86.9017 64.4657V64.4657ZM85.4244 61.8624C82.179 58.6613 78.6274 55.7573 74.8355 53.2082C75.374 51.5334 74.906 49.6491 73.6484 48.4128C76.837 43.1492 79.3402 37.5052 81.1023 31.6093C81.6894 31.6114 82.2539 31.5038 82.774 31.3092C88.1732 40.3624 89.1607 52.035 85.4244 61.8624ZM31.4735 75.0208C30.4868 65.4256 32.2183 55.8531 36.5035 47.2024C39.1657 48.0271 42.0431 46.2891 42.5601 43.576C50.6443 44.5654 58.4302 46.9218 65.737 50.5915C65.3856 51.9476 65.6766 53.443 66.5137 54.5711C58.2775 64.9305 47.4058 72.7258 34.9631 77.1935C34.2092 76.0082 32.9413 75.179 31.4735 75.0208ZM67.9321 51.771C67.9321 50.452 69.0051 49.3789 70.324 49.3789C73.497 49.5101 73.4961 54.0324 70.324 54.1631C69.0051 54.1631 67.9321 53.0901 67.9321 51.771ZM83.5045 26.8894C83.5045 28.2085 82.4315 29.2815 81.1126 29.2815C77.9394 29.1504 77.9402 24.628 81.1126 24.4973C82.4315 24.4973 83.5045 25.5704 83.5045 26.8894V26.8894ZM77.2568 24.1529C75.6363 26.4134 76.3884 29.6811 78.8314 31.0247C77.1245 36.7118 74.7046 42.1559 71.6262 47.2339C70.9826 47.0502 70.2682 47.0045 69.6065 47.1051C66.3888 40.2833 61.7067 34.1388 55.9872 29.2308C56.5276 28.1901 56.6564 26.9341 56.3413 25.806C59.9616 23.6645 63.8395 21.9769 67.8946 20.7772C69.2424 23.3606 72.858 24.0901 75.1026 22.1561C75.8466 22.7915 76.5668 23.459 77.2568 24.1529V24.1529ZM49.3865 27.0696C49.3865 25.7506 50.4595 24.6775 51.7784 24.6775C54.9516 24.8087 54.9507 29.3309 51.7784 29.4615C50.4595 29.4615 49.3865 28.3885 49.3865 27.0696V27.0696ZM72.0639 16.1468C73.3829 16.1468 74.4559 17.2199 74.4559 18.5389C74.3243 21.7123 69.8032 21.7115 69.672 18.5389C69.672 17.2199 70.745 16.1468 72.0639 16.1468ZM30.9605 20.9308C29.6416 20.9308 28.5686 19.8578 28.5686 18.5387C28.7002 15.3652 33.2214 15.3663 33.3525 18.5387C33.3525 19.8578 32.2794 20.9308 30.9605 20.9308ZM35.6928 18.3603C35.6806 18.0371 35.6359 17.7225 35.5615 17.419C45.3759 12.3801 57.6367 12.2923 67.5268 17.1846C67.3997 17.6066 67.3301 18.0528 67.3278 18.5148C63.0624 19.7676 58.9838 21.5372 55.1761 23.7856C53.3458 21.906 50.2117 21.9053 48.3809 23.7854C44.413 21.4422 40.1536 19.6208 35.6928 18.3603V18.3603ZM49.1217 30.9752C50.7071 32.0495 52.8492 32.0496 54.4348 30.9754C59.8954 35.6563 64.3688 41.5159 67.45 48.0226C67.2412 48.182 67.0461 48.3585 66.8666 48.5495C59.1632 44.6703 50.9425 42.2039 42.4036 41.2115C42.173 40.5187 41.786 39.8967 41.2835 39.3875C43.5752 36.2967 46.2052 33.4738 49.1217 30.9752V30.9752ZM37.9075 40.3019C39.2263 40.3019 40.2993 41.375 40.2993 42.694C40.1677 45.8675 35.6466 45.8666 35.5154 42.694C35.5156 41.375 36.5886 40.3019 37.9075 40.3019V40.3019ZM12.3225 44.5261C12.3225 43.2071 13.3955 42.1341 14.7144 42.1341C17.8874 42.2652 17.8865 46.7874 14.7144 46.9181C13.3956 46.9182 12.3225 45.8452 12.3225 44.5261V44.5261ZM15.8893 49.0991C15.8893 49.0991 19.4505 48.3281 19.4505 44.5569C19.4505 44.5569 28.5885 43.1067 33.1861 43.0558C33.2723 44.1835 33.7574 45.2011 34.5013 45.969C29.9324 55.0949 28.0895 65.2127 29.1503 75.3516C28.6935 75.5406 28.273 75.799 27.9013 76.1131C20.2523 69.3101 15.8893 57.9116 15.8893 49.0991V49.0991ZM30.9605 82.1046C29.6416 82.1046 28.5686 81.0316 28.5686 79.7125C28.5686 78.3935 29.6416 77.3204 30.9605 77.3204C32.2617 77.3204 33.3525 78.4394 33.3525 79.7125C33.3525 81.0316 32.2794 82.1046 30.9605 82.1046ZM51.7784 85.1895C46.0881 85.1895 40.4611 83.8365 35.4319 81.2678C35.6361 80.6869 35.7261 80.0251 35.6864 79.4087C48.5577 74.8025 59.8052 66.7527 68.3258 56.0491C69.0258 56.375 69.8025 56.5246 70.5743 56.4844C71.0952 58.4038 71.5068 60.3619 71.7985 62.3199C72.0218 63.8189 74.3421 63.4839 74.1181 61.9794C73.8084 59.9004 73.37 57.821 72.8133 55.7845C73.0936 55.6113 73.354 55.4094 73.5913 55.1835C77.5037 57.8205 81.1514 60.8477 84.4559 64.198C82.4065 68.6958 79.4237 72.7684 75.634 76.1336C75.2593 75.8543 74.8414 75.6295 74.3929 75.4697C74.6233 73.3057 74.7237 71.1208 74.6899 68.9598C74.6662 67.4392 72.3215 67.4749 72.3454 68.9958C72.3779 71.073 72.281 73.1734 72.0584 75.2535C69.2932 75.6901 67.4847 78.5367 68.2467 81.2046C63.1859 83.8141 57.5153 85.1895 51.7784 85.1895V85.1895ZM72.8022 82.307C71.4833 82.307 70.4103 81.234 70.4103 79.9149C70.5419 76.7414 75.0631 76.7425 75.1942 79.9149C75.1942 81.234 74.1212 82.307 72.8022 82.307Z" fill="url(#paint0_linear_3601_5566)"/>
<defs>
<linearGradient id="paint0_linear_3601_5566" x1="10.0015" y1="49.3764" x2="90.0056" y2="49.3764" gradientUnits="userSpaceOnUse">
<stop stop-color="#00B2FF"/>
<stop offset="1" stop-color="#0EBEAD"/>
</linearGradient>
</defs>
</svg>
