<svg width="100" height="100" viewBox="0 0 100 100" fill="none" xmlns="http://www.w3.org/2000/svg">
<path fill-rule="evenodd" clip-rule="evenodd" d="M47.8549 23.7521L52.8817 25.9763L55.106 31.0031C55.1914 31.2037 55.334 31.3748 55.5159 31.4951C55.6978 31.6153 55.9111 31.6794 56.1291 31.6794C56.3472 31.6794 56.5604 31.6153 56.7424 31.4951C56.9243 31.3748 57.0668 31.2037 57.1523 31.0031L59.3765 25.9763L64.4033 23.7521C64.6039 23.6666 64.775 23.5241 64.8952 23.3422C65.0155 23.1602 65.0796 22.947 65.0796 22.7289C65.0796 22.5109 65.0155 22.2976 64.8952 22.1157C64.775 21.9338 64.6039 21.7912 64.4033 21.7058L59.3765 19.4815L57.1078 14.4992C57.0223 14.2986 56.8798 14.1275 56.6979 14.0073C56.516 13.8871 56.3027 13.823 56.0846 13.823C55.8666 13.823 55.6533 13.8871 55.4714 14.0073C55.2895 14.1275 55.147 14.2986 55.0615 14.4992L52.8372 19.526L47.8104 21.7503C47.6098 21.8357 47.4388 21.9783 47.3185 22.1602C47.1983 22.3421 47.1342 22.5554 47.1342 22.7734C47.1342 22.9915 47.1983 23.2047 47.3185 23.3866C47.4388 23.5686 47.6098 23.7111 47.8104 23.7966L47.8549 23.7521ZM54.1718 21.3944C54.4257 21.2744 54.6301 21.07 54.7501 20.8161L56.0846 17.7355L57.4192 20.8161C57.5392 21.07 57.7436 21.2744 57.9975 21.3944L61.0781 22.7289L57.9975 24.0635C57.7436 24.1834 57.5392 24.3878 57.4192 24.6418L56.0846 27.7224L54.7501 24.6418C54.6301 24.3878 54.4257 24.1834 54.1718 24.0635L51.0912 22.7289L54.1718 21.3944ZM27.0248 27.5334L26.0573 32.5268C26.0189 32.7426 26.0451 32.9649 26.1326 33.1659C26.2202 33.3668 26.3651 33.5374 26.5493 33.6562C26.7335 33.775 26.9486 33.8368 27.1678 33.8337C27.3869 33.8306 27.6003 33.7629 27.7811 33.6389L31.6179 30.9921L35.4325 33.6501C35.6184 33.7799 35.8396 33.8497 36.0664 33.8502C36.2795 33.8497 36.4879 33.7879 36.6669 33.6723C36.8476 33.5544 36.99 33.3864 37.0769 33.189C37.1638 32.9915 37.1914 32.773 37.1563 32.5602L36.211 27.5667L39.0803 24.6196C39.2273 24.4734 39.3306 24.2889 39.3784 24.0871C39.4262 23.8852 39.4165 23.6741 39.3506 23.4774C39.2847 23.2807 39.165 23.1064 39.0052 22.9742C38.8455 22.8419 38.6519 22.757 38.4463 22.729L34.4872 22.1729L32.6411 17.8468C32.5556 17.6462 32.413 17.4751 32.2311 17.3549C32.0492 17.2346 31.836 17.1705 31.6179 17.1705C31.3998 17.1705 31.1866 17.2346 31.0047 17.3549C30.8228 17.4751 30.6802 17.6462 30.5947 17.8468L28.7486 22.1729L24.7895 22.729C24.5839 22.757 24.3904 22.8419 24.2306 22.9742C24.0708 23.1064 23.9512 23.2807 23.8852 23.4774C23.8193 23.6741 23.8097 23.8852 23.8574 24.0871C23.9052 24.2889 24.0085 24.4734 24.1556 24.6196L27.0248 27.5334ZM29.6828 24.2749C29.8635 24.242 30.0332 24.1648 30.1768 24.0503C30.3204 23.9358 30.4335 23.7875 30.5058 23.6187L31.6179 21.1053L32.73 23.6187C32.8054 23.7918 32.9235 23.9428 33.0733 24.0576C33.2231 24.1724 33.3997 24.2471 33.5864 24.2749L35.9886 24.6307L34.2536 26.3879C34.1272 26.5162 34.0337 26.6733 33.9814 26.8458C33.9291 27.0182 33.9195 27.2007 33.9534 27.3777L34.4983 30.2692L32.2741 28.7234C32.0879 28.5942 31.8667 28.525 31.6401 28.525C31.4136 28.525 31.1924 28.5942 31.0062 28.7234L28.782 30.2692L29.3269 27.3777C29.3608 27.2007 29.3512 27.0182 29.2989 26.8458C29.2466 26.6733 29.1531 26.5162 29.0267 26.3879L27.2806 24.6307L29.6828 24.2749ZM44.1516 69.4381C44.0849 69.4381 36.5891 67.2139 32.4076 63.0434C28.2581 58.905 28.281 51.8317 28.2816 51.6472L28.2816 51.6441C28.2839 51.3817 28.1934 51.127 28.026 50.9249C27.8587 50.7228 27.6252 50.5863 27.367 50.5398C27.1087 50.4932 26.8423 50.5394 26.6149 50.6703C26.3874 50.8011 26.2136 51.0082 26.1241 51.2549L13.8907 83.5065C13.8148 83.7129 13.8017 83.9371 13.8532 84.1509C13.9046 84.3647 14.0183 84.5584 14.1799 84.7076C14.385 84.8996 14.6551 85.0069 14.9361 85.0079C15.0972 85.0087 15.2566 84.9746 15.4032 84.9078L44.3184 71.5623C44.5415 71.4759 44.7308 71.3199 44.8582 71.1174C44.9856 70.9148 45.0443 70.6766 45.0256 70.4381C45.0068 70.1996 44.9117 69.9735 44.7542 69.7933C44.5968 69.6132 44.3855 69.4886 44.1516 69.4381ZM23.2993 64.9896C24.2169 69.1509 26.1936 73.0046 29.0378 76.1776L22.4207 79.2137L20.619 72.0405L23.2993 64.9896ZM19.24 75.6771L20.3521 80.1256L16.9379 81.7493L19.24 75.6771ZM31.162 75.1878C27.4535 71.2144 25.2538 66.0676 24.9452 60.6412L26.6134 56.1927C27.2041 59.341 28.6641 62.2611 30.8283 64.6226C33.7389 67.2665 37.1393 69.3143 40.8375 70.6503L31.162 75.1878ZM80.0844 63.8773L84.0436 64.4334V64.4668C84.2469 64.4963 84.438 64.5816 84.5958 64.7131C84.7536 64.8446 84.8719 65.0173 84.9375 65.2119C85.0032 65.4066 85.0136 65.6156 84.9677 65.8158C84.9218 66.016 84.8214 66.1996 84.6775 66.3463L81.8082 69.26L82.7535 74.2535C82.7886 74.4663 82.761 74.6848 82.6742 74.8822C82.5873 75.0797 82.4448 75.2476 82.2642 75.3656C82.0852 75.4812 81.8767 75.543 81.6636 75.5435C81.4369 75.543 81.2157 75.4731 81.0297 75.3433L77.2151 72.6854L73.3783 75.3322C73.1975 75.4562 72.9842 75.5239 72.765 75.527C72.5459 75.5301 72.3307 75.4683 72.1465 75.3495C71.9624 75.2307 71.8174 75.0601 71.7299 74.8591C71.6423 74.6582 71.6161 74.4359 71.6545 74.2201L72.6221 69.2489L69.7528 66.3351C69.6089 66.1885 69.5085 66.0049 69.4626 65.8047C69.4167 65.6045 69.4271 65.3954 69.4928 65.2008C69.5584 65.0061 69.6767 64.8335 69.8345 64.702C69.9923 64.5704 70.1834 64.4852 70.3867 64.4556L74.3459 63.8773L76.192 59.5401C76.2775 59.3394 76.42 59.1684 76.6019 59.0481C76.7838 58.9279 76.9971 58.8638 77.2151 58.8638C77.4332 58.8638 77.6465 58.9279 77.8284 59.0481C78.0103 59.1684 78.1528 59.3394 78.2383 59.5401L80.0844 63.8773ZM79.5453 68.539C79.5976 68.3666 79.691 68.2095 79.8175 68.0812L81.5858 66.2906L79.1836 65.9348C78.9969 65.907 78.8204 65.8323 78.6705 65.7175C78.5207 65.6027 78.4026 65.4517 78.3273 65.2786L77.2151 62.7652L76.1364 65.312C76.0611 65.485 75.9429 65.6361 75.7931 65.7508C75.6433 65.8656 75.4667 65.9404 75.28 65.9681L72.8779 66.324L74.5905 68.0812C74.717 68.2095 74.8104 68.3666 74.8627 68.539C74.915 68.7114 74.9247 68.894 74.8908 69.071L74.3459 71.9625L76.5701 70.4166C76.7563 70.2875 76.9775 70.2183 77.204 70.2183C77.4306 70.2183 77.6518 70.2875 77.8379 70.4166L80.0622 71.9625L79.5172 69.071C79.4834 68.894 79.493 68.7114 79.5453 68.539ZM76.9062 47.8979C76.786 48.0798 76.6149 48.2224 76.4143 48.3078L71.4765 50.5321L69.2522 55.5589C69.1668 55.7595 69.0242 55.9306 68.8423 56.0508C68.6604 56.171 68.4471 56.2351 68.2291 56.2351C68.011 56.2351 67.7978 56.171 67.6158 56.0508C67.4339 55.9306 67.2914 55.7595 67.2059 55.5589L64.9817 50.5321L59.8659 48.3078C59.6653 48.2224 59.4942 48.0798 59.374 47.8979C59.2537 47.716 59.1896 47.5027 59.1896 47.2847C59.1896 47.0666 59.2537 46.8534 59.374 46.6715C59.4942 46.4895 59.6653 46.347 59.8659 46.2615L64.8927 44.0373L67.1169 39.0105C67.2024 38.8099 67.345 38.6388 67.5269 38.5186C67.7088 38.3983 67.922 38.3342 68.1401 38.3342C68.3582 38.3342 68.5714 38.3983 68.7533 38.5186C68.9352 38.6388 69.0778 38.8099 69.1632 39.0105L71.3875 44.0373L76.4143 46.2615C76.6149 46.347 76.786 46.4895 76.9062 46.6715C77.0265 46.8534 77.0906 47.0666 77.0906 47.2847C77.0906 47.5027 77.0265 47.716 76.9062 47.8979ZM68.1846 52.2781L69.5191 49.1975V49.242C69.6337 48.987 69.8402 48.7845 70.0974 48.6748L73.178 47.2847L70.0974 45.9501C69.8382 45.8378 69.6314 45.6311 69.5191 45.3718L68.1846 42.2912L66.8389 45.3718C66.7293 45.629 66.5268 45.8355 66.2717 45.9501L63.1911 47.2847L66.2717 48.6304C66.5248 48.7423 66.727 48.9445 66.8389 49.1975L68.1846 52.2781ZM30.2056 54.9805C30.305 54.9967 30.4064 54.9967 30.5058 54.9805C30.7554 54.9897 31.0009 54.9147 31.2026 54.7674C31.4044 54.6201 31.5507 54.4092 31.618 54.1686C33.0725 48.2114 33.4492 42.042 32.7301 35.9521C32.6976 35.6571 32.5493 35.3871 32.3178 35.2015C32.0863 35.0159 31.7906 34.9298 31.4956 34.9623C31.2007 34.9947 30.9307 35.143 30.7451 35.3745C30.5594 35.606 30.4734 35.9018 30.5058 36.1967C31.1443 42.0079 30.768 47.8858 29.3937 53.5681C29.3485 53.7141 29.3339 53.8679 29.3508 54.0199C29.3677 54.1718 29.4157 54.3186 29.4919 54.4512C29.5681 54.5837 29.6708 54.6991 29.7936 54.7902C29.9164 54.8813 30.0566 54.9461 30.2056 54.9805ZM64.7442 60.9623C64.9275 61.1914 65.0129 61.4837 64.9816 61.7755C64.965 61.9209 64.9199 62.0616 64.8489 62.1896C64.7778 62.3175 64.6822 62.4302 64.5675 62.5211C64.4528 62.612 64.3213 62.6794 64.1805 62.7194C64.0398 62.7594 63.8925 62.7712 63.7471 62.7542C54.2496 61.6977 44.563 68.0701 44.4629 68.1369C44.2838 68.2623 44.0699 68.3284 43.8512 68.3259C43.6146 68.3218 43.3854 68.2422 43.1971 68.0988C43.0087 67.9555 42.8711 67.7557 42.8041 67.5287C42.7371 67.3017 42.7443 67.0592 42.8246 66.8366C42.9049 66.6139 43.0542 66.4227 43.2507 66.2907C43.6733 66.0016 53.7046 59.44 64.0029 60.5522C64.2944 60.5857 64.5609 60.7331 64.7442 60.9623ZM31.985 58.0279C32.189 58.2133 32.4545 58.3164 32.7301 58.3171C32.8853 58.3167 33.0387 58.2839 33.1805 58.2207C33.3222 58.1575 33.4491 58.0653 33.5531 57.9501C34.0202 57.4385 44.9635 45.2719 46.0756 30.6029C46.0873 30.4569 46.0701 30.31 46.025 30.1706C45.9799 30.0312 45.9078 29.902 45.8128 29.7905C45.7178 29.679 45.6018 29.5872 45.4713 29.5206C45.3408 29.4539 45.1985 29.4135 45.0525 29.4018C44.9064 29.3902 44.7595 29.4074 44.6201 29.4525C44.4807 29.4976 44.3516 29.5697 44.24 29.6647C44.1285 29.7597 44.0368 29.8757 43.9701 30.0062C43.9034 30.1366 43.8631 30.279 43.8514 30.425C42.7393 44.3266 32.0184 56.3375 31.9072 56.4598C31.71 56.6783 31.6075 56.966 31.6221 57.26C31.6367 57.5539 31.7672 57.83 31.985 58.0279ZM41.9496 60.8526C42.2387 60.5412 48.9782 53.8684 57.0411 52.7563V52.7341C57.1871 52.7136 57.3358 52.7221 57.4785 52.7591C57.6213 52.7961 57.7553 52.8609 57.8731 52.9497C57.9908 53.0385 58.0899 53.1496 58.1647 53.2767C58.2394 53.4039 58.2884 53.5444 58.3089 53.6905C58.3293 53.8365 58.3208 53.9852 58.2838 54.1279C58.2468 54.2707 58.1821 54.4048 58.0933 54.5225C58.0044 54.6402 57.8933 54.7393 57.7662 54.8141C57.6391 54.8889 57.4985 54.9379 57.3525 54.9583C50.0347 56.0037 43.5844 62.3651 43.5288 62.4318C43.4254 62.536 43.3024 62.6188 43.1669 62.6752C43.0313 62.7317 42.886 62.7607 42.7392 62.7607C42.5923 62.7607 42.447 62.7317 42.3115 62.6752C42.1759 62.6188 42.0529 62.536 41.9496 62.4318C41.8453 62.3284 41.7626 62.2054 41.7061 62.0699C41.6497 61.9343 41.6206 61.789 41.6206 61.6422C41.6206 61.4954 41.6497 61.35 41.7061 61.2145C41.7626 61.079 41.8453 60.956 41.9496 60.8526ZM61.5786 40.1335C61.5279 39.996 61.4504 39.8698 61.3508 39.7623C61.2511 39.6548 61.1311 39.568 60.9978 39.507C60.8645 39.4461 60.7204 39.412 60.5739 39.4069C60.4273 39.4019 60.2812 39.4258 60.144 39.4774C51.1024 42.8693 36.9562 58.0276 36.3668 58.6726C36.2198 58.8311 36.1222 59.0289 36.0859 59.2419C36.0496 59.4549 36.0761 59.6739 36.1622 59.8721C36.2483 60.0703 36.3903 60.2391 36.5708 60.3579C36.7513 60.4767 36.9625 60.5403 37.1786 60.541C37.3311 60.5405 37.4819 60.5087 37.6215 60.4474C37.7612 60.3862 37.8868 60.2969 37.9905 60.1851C38.1351 60.0294 52.3702 44.7711 60.9225 41.5682C61.06 41.5174 61.1862 41.44 61.2937 41.3403C61.4012 41.2406 61.488 41.1207 61.549 40.9873C61.6099 40.854 61.644 40.7099 61.649 40.5634C61.6541 40.4169 61.6302 40.2708 61.5786 40.1335ZM38.2906 62.7654H40.5149V64.9897H38.2906V62.7654ZM34.9544 60.5412H32.7301V62.7655H34.9544V60.5412ZM74.5638 35.9919C74.4283 35.9365 74.3051 35.855 74.2011 35.7519L69.7526 31.3145C69.6352 31.1979 69.5454 31.0564 69.4896 30.9006C69.4338 30.7448 69.4135 30.5784 69.4301 30.4137C69.4481 30.2498 69.5024 30.0918 69.5889 29.9514C69.6755 29.811 69.7922 29.6916 69.9306 29.6019L73.267 27.3776C73.4485 27.258 73.6612 27.1943 73.8786 27.1943C74.0961 27.1943 74.3087 27.258 74.4903 27.3776L77.8267 29.6019C78.0525 29.7522 78.2155 29.9799 78.2852 30.2421C78.3548 30.5042 78.3262 30.7828 78.2048 31.0254L75.9805 35.4739C75.9022 35.631 75.7878 35.7672 75.6467 35.8716C75.5056 35.976 75.3418 36.0455 75.1687 36.0744H74.9908C74.8444 36.0753 74.6993 36.0472 74.5638 35.9919ZM75.7804 30.8919L73.8786 29.6241L72.266 30.7251L74.6682 33.1162L75.7804 30.8919ZM54.5277 78.5573L50.0792 75.221C49.8652 75.059 49.5998 74.98 49.332 74.9984C49.0643 75.0168 48.8122 75.1314 48.6223 75.3211L46.3981 77.5453C46.2938 77.6487 46.2111 77.7717 46.1546 77.9072C46.0982 78.0427 46.0691 78.1881 46.0691 78.3349C46.0691 78.4817 46.0982 78.6271 46.1546 78.7626C46.2111 78.8981 46.2938 79.0211 46.3981 79.1245L49.7345 82.4609C49.8384 82.564 49.9616 82.6455 50.0971 82.7009C50.2326 82.7562 50.3777 82.7843 50.5241 82.7834C50.7429 82.7874 50.9573 82.7212 51.1357 82.5943L54.4721 80.3701C54.6251 80.2694 54.7508 80.1324 54.8381 79.9713C54.9254 79.8103 54.9716 79.6302 54.9726 79.447C54.9726 79.2744 54.9324 79.1041 54.8551 78.9497C54.7779 78.7952 54.6658 78.6609 54.5277 78.5573ZM50.6686 80.2366L48.7558 78.3349L49.512 77.5787L51.9365 79.447L50.6686 80.2366ZM21.0275 45.9174C20.8528 45.8094 20.7114 45.6552 20.6189 45.4718L18.3725 40.9899C18.2996 40.8391 18.2617 40.6737 18.2617 40.5062C18.2617 40.3386 18.2996 40.1732 18.3725 40.0224C18.4428 39.8711 18.5463 39.7375 18.6753 39.6316C18.8043 39.5257 18.9554 39.4502 19.1176 39.4107L23.5661 38.2986C23.8211 38.2382 24.0892 38.2698 24.3232 38.3878C24.5572 38.5058 24.742 38.7027 24.845 38.9436L27.0693 43.3921C27.1421 43.543 27.18 43.7084 27.18 43.8759C27.18 44.0434 27.1421 44.2088 27.0693 44.3597C26.9989 44.511 26.8954 44.6446 26.7664 44.7504C26.6374 44.8563 26.4863 44.9318 26.3241 44.9713L21.8756 46.0835C21.787 46.0942 21.6974 46.0942 21.6087 46.0835C21.4034 46.0828 21.2022 46.0254 21.0275 45.9174ZM24.4447 43.1141L23.2324 40.7008L20.9971 41.268L22.2204 43.6813L24.4447 43.1141ZM62.7575 76.1109C62.4625 76.1109 62.1797 76.228 61.9711 76.4366C61.7625 76.6451 61.6454 76.928 61.6454 77.223V79.4472C61.6454 79.7422 61.7625 80.025 61.9711 80.2336C62.1797 80.4422 62.4625 80.5593 62.7575 80.5593C63.0524 80.5593 63.3353 80.4422 63.5439 80.2336C63.7524 80.025 63.8696 79.7422 63.8696 79.4472V77.223C63.8696 76.928 63.7524 76.6451 63.5439 76.4366C63.3353 76.228 63.0524 76.1109 62.7575 76.1109ZM61.9711 69.7637C62.1797 69.5552 62.4625 69.438 62.7575 69.438C63.0524 69.438 63.3353 69.5552 63.5439 69.7637C63.7524 69.9723 63.8696 70.2552 63.8696 70.5501V72.7744C63.8696 73.0693 63.7524 73.3522 63.5439 73.5608C63.3353 73.7693 63.0524 73.8865 62.7575 73.8865C62.4625 73.8865 62.1797 73.7693 61.9711 73.5608C61.7625 73.3522 61.6454 73.0693 61.6454 72.7744V70.5501C61.6454 70.2552 61.7625 69.9723 61.9711 69.7637ZM60.5331 73.8867H58.3088C58.0139 73.8867 57.731 74.0038 57.5224 74.2124C57.3139 74.4209 57.1967 74.7038 57.1967 74.9988C57.1967 75.2937 57.3139 75.5766 57.5224 75.7852C57.731 75.9937 58.0139 76.1109 58.3088 76.1109H60.5331C60.828 76.1109 61.1109 75.9937 61.3195 75.7852C61.528 75.5766 61.6452 75.2937 61.6452 74.9988C61.6452 74.7038 61.528 74.4209 61.3195 74.2124C61.1109 74.0038 60.828 73.8867 60.5331 73.8867ZM64.9816 73.8867H67.2058C67.5008 73.8867 67.7836 74.0038 67.9922 74.2124C68.2008 74.4209 68.3179 74.7038 68.3179 74.9988C68.3179 75.2937 68.2008 75.5766 67.9922 75.7852C67.7836 75.9937 67.5008 76.1109 67.2058 76.1109H64.9816C64.6866 76.1109 64.4037 75.9937 64.1952 75.7852C63.9866 75.5766 63.8694 75.2937 63.8694 74.9988C63.8694 74.7038 63.9866 74.4209 64.1952 74.2124C64.4037 74.0038 64.6866 73.8867 64.9816 73.8867ZM79.4392 20.5046C79.1443 20.5046 78.8614 20.6218 78.6528 20.8303C78.4443 21.0389 78.3271 21.3218 78.3271 21.6167V23.841C78.3271 24.1359 78.4443 24.4188 78.6528 24.6274C78.8614 24.8359 79.1443 24.9531 79.4392 24.9531C79.7342 24.9531 80.0171 24.8359 80.2256 24.6274C80.4342 24.4188 80.5514 24.1359 80.5514 23.841V21.6167C80.5514 21.3218 80.4342 21.0389 80.2256 20.8303C80.0171 20.6218 79.7342 20.5046 79.4392 20.5046ZM80.2256 17.9548C80.0171 18.1633 79.7342 18.2805 79.4392 18.2805C79.1443 18.2805 78.8614 18.1633 78.6528 17.9548C78.4443 17.7462 78.3271 17.4633 78.3271 17.1684V14.9441C78.3271 14.6492 78.4443 14.3663 78.6528 14.1578C78.8614 13.9492 79.1443 13.832 79.4392 13.832C79.7342 13.832 80.0171 13.9492 80.2256 14.1578C80.4342 14.3663 80.5514 14.6492 80.5514 14.9441V17.1684C80.5514 17.4633 80.4342 17.7462 80.2256 17.9548ZM74.9908 20.5047H77.2151C77.51 20.5047 77.7929 20.3875 78.0015 20.1789C78.21 19.9704 78.3272 19.6875 78.3272 19.3925C78.3272 19.0976 78.21 18.8147 78.0015 18.6062C77.7929 18.3976 77.51 18.2804 77.2151 18.2804H74.9908C74.6959 18.2804 74.413 18.3976 74.2044 18.6062C73.9959 18.8147 73.8787 19.0976 73.8787 19.3925C73.8787 19.6875 73.9959 19.9704 74.2044 20.1789C74.413 20.3875 74.6959 20.5047 74.9908 20.5047ZM83.8878 20.5047H81.6636C81.3686 20.5047 81.0857 20.3875 80.8772 20.1789C80.6686 19.9704 80.5514 19.6875 80.5514 19.3925C80.5514 19.0976 80.6686 18.8147 80.8772 18.6062C81.0857 18.3976 81.3686 18.2804 81.6636 18.2804H83.8878C84.1828 18.2804 84.4656 18.3976 84.6742 18.6062C84.8828 18.8147 84.9999 19.0976 84.9999 19.3925C84.9999 19.6875 84.8828 19.9704 84.6742 20.1789C84.4656 20.3875 84.1828 20.5047 83.8878 20.5047Z" fill="url(#paint0_linear_3601_2158)"/>
<defs>
<linearGradient id="paint0_linear_3601_2158" x1="13.8236" y1="49.4167" x2="85.0049" y2="49.4167" gradientUnits="userSpaceOnUse">
<stop stop-color="#00B2FF"/>
<stop offset="1" stop-color="#0EBEAD"/>
</linearGradient>
</defs>
</svg>
