<svg width="100" height="100" viewBox="0 0 100 100" fill="none" xmlns="http://www.w3.org/2000/svg">
<path fill-rule="evenodd" clip-rule="evenodd" d="M65.6457 25.9327C65.6457 19.5335 70.7019 14.3983 77.1011 14.3983C83.5003 14.3983 88.6354 19.4545 88.6354 25.8537C88.6354 32.2528 83.4213 37.388 77.1011 37.388C70.7809 37.388 65.6457 32.3318 65.6457 25.9327ZM68.0948 25.8537C68.0948 30.8308 72.1239 34.8599 77.1011 34.8599C82.0782 34.8599 86.1073 30.9098 86.1073 25.9327C86.1073 20.9555 82.0782 16.9264 77.1011 16.9264C72.2029 16.9264 68.0948 20.8765 68.0948 25.8537ZM80.6792 27.4754C80.695 27.5363 80.7115 27.6 80.7351 27.6707C80.8141 27.9077 80.8141 28.0657 80.8141 28.3027C80.8141 28.6188 80.8141 28.8558 80.7351 29.0928L80.4981 29.8038C80.4358 29.8973 80.3858 29.9908 80.3383 30.0794C80.2655 30.2155 80.1988 30.3401 80.1031 30.4358C79.9451 30.6728 79.7871 30.8308 79.6291 30.9888C79.5584 31.036 79.4947 31.0831 79.4338 31.1282C79.2907 31.2341 79.1634 31.3284 78.9971 31.3838C78.7601 31.5418 78.5231 31.6208 78.2861 31.6998H78.2071V32.9639V33.3589H77.812H76.706H76.311V32.9639V31.7788H76.153C75.916 31.7788 75.758 31.7788 75.521 31.6998C75.4123 31.6636 75.3036 31.644 75.2025 31.6258C75.0832 31.6042 74.9745 31.5846 74.889 31.5418C74.731 31.5418 74.4939 31.4628 74.3359 31.3838C74.3089 31.3748 74.2829 31.3658 74.2576 31.357C74.0609 31.2889 73.9049 31.2348 73.6249 31.3048L73.3879 31.2258V30.9888L73.5459 29.5668L73.6249 29.0138L74.0989 29.2508C74.1384 29.2508 74.1779 29.2705 74.2174 29.2903C74.2569 29.31 74.2964 29.3298 74.3359 29.3298C74.3754 29.3298 74.4149 29.3495 74.4545 29.3693C74.4939 29.389 74.5334 29.4088 74.573 29.4088C74.652 29.4483 74.731 29.468 74.81 29.4878C74.889 29.5075 74.968 29.5273 75.047 29.5668C75.205 29.6458 75.363 29.7248 75.521 29.7248C75.5537 29.7248 75.6 29.7383 75.6542 29.7542C75.7309 29.7767 75.8234 29.8038 75.916 29.8038H76.311H76.627H76.943C77.0356 29.8038 77.1281 29.7767 77.2048 29.7542C77.259 29.7383 77.3053 29.7248 77.338 29.7248C77.3775 29.6853 77.4368 29.6655 77.496 29.6458C77.5553 29.626 77.6145 29.6063 77.654 29.5668C77.812 29.4878 77.891 29.4088 77.97 29.3298L78.2071 29.0928C78.2861 29.0138 78.3651 28.8558 78.3651 28.7768V28.3817C78.3651 28.2892 78.338 28.1966 78.3155 28.12L78.3155 28.1199C78.2996 28.0657 78.2861 28.0194 78.2861 27.9867C78.2559 27.9264 78.2372 27.8776 78.2213 27.8359C78.1955 27.7684 78.1769 27.7196 78.1281 27.6707L77.8911 27.4337C77.812 27.4337 77.733 27.3547 77.654 27.2757C77.6145 27.2362 77.5553 27.2165 77.496 27.1967C77.4368 27.177 77.3775 27.1572 77.338 27.1177C77.259 27.0387 77.101 26.9597 77.022 26.9597C76.864 26.8807 76.627 26.8017 76.39 26.7227C76.3422 26.6988 76.2871 26.6676 76.2269 26.6336C76.0885 26.5553 75.9232 26.4618 75.758 26.4067C75.7207 26.388 75.679 26.3694 75.635 26.3497C75.4925 26.286 75.3257 26.2114 75.205 26.0907C74.968 26.0117 74.81 25.8537 74.652 25.6957C74.573 25.6167 74.5137 25.5377 74.4545 25.4587C74.3952 25.3797 74.3359 25.3007 74.2569 25.2217C74.2174 25.1426 74.1582 25.0439 74.0989 24.9451C74.0397 24.8464 73.9804 24.7476 73.9409 24.6686C73.8301 24.5024 73.797 24.375 73.7598 24.2319L73.7598 24.2318C73.744 24.1709 73.7275 24.1073 73.7039 24.0366C73.6249 23.7996 73.6249 23.6416 73.6249 23.4046C73.6249 23.1676 73.6249 22.8516 73.7039 22.6146L73.9409 21.9036C74.0199 21.6665 74.0989 21.4295 74.2569 21.2715C74.4149 21.0345 74.573 20.8765 74.731 20.7185C74.889 20.5605 75.047 20.4025 75.284 20.3235C75.521 20.1655 75.758 20.0865 75.995 20.0075H76.074V18.8225V18.4275H76.469H77.575H77.97V18.8225V19.9285H78.0491C78.1281 19.9285 78.1873 19.9482 78.2466 19.968C78.3058 19.9877 78.3651 20.0075 78.4441 20.0075C78.5366 20.0075 78.6292 20.0346 78.7059 20.0571C78.7601 20.0729 78.8064 20.0865 78.8391 20.0865C78.9316 20.0865 78.9971 20.1136 79.0513 20.1361C79.0896 20.1519 79.1224 20.1655 79.1551 20.1655C79.1946 20.1655 79.2538 20.1853 79.3131 20.205C79.3723 20.2248 79.4316 20.2445 79.4711 20.2445L79.7871 20.3235V20.6395L79.6291 21.9036L79.5501 22.3776L79.1551 22.2196C79.1224 22.2196 79.0896 22.206 79.0513 22.1901C78.9971 22.1677 78.9316 22.1406 78.8391 22.1406C78.7996 22.1406 78.7403 22.1208 78.6811 22.1011C78.6218 22.0813 78.5626 22.0616 78.5231 22.0616C78.4903 22.0616 78.4441 22.048 78.3899 22.0321C78.3132 22.0097 78.2206 21.9826 78.1281 21.9826C77.9701 21.9036 77.8911 21.9036 77.733 21.9036H77.496H77.259C77.101 21.9036 77.022 21.9036 76.864 21.9826C76.706 21.9826 76.548 22.0616 76.469 22.1406L76.232 22.3776C76.1925 22.4171 76.1728 22.4763 76.153 22.5356C76.1332 22.5948 76.1135 22.6541 76.074 22.6936C76.074 22.7331 76.0542 22.7923 76.0345 22.8516C76.0147 22.9108 75.995 22.9701 75.995 23.0096V23.4046C75.995 23.4836 75.995 23.6416 76.074 23.7206C76.074 23.8786 76.153 23.9576 76.232 24.0366L76.469 24.2736C76.5085 24.3131 76.5678 24.3329 76.627 24.3526C76.6863 24.3724 76.7455 24.3921 76.785 24.4316C76.8245 24.4711 76.8838 24.4909 76.943 24.5106C77.0023 24.5304 77.0615 24.5501 77.101 24.5896C77.18 24.6686 77.338 24.7476 77.417 24.7476C77.575 24.8266 77.812 24.9056 78.0491 24.9846C78.1676 25.0241 78.2663 25.0834 78.3651 25.1427C78.4638 25.2019 78.5626 25.2612 78.6811 25.3007C78.7184 25.3193 78.7601 25.338 78.8041 25.3576C78.9466 25.4214 79.1134 25.496 79.2341 25.6167C79.4711 25.6957 79.6291 25.8537 79.7871 26.0117C79.8661 26.0907 79.9254 26.1697 79.9846 26.2487C80.0439 26.3277 80.1031 26.4067 80.1821 26.4857C80.3028 26.6064 80.3774 26.7732 80.4411 26.9157L80.4413 26.9161L80.4416 26.9166C80.4611 26.9603 80.4796 27.0017 80.4981 27.0387C80.609 27.205 80.6421 27.3324 80.6792 27.4754ZM71.5709 38.889C71.1758 38.3359 70.3068 38.2569 69.7538 38.652L56.9554 48.8433L40.4439 41.9701C40.0489 41.8121 39.5749 41.8911 39.2589 42.1281L21.5624 54.7684C21.0094 55.1634 20.8514 55.9535 21.2464 56.5065C21.4834 56.9015 21.8784 57.0595 22.2734 57.0595C22.5104 57.0595 22.7474 56.9805 22.9844 56.8225L40.1279 44.5771L56.7184 51.4503C57.1134 51.6083 57.6664 51.5293 57.9825 51.2923L71.3338 40.706C71.8869 40.311 71.9659 39.442 71.5709 38.889ZM84.2113 82.1824H90.0574C90.7685 82.1824 91.3215 82.7354 91.2425 83.4464C91.2425 84.1574 90.6895 84.7104 89.9784 84.7104H82.8682H71.2549H64.4607H52.8473H46.0531H34.4398H27.4876H15.8742H8.76404C8.05302 84.7104 7.5 84.1574 7.5 83.4464C7.5 82.7354 8.05302 82.1824 8.76404 82.1824H14.6892V63.7748C14.6892 63.0638 15.2422 62.5108 15.9532 62.5108H27.6456C28.3566 62.5108 28.9096 63.0638 28.9096 63.7748V82.1824H33.1758V56.3486C33.1758 55.6376 33.7288 55.0846 34.4398 55.0846H46.0531C46.7642 55.0846 47.3172 55.6376 47.3172 56.3486V82.1824H51.5833V58.2447C51.5833 57.5336 52.1363 56.9806 52.8473 56.9806H64.5397C65.2507 56.9806 65.8037 57.5336 65.8037 58.2447V82.1824H70.0698V45.6043C70.0698 44.8933 70.6229 44.3402 71.3339 44.3402H82.9472C83.6582 44.3402 84.2113 44.8933 84.2113 45.6043V82.1824ZM17.2173 82.1824H26.3026V65.0389H17.2173V82.1824ZM35.7038 82.1824H44.7891V57.6126H35.7038V82.1824ZM54.1114 82.1824H63.1966V59.5087H54.1114V82.1824ZM72.5979 82.1824H81.6832V46.8683H72.5979V82.1824Z" fill="url(#paint0_linear_3601_1974)"/>
<defs>
<linearGradient id="paint0_linear_3601_1974" x1="7.50158" y1="49.5557" x2="91.2559" y2="49.5557" gradientUnits="userSpaceOnUse">
<stop stop-color="#00B2FF"/>
<stop offset="1" stop-color="#0EBEAD"/>
</linearGradient>
</defs>
</svg>
