<svg width="100" height="100" viewBox="0 0 100 100" fill="none" xmlns="http://www.w3.org/2000/svg">
<path d="M11.9792 58.896C12.2528 59.6393 12.684 60.3085 13.2357 60.8568C14.2141 61.8372 15.559 62.4458 17.0426 62.4458C18.5218 62.4458 19.8711 61.8372 20.8493 60.8568C21.8276 59.8765 22.435 58.5243 22.435 57.042V54.0357C21.2991 54.1332 20.3021 53.887 19.5232 53.5616C19.4535 53.9008 19.3748 54.2308 19.2728 54.556C18.8879 55.8105 18.2434 56.9537 17.2233 57.776C16.1894 58.6125 14.817 59.0958 12.9992 59.0027C12.6747 58.9887 12.3361 58.9517 11.9792 58.896V58.896ZM43.76 50.8435H54.5451V47.4467H46.2406C45.559 47.4467 44.9376 47.7303 44.4879 48.1809C44.0381 48.6317 43.76 49.2497 43.76 49.9327V50.8435ZM54.5449 53.3015H43.7598V57.0418C43.7598 58.5242 44.3672 59.8764 45.3455 60.8566C46.3237 61.837 47.673 62.4457 49.1522 62.4457C50.6358 62.4457 51.9852 61.837 52.9591 60.8566C53.9373 59.8764 54.5448 58.5242 54.5448 57.0418V53.3015H54.5449ZM88.1619 61.5074C88.8203 61.8559 89.3998 62.3299 89.8775 62.892C90.7352 63.9051 91.25 65.2107 91.25 66.6278V74.9173C91.25 75.5958 90.7028 76.1439 90.026 76.1439C89.3491 76.1439 88.7972 75.5956 88.7972 74.9173V66.6278C88.7972 65.8101 88.5003 65.0573 88.0089 64.4765C87.573 63.9606 86.9841 63.5797 86.3119 63.3985C85.0183 64.3463 83.4276 64.904 81.7122 64.904C79.9364 64.904 78.2948 64.3093 76.9732 63.301C76.723 63.3289 76.4817 63.3987 76.2499 63.5056C75.9345 63.6541 75.6471 63.8819 75.4152 64.1885L68.8263 72.9335C68.5945 73.2402 68.2328 73.4261 67.8481 73.4261H59.4046C58.7786 73.4261 58.2129 73.6769 57.805 74.0857C57.3968 74.4993 57.1418 75.0661 57.1418 75.6889C57.1418 76.316 57.3968 76.883 57.805 77.2918C58.2129 77.7007 58.7786 77.9564 59.4046 77.9564H69.4894C69.8931 77.9564 70.2036 77.9146 70.5886 77.7194C71.3026 77.3615 71.9703 76.2744 72.4571 75.6238L76.8205 69.8388C77.2284 69.2953 77.9935 69.1882 78.5359 69.5972C79.0737 70.006 79.1803 70.7773 78.7724 71.3164L74.6225 76.8271V87.5422H88.7972V80.4839C88.7972 79.8054 89.3489 79.2573 90.026 79.2573C90.703 79.2573 91.25 79.8056 91.25 80.4839V88.7734C91.25 89.4518 90.7028 90 90.026 90C62.9237 90 35.8263 90 8.72877 90C8.0519 90 7.5 89.4517 7.5 88.7734V80.4839C7.5 79.8054 8.0519 79.2573 8.72877 79.2573C9.4058 79.2573 9.9528 79.8056 9.9528 80.4839V87.5422H24.1322V76.8271L19.9778 71.3164C19.5698 70.7773 19.6765 70.006 20.219 69.5972C20.7569 69.1882 21.5265 69.2951 21.9346 69.8388L26.2003 75.4984C26.5898 76.0141 26.9794 76.5344 27.3687 77.055C27.5912 77.3476 27.8648 77.5707 28.1663 77.7194C28.5047 77.8913 28.8201 77.9564 29.1911 77.9564H39.3502C39.9716 77.9564 40.5372 77.7007 40.9498 77.2918C41.3579 76.883 41.6082 76.316 41.6082 75.6889C41.6082 75.0661 41.3579 74.4993 40.9498 74.0857C40.5372 73.6769 39.9716 73.4261 39.3502 73.4261H30.9021C30.5311 73.4261 30.1648 73.2541 29.9239 72.9335L23.335 64.1885C22.9592 63.6913 22.3982 63.3708 21.7771 63.301C20.4601 64.3047 18.8188 64.904 17.0429 64.904C15.3274 64.904 13.7322 64.3465 12.4386 63.4033C11.7802 63.5752 11.196 63.9516 10.76 64.4534C10.2592 65.0387 9.95312 65.7962 9.95312 66.628V74.9174C9.95312 75.5959 9.40597 76.1441 8.7291 76.1441C8.05223 76.1441 7.50033 75.5958 7.50033 74.9174V66.628C7.50033 65.1922 8.03358 63.868 8.90985 62.8504C9.3829 62.3068 9.95312 61.8467 10.593 61.5075C9.67963 60.1926 9.19741 58.6406 9.19741 57.0422V49.9329C9.19741 48.5714 9.74915 47.3354 10.6441 46.4388C11.5391 45.5467 12.7677 44.989 14.1262 44.989H19.9545C21.3132 44.989 22.5465 45.5465 23.4413 46.4388C24.3364 47.3356 24.8881 48.5715 24.8881 49.9329V57.0422C24.8881 58.6173 24.4198 60.0904 23.6175 61.3217C24.2806 61.6562 24.8415 62.1162 25.2913 62.7111L31.5094 70.9633H36.4196V65.9777C36.4196 64.5652 37.1661 63.2872 38.3763 62.2045C39.3131 61.3682 40.5464 60.6386 41.9096 60.0626C41.5202 59.1286 41.307 58.1109 41.307 57.0422V52.0749V49.9327C41.307 48.5712 41.8633 47.3352 42.7538 46.4386C43.6488 45.5465 44.8821 44.9889 46.2406 44.9889H55.7737C56.4509 44.9889 57.0026 45.5418 57.0026 46.2203V52.075V57.0422C57.0026 58.0504 56.808 59.0171 56.4602 59.9091C57.9254 60.4853 59.2514 61.2287 60.2532 62.0929C61.5374 63.1989 62.3304 64.5184 62.3304 65.9775V70.9632H67.2406L73.4587 62.7109C73.9178 62.1067 74.4926 61.6421 75.1373 61.3262C74.3304 60.0903 73.8621 58.6173 73.8621 57.042V49.9327C73.8621 48.5712 74.4185 47.3352 75.3089 46.4386C76.2038 45.5465 77.4371 44.9889 78.7956 44.9889H84.6243C85.9827 44.9889 87.2163 45.5464 88.111 46.4386C89.0012 47.3354 89.5577 48.5714 89.5577 49.9327V57.042C89.5575 58.6402 89.0707 60.1922 88.1619 61.5074ZM86.7708 58.896C86.4185 58.9517 86.0753 58.9887 85.7508 59.0027C83.9377 59.0956 82.5652 58.6124 81.5312 57.776C80.5064 56.9537 79.862 55.8106 79.4771 54.556C79.3796 54.2308 79.2963 53.9008 79.2312 53.5616C78.4477 53.8869 77.4555 54.1331 76.3149 54.0357V57.042C76.3149 58.5243 76.9222 59.8765 77.9005 60.8568C78.8787 61.8372 80.2282 62.4458 81.712 62.4458C83.191 62.4458 84.5405 61.8372 85.5189 60.8568C86.0662 60.3085 86.4972 59.6393 86.7708 58.896V58.896ZM76.3149 51.5729C77.9516 51.8052 79.1478 50.8527 79.3611 50.6668C79.6024 50.4624 79.8294 50.337 80.1587 50.3229C80.8357 50.2904 81.4059 50.8109 81.4383 51.4892C81.4802 52.2885 81.5913 53.0971 81.8185 53.8357C82.0689 54.6581 82.463 55.383 83.0613 55.8662C83.6502 56.3403 84.4803 56.6097 85.6348 56.5538C86.0799 56.5306 86.5667 56.4611 87.1045 56.3401V49.9324C87.1045 49.2494 86.8217 48.6314 86.3719 48.1806C85.9222 47.73 85.3054 47.4464 84.6239 47.4464H78.7955C78.1138 47.4464 77.497 47.73 77.0473 48.1806C76.5975 48.6314 76.3149 49.2494 76.3149 49.9324V51.5729ZM22.4351 51.5729V49.9326C22.4351 49.2495 22.1571 48.6315 21.7072 48.1808C21.2576 47.7301 20.6362 47.4465 19.9545 47.4465H14.1259C13.449 47.4465 12.8276 47.7301 12.3778 48.1808C11.9281 48.6315 11.6499 49.2495 11.6499 49.9326V56.3403C12.1831 56.4611 12.6699 56.5307 13.1152 56.554C14.2698 56.6099 15.0998 56.3403 15.6885 55.8664C16.2867 55.3833 16.6808 54.6583 16.9359 53.8359C17.1631 53.0971 17.2744 52.2886 17.3115 51.4893C17.3439 50.8109 17.9189 50.2906 18.5911 50.323C18.9065 50.3371 19.1475 50.4532 19.3794 50.6576C19.5512 50.8109 20.766 51.8098 22.4351 51.5729V51.5729ZM43.2222 62.1765C41.9422 62.6737 40.8109 63.3056 40.004 64.0306C39.3039 64.6532 38.8726 65.3223 38.8726 65.9775V70.9632H39.3502C40.6486 70.9632 41.831 71.4928 42.6842 72.3478C43.5374 73.2028 44.0659 74.3831 44.0659 75.6889C44.0659 76.5113 43.8526 77.2827 43.4863 77.9564H55.2637C54.8974 77.2827 54.6887 76.5113 54.6887 75.6889C54.6887 74.3831 55.2172 73.2028 56.0706 72.3478C56.9238 71.4928 58.1014 70.9632 59.4044 70.9632H59.8774V65.9775C59.8774 65.299 59.4137 64.602 58.6626 63.9562C57.7816 63.1989 56.5574 62.5437 55.1942 62.0465C55.0365 62.237 54.8696 62.4229 54.698 62.5948C53.2746 64.0213 51.3132 64.9042 49.1525 64.9042C46.9963 64.9042 45.0305 64.0213 43.6116 62.5948C43.477 62.4598 43.3471 62.3206 43.2222 62.1765V62.1765ZM17.7242 17.8525C17.0472 17.8525 16.5002 17.2996 16.5002 16.6212C16.5002 15.9427 17.0473 15.3945 17.7242 15.3945H40.4352C41.1122 15.3945 41.6594 15.9429 41.6594 16.6212C41.6594 17.2996 41.112 17.8525 40.4352 17.8525H17.7242ZM17.7242 30.7887C17.0472 30.7887 16.5002 30.2358 16.5002 29.5573C16.5002 28.8789 17.0473 28.326 17.7242 28.326H29.0799C29.7569 28.326 30.3086 28.8789 30.3086 29.5573C30.3086 30.2358 29.7569 30.7887 29.0799 30.7887H17.7242ZM17.7242 24.3207C17.0472 24.3207 16.5002 23.7676 16.5002 23.0893C16.5002 22.4109 17.0473 21.8627 17.7242 21.8627H40.4352C41.1122 21.8627 41.6594 22.411 41.6594 23.0893C41.6594 23.7676 41.112 24.3207 40.4352 24.3207H17.7242ZM41.6918 37.4287C41.8633 37.9073 42.1368 38.3347 42.4848 38.6832C43.1062 39.3105 43.9685 39.7008 44.9282 39.7008H52.1384C52.8155 39.7008 53.3625 40.2491 53.3625 40.9322C53.3625 41.6106 52.8153 42.1588 52.1384 42.1588H44.9282C43.2915 42.1588 41.8169 41.4898 40.7504 40.4117C39.953 39.608 39.3872 38.5764 39.1461 37.4287H22.0411L16.4863 42.9953C16.2638 43.2184 15.9578 43.3577 15.6146 43.3577C14.9376 43.3577 14.3858 42.8094 14.3858 42.1311V37.3265C12.8278 37.0662 11.432 36.3183 10.3611 35.2402C9.01175 33.8926 8.1772 32.0293 8.1772 29.9755V16.2032C8.1772 14.154 9.01192 12.2907 10.3611 10.9387C11.7057 9.59108 13.565 8.75 15.6146 8.75H42.5453C44.5945 8.75 46.4541 9.59108 47.7986 10.9387C49.148 12.2907 49.9825 14.154 49.9825 16.2032V18.48H70.8206C72.448 18.48 73.9226 19.1446 74.9937 20.2179C76.0648 21.2913 76.7279 22.7689 76.7279 24.3999V36.2394C76.7279 37.8704 76.0648 39.348 74.9937 40.4214C74.2007 41.2161 73.1808 41.7875 72.0448 42.0293V46.8617C72.0448 47.173 71.9288 47.4888 71.6877 47.7306C71.21 48.2091 70.4311 48.2091 69.9533 47.7306L64.3939 42.1593H57.6937C57.0167 42.1593 56.465 41.611 56.465 40.9326C56.465 40.2496 57.0167 39.7013 57.6937 39.7013H64.9039C65.2471 39.7013 65.553 39.8408 65.7756 40.0683L69.5916 43.8924V40.9325C69.5916 40.2494 70.1434 39.7011 70.8206 39.7011C71.7663 39.7011 72.6335 39.3108 73.2595 38.6835C73.8855 38.0563 74.2749 37.192 74.2749 36.2394V24.3999C74.2749 23.4473 73.8855 22.5831 73.2595 21.9558C72.6335 21.3285 71.7663 20.9382 70.8206 20.9382H49.9824V29.9758C49.9824 32.0296 49.1478 33.8929 47.7985 35.2405C46.4537 36.5925 44.5944 37.429 42.5451 37.429H41.6918V37.4287ZM21.5309 34.9707H42.5451C43.9177 34.9707 45.1602 34.4084 46.0644 33.5024C46.9685 32.5963 47.5296 31.3464 47.5296 29.9755V16.2032C47.5296 14.8325 46.9685 13.5826 46.0644 12.6764C45.1603 11.7702 43.9177 11.208 42.5451 11.208H15.6144C14.2419 11.208 12.9992 11.7702 12.095 12.6764C11.1909 13.5824 10.6297 14.8323 10.6297 16.2032V29.9757C10.6297 31.3464 11.1909 32.5963 12.095 33.5026C12.999 34.4086 14.2419 34.9708 15.6144 34.9708C16.2915 34.9708 16.8385 35.5237 16.8385 36.2022V39.1621L20.6638 35.3334C20.9051 35.0915 21.2157 34.9707 21.5309 34.9707V34.9707ZM72.1696 80.4142H26.5852V87.542H72.1697V80.4142H72.1696Z" fill="url(#paint0_linear_3601_26273)"/>
<defs>
<linearGradient id="paint0_linear_3601_26273" x1="91.25" y1="67.6563" x2="16.1534" y2="89.1686" gradientUnits="userSpaceOnUse">
<stop stop-color="#19A0FA"/>
<stop offset="1" stop-color="#0EBEAD"/>
</linearGradient>
</defs>
</svg>
