<svg width="100" height="100" viewBox="0 0 100 100" fill="none" xmlns="http://www.w3.org/2000/svg">
<path fill-rule="evenodd" clip-rule="evenodd" d="M75.2211 67.9747C76.7855 66.3746 78.9624 65.3784 81.3705 65.3784H88.7499V66.6083C88.7499 71.3545 84.888 75.2175 80.1406 75.2175H75.2211V82.5969V83.8268V86.2866H83.8303V88.7463H17.4161V86.2866H26.0254V83.8268H21.1058C16.3584 83.8268 12.4966 79.9637 12.4966 75.2175V73.9876H19.8759C22.2841 73.9876 24.461 74.9839 26.0254 76.584V75.2175V73.9876V64.1485C23.9911 64.1485 22.3357 62.4931 22.3357 60.4588V57.0766C22.3357 56.2194 21.9397 55.4335 21.3014 55.0264C17.6535 52.6958 15.7287 48.567 16.2785 44.2513C16.9119 39.2826 20.9878 35.267 25.97 34.7037C29.1223 34.3482 32.2794 35.3445 34.6273 37.4427C36.9763 39.5421 38.3243 42.5516 38.3243 45.7001C38.3243 49.4796 36.4217 52.9602 33.235 55.0092C32.5709 55.436 32.1748 56.1899 32.1748 57.0262V60.4588C32.1748 62.4931 30.5194 64.1485 28.4852 64.1485V67.9747C30.0496 66.3746 32.2265 65.3784 34.6346 65.3784H42.014V66.6083C42.014 71.3545 38.1521 75.2175 33.4047 75.2175H28.4852V82.5969V83.8268V86.2866H49.3933V83.8268H45.7037C42.3128 83.8268 39.5542 81.0681 39.5542 77.6773V76.4474H45.7037C47.0934 76.4474 48.3627 76.9283 49.3933 77.7093V73.9876V72.7578V64.1485H45.7037C42.3128 64.1485 39.5542 61.3899 39.5542 57.9991V56.7692H45.7037C47.0934 56.7692 48.3627 57.2501 49.3933 58.031V51.8496C46.0025 51.8496 43.2439 49.091 43.2439 45.7001V42.5947C43.2439 41.1163 42.5281 39.6847 41.2822 38.6652C37.1903 35.3186 35.2324 30.1777 36.0453 24.9125C37.0354 18.4937 42.4531 13.311 48.9284 12.5878C53.1334 12.1216 57.3347 13.4548 60.4599 16.2492C63.5887 19.0472 65.3819 23.0578 65.3819 27.2518C65.3819 31.72 63.3846 35.8979 59.9015 38.7156C58.695 39.6921 58.0026 41.104 58.0026 42.5885V45.7001C58.0026 49.091 55.2439 51.8496 51.8531 51.8496V56.9057C53.4175 55.3056 55.5944 54.3094 58.0026 54.3094H64.152V55.5393C64.152 60.2854 60.2902 64.1485 55.5428 64.1485H51.8531V67.8702C52.8838 67.0892 54.153 66.6083 55.5428 66.6083H61.6922V67.8382C61.6922 71.229 58.9336 73.9876 55.5428 73.9876H51.8531V82.5969V83.8268V86.2866H72.7613V83.8268H67.8417C63.0943 83.8268 59.2325 79.9637 59.2325 75.2175V73.9876H66.6118C69.0199 73.9876 71.1968 74.9839 72.76 76.584V75.2175V73.9876V64.1485C70.7258 64.1485 69.0704 62.4931 69.0704 60.4588V57.0766C69.0704 56.2194 68.6743 55.4335 68.0373 55.0264C64.3894 52.6958 62.4646 48.567 63.0144 44.2513C63.6478 39.2826 67.7236 35.267 72.7059 34.7037C75.8594 34.3482 79.0153 35.3445 81.3631 37.4427C83.7122 39.5421 85.0602 42.5516 85.0602 45.7001C85.0602 49.4796 83.1575 52.9602 79.9709 55.0092C79.3068 55.436 78.9107 56.1899 78.9107 57.0262V60.4588C78.9107 62.4931 77.2553 64.1485 75.2211 64.1485V67.9747ZM65.4545 44.5625C65.0265 47.925 66.5233 51.14 69.3619 52.9528C70.6385 53.7695 71.4219 55.1814 71.5129 56.7692H72.7613V49.1635C71.3334 48.6543 70.3015 47.3015 70.3015 45.7001C70.3015 43.6659 71.9569 42.0105 73.9912 42.0105C76.0254 42.0105 77.6808 43.6659 77.6808 45.7001C77.6808 47.3015 76.649 48.6543 75.2211 49.1635V56.7692H76.4657C76.5457 55.1961 77.3402 53.7768 78.6402 52.9417C81.1196 51.3466 82.6004 48.6396 82.6004 45.7001C82.6004 43.2514 81.5513 40.9097 79.7237 39.2777C78.1261 37.8497 76.1238 37.0909 74.0022 37.0909C73.664 37.0909 73.3246 37.1094 72.9814 37.1475C69.1122 37.5853 65.9464 40.7043 65.4545 44.5625ZM73.9912 44.4703C73.3135 44.4703 72.7613 45.0225 72.7613 45.7001C72.7613 46.3778 73.3135 46.93 73.9912 46.93C74.6688 46.93 75.2211 46.3778 75.2211 45.7001C75.2211 45.0225 74.6688 44.4703 73.9912 44.4703ZM71.5314 59.229V60.4588C71.5314 61.1377 72.0836 61.6887 72.7613 61.6887H75.2211C75.8987 61.6887 76.4509 61.1377 76.4509 60.4588V59.229H71.5314ZM61.8165 76.4474C62.3871 79.2504 64.8715 81.367 67.8417 81.367H72.6371C72.0664 78.5641 69.582 76.4474 66.6118 76.4474H61.8165ZM59.0222 69.0681H55.5428C53.939 69.0681 52.5714 70.0963 52.0634 71.5279H55.5428C57.1466 71.5279 58.5142 70.4997 59.0222 69.0681ZM61.568 56.7692H58.0026C55.0324 56.7692 52.548 58.8858 51.9773 61.6887H55.5428C58.5117 61.6887 60.9974 59.5721 61.568 56.7692ZM38.4756 25.2864C37.7979 29.682 39.4287 33.9719 42.8392 36.7613C44.4996 38.1179 45.5032 40.0057 45.6692 42.0105H48.0786L47.3406 30.9414H45.7037C43.6694 30.9414 42.014 29.286 42.014 27.2518C42.014 25.2175 43.6694 23.5621 45.7037 23.5621H45.8623C47.7969 23.5621 49.4142 25.0749 49.5434 27.0058L49.6418 28.4817H51.6047L51.7031 27.007C51.8322 25.0749 53.4495 23.5621 55.3841 23.5621H55.5428C57.577 23.5621 59.2325 25.2175 59.2325 27.2518C59.2325 29.286 57.577 30.9414 55.5428 30.9414H53.9058L53.1679 42.0105H55.576C55.7371 39.9971 56.7235 38.1228 58.3555 36.8031C61.2569 34.4552 62.9221 30.9734 62.9221 27.2518C62.9221 23.7564 61.4266 20.4148 58.818 18.0817C56.5329 16.0389 53.6709 14.9516 50.6368 14.9516C50.162 14.9516 49.6824 14.9787 49.2002 15.0316C43.8096 15.6342 39.2996 19.9474 38.4756 25.2864ZM49.8053 30.9414L50.5433 42.0105H50.7019L51.4399 30.9414H49.8053ZM54.1567 27.1706L54.0694 28.4817H55.5428C56.2205 28.4817 56.7727 27.9294 56.7727 27.2518C56.7727 26.5741 56.2205 26.0219 55.5428 26.0219H55.3841C54.7397 26.0219 54.1997 26.5261 54.1567 27.1706ZM45.7037 28.4817H47.1771L47.0897 27.1706C47.0467 26.5261 46.5068 26.0219 45.8623 26.0219H45.7037C45.026 26.0219 44.4738 26.5741 44.4738 27.2518C44.4738 27.9294 45.026 28.4817 45.7037 28.4817ZM45.7037 44.4703V45.7001C45.7037 47.7344 47.3591 49.3898 49.3933 49.3898H51.8531C53.8874 49.3898 55.5428 47.7344 55.5428 45.7001V44.4703H45.7037ZM42.2243 59.229C42.7322 60.6605 44.0999 61.6887 45.7037 61.6887H49.183C48.6751 60.2571 47.3074 59.229 45.7037 59.229H42.2243ZM42.2243 78.9072C42.7322 80.3388 44.0999 81.367 45.7037 81.367H49.183C48.6751 79.9354 47.3074 78.9072 45.7037 78.9072H42.2243ZM39.43 67.8382H34.6346C31.6644 67.8382 29.1801 69.9548 28.6094 72.7578H33.4047C36.3737 72.7578 38.8593 70.6411 39.43 67.8382ZM18.7186 44.5625C18.2906 47.925 19.7874 51.14 22.626 52.9528C23.9026 53.7695 24.686 55.1814 24.7771 56.7692H26.0254V49.1635C24.5975 48.6543 23.5656 47.3015 23.5656 45.7001C23.5656 43.6659 25.221 42.0105 27.2553 42.0105C29.2895 42.0105 30.945 43.6659 30.945 45.7001C30.945 47.3015 29.9131 48.6543 28.4852 49.1635V56.7692H29.7298C29.8098 55.1961 30.6043 53.7768 31.9043 52.9417C34.3837 51.3466 35.8645 48.6396 35.8645 45.7001C35.8645 43.2514 34.8154 40.9097 32.9878 39.2777C31.3902 37.8497 29.3879 37.0909 27.2664 37.0909C26.9281 37.0909 26.5887 37.1094 26.2455 37.1475C22.3763 37.5853 19.2106 40.7043 18.7186 44.5625ZM27.2553 44.4703C26.5776 44.4703 26.0254 45.0225 26.0254 45.7001C26.0254 46.3778 26.5776 46.93 27.2553 46.93C27.933 46.93 28.4852 46.3778 28.4852 45.7001C28.4852 45.0225 27.933 44.4703 27.2553 44.4703ZM24.7955 59.229V60.4588C24.7955 61.1377 25.3477 61.6887 26.0254 61.6887H28.4852C29.1628 61.6887 29.7151 61.1377 29.7151 60.4588V59.229H24.7955ZM15.0806 76.4474C15.6513 79.2504 18.1356 81.367 21.1058 81.367H25.9012C25.3305 78.5641 22.8461 76.4474 19.8759 76.4474H15.0806ZM75.3453 72.7578H80.1406C83.1108 72.7578 85.5952 70.6411 86.1659 67.8382H81.3705C78.4016 67.8382 75.9159 69.9548 75.3453 72.7578ZM12.4966 86.2866H14.9564V88.7464H12.4966V86.2866ZM86.2901 86.2866H88.7498V88.7464H86.2901V86.2866Z" fill="url(#paint0_linear_3601_1552)"/>
<defs>
<linearGradient id="paint0_linear_3601_1552" x1="12.498" y1="50.6228" x2="88.7552" y2="50.6228" gradientUnits="userSpaceOnUse">
<stop stop-color="#00B2FF"/>
<stop offset="1" stop-color="#0EBEAD"/>
</linearGradient>
</defs>
</svg>
