<svg width="100" height="100" viewBox="0 0 100 100" fill="none" xmlns="http://www.w3.org/2000/svg">
<path d="M80.8537 29H63.7482C64.8823 27.5352 65.564 25.7205 65.564 23.75C65.564 18.9253 61.5294 15 56.5701 15C53.6264 15 51.0173 16.3895 49.375 18.5228C47.7336 16.3895 45.1236 15 42.1799 15C37.2206 15 33.186 18.9253 33.186 23.75C33.186 25.7205 33.8677 27.5352 35.0018 29H17.8963C14.9203 29 12.5 31.3546 12.5 34.25V41.25C12.5 43.5311 14.0047 45.471 16.0976 46.1938V79.75C16.0976 82.6454 18.5178 85 21.4939 85H77.2561C80.2322 85 82.6524 82.6454 82.6524 79.75V46.1938C84.7453 45.471 86.25 43.5311 86.25 41.25V34.25C86.25 31.3546 83.8297 29 80.8537 29ZM43.9787 43V32.5H54.7713V43H43.9787ZM54.7713 46.5V81.5H43.9787V46.5H54.7713ZM56.5701 18.5C59.5462 18.5 61.9665 20.8546 61.9665 23.75C61.9665 26.6454 59.5462 29 56.5701 29H51.1738V23.75C51.1738 20.8546 53.594 18.5 56.5701 18.5ZM36.7835 23.75C36.7835 20.8546 39.2038 18.5 42.1799 18.5C45.156 18.5 47.5762 20.8546 47.5762 23.75V29H42.1799C39.2038 29 36.7835 26.6454 36.7835 23.75ZM16.0976 34.25C16.0976 33.2849 16.9043 32.5 17.8963 32.5H40.3811V43H17.8963C16.9043 43 16.0976 42.2151 16.0976 41.25V34.25ZM19.6951 79.75V46.5H40.3811V81.5H21.4939C20.5019 81.5 19.6951 80.7151 19.6951 79.75ZM77.2561 81.5H58.3689V46.5H79.0549V79.75C79.0549 80.7151 78.2481 81.5 77.2561 81.5ZM82.6524 41.25C82.6524 42.2151 81.8457 43 80.8537 43H58.3689V32.5H80.8537C81.8457 32.5 82.6524 33.2849 82.6524 34.25V41.25Z" fill="url(#paint0_linear_3601_5491)"/>
<defs>
<linearGradient id="paint0_linear_3601_5491" x1="12.5014" y1="50.0013" x2="86.2552" y2="50.0013" gradientUnits="userSpaceOnUse">
<stop stop-color="#00B2FF"/>
<stop offset="1" stop-color="#0EBEAD"/>
</linearGradient>
</defs>
</svg>
