<svg width="100" height="100" viewBox="0 0 100 100" fill="none" xmlns="http://www.w3.org/2000/svg">
<path fill-rule="evenodd" clip-rule="evenodd" d="M76.742 50.0299H88.5064C89.37 50.0299 90.0701 50.73 90.0701 51.5934V61.1834C90.0701 62.6089 89.5371 63.9518 88.5675 64.987V81.8024C88.5675 83.7696 86.9672 85.3697 85.0002 85.3697L45.8092 85.368C36.2442 85.368 27.2517 81.6433 20.4882 74.8798C13.7248 68.1164 10 59.1238 10 49.5589C10 43.1324 11.7148 36.8568 14.9645 31.3587L10.471 26.844C10.0253 26.3961 9.89303 25.7242 10.1354 25.1408C10.3778 24.5574 10.9474 24.1773 11.5794 24.1773H20.4687V15.3153C20.4687 14.6832 20.849 14.1133 21.433 13.871C22.0168 13.6286 22.6889 13.7619 23.1367 14.2084L27.637 18.6982C33.1278 15.4592 39.3935 13.75 45.8089 13.75C52.7723 13.75 59.5238 15.7507 65.3331 19.536C70.992 23.223 75.4806 28.403 78.3142 34.5158C78.6773 35.2993 78.3365 36.2289 77.5531 36.5922C77.3402 36.6909 77.1166 36.7376 76.8964 36.7376C76.3062 36.7376 75.7413 36.402 75.4767 35.8312C70.1394 24.3171 58.4942 16.8773 45.8087 16.8773C40.2263 16.8773 34.7693 18.2948 29.9317 20.9873L35.2224 26.265C35.5166 26.5584 35.6819 26.9567 35.6819 27.3721V37.2073L45.3237 46.849C45.9344 47.4598 45.9344 48.4499 45.3237 49.0606C45.0186 49.366 44.6183 49.5187 44.2181 49.5187C43.818 49.5187 43.4179 49.366 43.1124 49.0606L33.4707 39.4189H23.6355C23.2197 39.4189 22.8208 39.2531 22.5272 38.9582L17.2512 33.6571C14.5496 38.501 13.1273 43.9671 13.1273 49.559C13.1273 67.442 27.5657 82.0137 45.3971 82.2354C45.3797 82.0934 45.3699 81.9492 45.3699 81.8026V76.1362C38.5095 76.0181 31.8798 73.2238 27.0121 68.3561C20.6859 62.0298 17.9757 53.0125 19.762 44.2347C19.9342 43.3885 20.7596 42.8419 21.6061 43.0142C22.4523 43.1864 22.9987 44.0121 22.8265 44.8583C21.25 52.6051 23.6415 60.5625 29.2237 66.1448C33.5727 70.4939 39.2697 72.9071 45.37 73.0113V64.9864C44.4391 63.9902 43.8675 62.6542 43.8675 61.1864V51.5938C43.8675 50.7303 44.5676 50.03 45.4312 50.03H57.1955V46.795C57.1955 45.2226 58.4749 43.9432 60.0474 43.9432H68.584C67.566 39.7951 65.4414 36.0197 62.3951 32.9734C56.9547 27.5327 49.1801 25.1062 41.5986 26.4821C40.749 26.6358 39.935 26.0725 39.7808 25.2227C39.6266 24.3729 40.1905 23.5591 41.0401 23.4049C49.631 21.8462 58.4407 24.5959 64.6066 30.7618C68.2402 34.3956 70.716 38.9464 71.791 43.943H73.8902C75.4626 43.943 76.742 45.2224 76.742 46.7949V50.0299ZM32.5547 28.0206L23.596 19.084V25.0945L32.5547 34.0734V28.0206ZM30.3433 36.2908L21.3836 27.3048H15.3419L24.2855 36.2908H30.3433ZM73.6143 47.0704H60.3228V50.0299H73.6143V47.0704ZM75.1782 74.7353H85.4398V66.6738C85.132 66.7259 84.8178 66.7541 84.4993 66.7541H84.4957L71.6044 66.7459C71.332 69.0628 69.3574 70.8666 66.9686 70.8666C64.5834 70.8666 62.6114 69.0684 62.3341 66.7567H49.4378C49.1172 66.7567 48.8032 66.728 48.4971 66.6757V81.8024C48.4971 82.0393 48.6856 82.2317 48.9203 82.2406H50.8207C50.832 82.2406 50.8428 82.2422 50.854 82.2423H85.0002C85.2428 82.2423 85.44 82.045 85.44 81.8022V77.8627H75.1782C74.3146 77.8627 73.6144 77.1624 73.6144 76.299C73.6144 75.4356 74.3146 74.7353 75.1782 74.7353ZM65.4271 63.4487V66.1975C65.4271 67.0476 66.1188 67.7391 66.9688 67.7391C67.8187 67.7391 68.5104 67.0476 68.5104 66.1975V63.4487H65.4271ZM86.2264 62.9116C86.6884 62.4501 86.9427 61.8365 86.9427 61.1834H86.9425V53.1573H46.9946V61.1861C46.9946 62.5332 48.0905 63.6293 49.4378 63.6293H62.2994V62.1855C62.2994 61.1574 63.1357 60.3212 64.1637 60.3212H69.7734C70.8015 60.3212 71.6377 61.1576 71.6377 62.1855V63.6187L84.4977 63.6268H84.4993C85.1517 63.6268 85.7649 63.3728 86.2264 62.9116ZM56.7413 37.9445C53.772 35.1488 49.8896 33.609 45.8093 33.609C43.8984 33.609 42.0286 33.944 40.2521 34.6042C39.4426 34.9053 39.0304 35.8053 39.3313 36.6149C39.6321 37.4245 40.5321 37.8368 41.3419 37.5357C42.7688 37.0053 44.2717 36.7363 45.8094 36.7363C49.0896 36.7363 52.2107 37.9739 54.5974 40.2213C54.8994 40.5058 55.2846 40.6467 55.669 40.6467C56.085 40.6467 56.5 40.4817 56.8078 40.1549C57.3997 39.5262 57.3699 38.5364 56.7413 37.9445ZM80.5901 41.0052L80.6029 41.0577C80.8065 41.8969 80.2909 42.7422 79.4518 42.9458C79.328 42.9758 79.204 42.9902 79.0821 42.9902C78.3769 42.9902 77.7371 42.5103 77.5637 41.7946L77.5543 41.7566C77.3468 40.9181 77.8583 40.0705 78.6966 39.8629C79.5348 39.6556 80.3826 40.1668 80.5901 41.0052ZM32.9868 49.5588C32.9868 54.093 35.3079 58.2007 39.1957 60.5465C39.9352 60.9928 40.1729 61.9538 39.7267 62.6932C39.4331 63.1799 38.9163 63.4495 38.3865 63.4495C38.1114 63.4495 37.8331 63.377 37.5802 63.2245C32.7459 60.3074 29.8597 55.1987 29.8597 49.5589C29.8597 47.8174 30.139 46.1046 30.6898 44.4682C30.9653 43.6498 31.8522 43.2098 32.6706 43.485C33.4889 43.7604 33.9292 44.6474 33.6536 45.4658C33.2112 46.7801 32.9868 48.1572 32.9868 49.5588Z" fill="url(#paint0_linear_3601_26266)"/>
<defs>
<linearGradient id="paint0_linear_3601_26266" x1="10.0015" y1="49.5612" x2="90.0758" y2="49.5612" gradientUnits="userSpaceOnUse">
<stop stop-color="#00B2FF"/>
<stop offset="1" stop-color="#0EBEAD"/>
</linearGradient>
</defs>
</svg>
