<svg width="100" height="100" viewBox="0 0 100 100" fill="none" xmlns="http://www.w3.org/2000/svg">
<path fill-rule="evenodd" clip-rule="evenodd" d="M88.348 85.1172H85.3302V36.0612C85.3302 34.5175 84.0744 33.2617 82.5305 33.2617H72.6186C71.9772 33.2617 71.4571 33.7817 71.4571 34.4232C71.4571 35.0646 71.9772 35.5847 72.6186 35.5847H82.5305C82.7934 35.5847 83.0072 35.7984 83.0072 36.0612V85.1173H68.3562V79.3197H77.2168C78.4009 79.3197 79.3645 78.3563 79.3645 77.1721V74.4247C79.3645 73.2406 78.401 72.277 77.2168 72.277H68.3562V68.8694H77.2168C78.4009 68.8694 79.3645 67.9059 79.3645 66.7217V63.9743C79.3645 62.7902 78.401 61.8266 77.2168 61.8266H68.3562V58.419H77.2168C78.4009 58.419 79.3645 57.4555 79.3645 56.2713V53.5241C79.3645 52.3398 78.401 51.3764 77.2168 51.3764H68.3562V47.9687H77.2168C78.4009 47.9687 79.3645 47.0053 79.3645 45.821V43.0737C79.3645 41.8896 78.401 40.926 77.2168 40.926H68.3562V25.381C68.3562 24.2472 67.6798 23.233 66.6333 22.7973L42.4248 12.7079C41.5927 12.361 40.6483 12.4521 39.8986 12.952C39.1486 13.4519 38.7008 14.2888 38.7008 15.1907V20.6334H32.5361V15.874C32.5361 15.2326 32.016 14.7125 31.3746 14.7125C30.7331 14.7125 30.2131 15.2326 30.2131 15.874V20.6335H23.2441C21.7004 20.6335 20.4444 21.8893 20.4444 23.4332V27.0754H16.5286C14.9847 27.0754 13.7286 28.3307 13.7286 29.8738V77.5804H13.0178C11.4739 77.5804 10.2178 78.8366 10.2178 80.3804V84.6408C10.2178 86.1847 11.4739 87.4408 13.0178 87.4408L88.348 87.4403C88.9894 87.4403 89.5095 86.9203 89.5095 86.2788C89.5095 85.6374 88.9894 85.1172 88.348 85.1172ZM77.0415 74.6002V76.9969H68.3562V74.6002H77.0415ZM77.0415 64.1498V66.5464H68.3562V64.1498H77.0415ZM77.0415 53.6994V56.0961H68.3562V53.6994H77.0415ZM77.0415 43.2492V45.6459H68.3562V43.2492H77.0415ZM41.0238 15.1907C41.0238 15.0193 41.126 14.9256 41.1869 14.8849C41.2479 14.8445 41.3734 14.7861 41.531 14.8521L55.2164 20.5558V72.8843C55.2164 73.5257 55.7365 74.0458 56.3779 74.0458C57.0194 74.0458 57.5394 73.5257 57.5394 72.8843V21.5239L65.7402 24.9418C65.9183 25.0159 66.0334 25.1883 66.0334 25.381L66.0329 85.1176H57.5394V78.3308C57.5394 77.6893 57.0194 77.1693 56.3779 77.1693C55.7365 77.1693 55.2164 77.6893 55.2164 78.3308V85.1176H49.5105V47.3318C49.5105 45.601 48.1025 44.1928 46.3715 44.1928H41.0238V15.1907ZM46.3715 46.5158C46.8214 46.5158 47.1875 46.8817 47.1875 47.3318V85.1173H32.5361V47.3318C32.5361 46.8819 32.902 46.5158 33.3521 46.5158H46.3715ZM30.2131 47.3318V55.5242H16.0516V46.5158H30.3244C30.2539 46.7766 30.2131 47.0491 30.2131 47.3318ZM16.0516 57.8472H30.2131V66.8573H16.0516V57.8472ZM22.7675 23.4331C22.7675 23.1702 22.9814 22.9564 23.2442 22.9564H38.7004V27.0747H22.7675V23.4331ZM16.5286 29.3982H38.7008V33.4803H24.321C23.6795 33.4803 23.1595 34.0004 23.1595 34.6418C23.1595 35.2833 23.6795 35.8033 24.321 35.8033H38.7008V44.1928H16.0516V35.8033H18.9117C19.5531 35.8033 20.0732 35.2833 20.0732 34.6418C20.0732 34.0004 19.5531 33.4803 18.9117 33.4803H16.0516V29.8736C16.0516 29.6116 16.2656 29.3982 16.5286 29.3982ZM16.0516 69.1805H30.2131V77.5804H16.0516V69.1805ZM13.0178 85.1176C12.7548 85.1176 12.5408 84.9038 12.5408 84.6407V80.3803C12.5408 80.1173 12.7548 79.9033 13.0178 79.9033H30.2131V85.1176H13.0178ZM37.171 54.1639C37.8125 54.1639 38.3325 53.6439 38.3325 53.0024V50.5188C38.3325 49.8774 37.8125 49.3573 37.171 49.3573C36.5296 49.3573 36.0095 49.8774 36.0095 50.5188V53.0024C36.0095 53.6439 36.5294 54.1639 37.171 54.1639ZM43.6706 53.0024C43.6706 53.6439 43.1506 54.1639 42.5091 54.1639C41.8677 54.1639 41.3476 53.6439 41.3476 53.0024V50.5188C41.3476 49.8774 41.8677 49.3573 42.5091 49.3573C43.1506 49.3573 43.6706 49.8774 43.6706 50.5188V53.0024ZM37.171 62.8416C37.8125 62.8416 38.3325 62.3216 38.3325 61.6801V59.1966C38.3325 58.5551 37.8125 58.0351 37.171 58.0351C36.5296 58.0351 36.0095 58.5551 36.0095 59.1966V61.6801C36.0095 62.3216 36.5294 62.8416 37.171 62.8416ZM43.6706 61.6801C43.6706 62.3216 43.1506 62.8416 42.5091 62.8416C41.8677 62.8416 41.3476 62.3216 41.3476 61.6801V59.1966C41.3476 58.5551 41.8677 58.0351 42.5091 58.0351C43.1506 58.0351 43.6706 58.5551 43.6706 59.1966V61.6801ZM37.171 71.5194C37.8125 71.5194 38.3325 70.9994 38.3325 70.3579V67.8743C38.3325 67.2328 37.8125 66.7128 37.171 66.7128C36.5296 66.7128 36.0095 67.2328 36.0095 67.8743V70.3579C36.0095 70.9994 36.5294 71.5194 37.171 71.5194ZM43.6706 70.3579C43.6706 70.9994 43.1506 71.5194 42.5091 71.5194C41.8677 71.5194 41.3476 70.9994 41.3476 70.3579V67.8743C41.3476 67.2328 41.8677 66.7128 42.5091 66.7128C43.1506 66.7128 43.6706 67.2328 43.6706 67.8743V70.3579ZM37.171 80.1969C37.8125 80.1969 38.3325 79.6768 38.3325 79.0354V76.5518C38.3325 75.9103 37.8125 75.3903 37.171 75.3903C36.5296 75.3903 36.0095 75.9103 36.0095 76.5518V79.0354C36.0095 79.6768 36.5294 80.1969 37.171 80.1969ZM43.6706 79.0354C43.6706 79.6768 43.1506 80.1969 42.5091 80.1969C41.8677 80.1969 41.3476 79.6768 41.3476 79.0354V76.5518C41.3476 75.9103 41.8677 75.3903 42.5091 75.3903C43.1506 75.3903 43.6706 75.9103 43.6706 76.5518V79.0354Z" fill="url(#paint0_linear_3601_2317)"/>
<defs>
<linearGradient id="paint0_linear_3601_2317" x1="10.2193" y1="49.9718" x2="89.515" y2="49.9718" gradientUnits="userSpaceOnUse">
<stop stop-color="#00B2FF"/>
<stop offset="1" stop-color="#0EBEAD"/>
</linearGradient>
</defs>
</svg>
