<svg width="100" height="100" viewBox="0 0 100 100" fill="none" xmlns="http://www.w3.org/2000/svg">
<path fill-rule="evenodd" clip-rule="evenodd" d="M50 12.5C50.3853 12.5 50.7632 12.6567 51.0355 12.9292C51.3081 13.2017 51.4648 13.5796 51.4648 13.9648C51.4648 14.3501 51.3081 14.728 51.0355 15.0005C50.7632 15.2729 50.3853 15.4297 50 15.4297C49.6147 15.4297 49.237 15.2729 48.9644 15.0005C48.6917 14.728 48.5352 14.3501 48.5352 13.9648C48.5352 13.5796 48.6917 13.2017 48.9644 12.9292C49.2368 12.6567 49.6147 12.5 50 12.5ZM74.655 17.8189C74.655 17.0099 75.311 16.3541 76.1199 16.3541C76.9287 16.3541 77.5847 17.0099 77.5847 17.8189V18.8237C77.5847 19.6327 76.9287 20.2885 76.1199 20.2885C75.3108 20.2885 74.655 19.6327 74.655 18.8237V17.8189ZM73.0681 20.4102H72.0634C71.2545 20.4102 70.5985 21.066 70.5985 21.875C70.5985 22.684 71.2545 23.3398 72.0634 23.3398H73.0681C73.877 23.3398 74.533 22.684 74.533 21.875C74.533 21.066 73.877 20.4102 73.0681 20.4102ZM79.6719 60.4109L74.7854 59.2435V57.3052C77.4978 55.5909 79.3042 52.5677 79.3042 49.1288V43.6698C79.3042 38.3387 74.9671 34.0018 69.6359 34.0018C66.7602 34.0018 64.1751 35.2654 62.4025 37.2647C60.8501 31.8883 55.8847 27.9449 50.0152 27.9449H50.0151C44.1361 27.9449 39.164 31.9008 37.6202 37.2904C35.8471 35.2762 33.2526 34.0018 30.3645 34.0018C25.0333 34.0018 20.6962 38.3389 20.6962 43.6698V49.1288C20.6962 52.5678 22.5027 55.5911 25.215 57.3052V59.2435L20.3286 60.4109C15.7191 61.5118 12.5 65.5904 12.5 70.329V80.1758C12.5 80.9849 13.156 81.6407 13.9648 81.6407H25.6782V86.0352C25.6782 86.8443 26.3341 87.5001 27.143 87.5001H43.2129C44.0218 87.5001 44.6778 86.8443 44.6778 86.0352C44.6778 85.2262 44.0218 84.5704 43.2129 84.5704H36.6734V78.1233C36.6734 77.3143 36.0175 76.6585 35.2086 76.6585C34.3997 76.6585 33.7437 77.3143 33.7437 78.1233V84.5704H28.6077V77.9613C28.6077 72.9934 31.9818 68.7154 36.813 67.5577L44.0176 65.8312L48.6532 76.3775C48.887 76.9094 49.413 77.2529 49.994 77.2529H49.9941C50.5751 77.2529 51.1013 76.9096 51.3351 76.3777L55.966 65.8467L63.1496 67.5628C67.9852 68.7178 71.3623 72.9968 71.3623 77.9682V79.6028C71.2874 79.7789 71.2458 79.9724 71.2458 80.1757C71.2458 80.379 71.2874 80.5727 71.3623 80.7486V84.5704H66.2563V78.1233C66.2563 77.3143 65.6003 76.6585 64.7914 76.6585C63.9825 76.6585 63.3266 77.3143 63.3266 78.1233V84.5704H56.1525C55.3436 84.5704 54.6876 85.2262 54.6876 86.0352C54.6876 86.8443 55.3436 87.5001 56.1525 87.5001H72.8271C73.636 87.5001 74.2919 86.8443 74.2919 86.0352V81.6407H86.0352C86.844 81.6407 87.5 80.9849 87.5 80.1758V70.329C87.5 65.5904 84.2809 61.5118 79.6719 60.4109ZM69.6358 36.9315C73.3514 36.9315 76.3744 39.9543 76.3744 43.6698V44.0324V44.1797H72.1845C69.0195 44.1797 65.9095 43.3487 63.1687 41.7735C63.9898 38.9783 66.5782 36.9315 69.6358 36.9315ZM62.8972 48.8897C62.9023 48.7402 62.906 44.951 62.906 44.951C65.7857 46.3673 68.9605 47.1095 72.1846 47.1095H76.3745V49.1289C76.3744 52.8444 73.3514 55.8671 69.6358 55.8671C65.9202 55.8671 62.8972 52.8442 62.8972 49.1288V48.8897ZM40.0537 40.8357C40.0537 35.3431 44.5224 30.8748 50.0151 30.8748C55.5077 30.8748 59.9763 35.3433 59.9763 40.8357V41.0267L54.5396 37.8326C53.9227 37.4701 53.1343 37.6065 52.6748 38.1548C50.5625 40.6755 47.4646 42.1213 44.1756 42.1213H40.0537V40.8357ZM23.6256 44.0326V43.6698C23.6256 39.9542 26.6486 36.9315 30.3642 36.9315C33.4218 36.9315 36.0102 38.9783 36.8312 41.7737C34.0903 43.3487 30.9805 44.1798 27.8154 44.1798H23.6256V44.0326ZM23.6256 49.1288V47.1094H27.8155C31.0429 47.1094 34.2208 46.3658 37.1028 44.9468V49.1288C37.1028 52.8444 34.0798 55.8671 30.3642 55.8671C26.6486 55.8671 23.6256 52.8442 23.6256 49.1288ZM25.6782 77.9613V78.711H21.2891V72.2029C21.2891 71.3938 20.6331 70.738 19.8242 70.738C19.0153 70.738 18.3594 71.3938 18.3594 72.2029V78.711H15.4297V70.329C15.4297 66.9518 17.7239 64.0451 21.0088 63.2604L25.6521 62.1511L28.6826 69.4101C26.7872 71.7647 25.6782 74.7492 25.6782 77.9613ZM30.3645 65.8342L28.1398 60.5052C28.1423 60.4702 28.1444 60.4352 28.1444 60.3997V58.5367C28.8576 58.7049 29.6003 58.7968 30.3642 58.7968C31.1248 58.7968 31.8639 58.7056 32.5744 58.5389V60.307C32.5728 60.3345 32.572 60.3621 32.572 60.3896C32.572 60.4357 32.5764 60.4816 32.5808 60.5274L32.5808 60.5275L30.3645 65.8342ZM36.1304 64.7087C35.2654 64.916 34.4388 65.2044 33.654 65.5601L35.0807 62.1438L39.7247 63.2566C40.0849 63.3429 40.4359 63.457 40.7756 63.5956L36.1304 64.7087ZM43.4013 61.6555C42.4817 61.0851 41.4727 60.6628 40.4075 60.4076L35.5041 59.2327V57.3115C36.7235 56.5429 37.7593 55.5099 38.5314 54.2929C39.6358 56.4505 41.3308 58.2573 43.4013 59.5V61.6555ZM53.6523 63.8301L49.9944 72.1484L46.331 63.8138V60.7928C47.4988 61.1417 48.7353 61.3299 50.0149 61.3299C51.2776 61.3299 52.4983 61.1465 53.6523 60.8065V63.8301ZM50.0151 58.4004C44.5222 58.4002 40.0537 53.9317 40.0537 48.4393V45.0511H44.1755C47.9144 45.0511 51.458 43.5734 54.0759 40.9582L59.9677 44.4195V48.7831C59.7854 54.1167 55.3925 58.4004 50.0151 58.4004ZM56.582 59.5276H56.5821C58.6654 58.289 60.3723 56.481 61.4851 54.3187C62.2556 55.5244 63.2853 56.5482 64.4959 57.3115V59.2327L59.5925 60.4076C58.5208 60.6644 57.5062 61.0905 56.582 61.6662V59.5276ZM63.8302 64.7136L59.1976 63.6067C59.5457 63.4632 59.9056 63.3452 60.2753 63.2566L64.908 62.1466L66.3406 65.5781C65.5457 65.216 64.7076 64.9232 63.8302 64.7136ZM67.4161 60.5493C67.422 60.4961 67.4262 60.4426 67.4262 60.389L67.4262 60.3765C67.4261 60.367 67.4259 60.3575 67.4256 60.348V58.5389C68.1361 58.7058 68.8752 58.7968 69.6358 58.7968C70.3997 58.7968 71.1424 58.7049 71.8556 58.5366V60.3996L71.8557 60.4076L71.8559 60.4199L71.8564 60.4319C71.8569 60.4426 71.8575 60.4532 71.8581 60.4639L71.859 60.4788L69.6225 65.8342L67.4161 60.5493ZM84.5703 78.711H81.6406V72.2029C81.6406 71.3938 80.9847 70.738 80.1758 70.738C79.3669 70.738 78.7109 71.3938 78.7109 72.2029V78.711H74.2919V77.9683C74.2919 74.7605 73.1866 71.7801 71.2966 69.4276L74.3366 62.1485L78.9912 63.2604C82.2761 64.0451 84.5703 66.9518 84.5703 70.329V78.711ZM50.9975 84.9995C50.7252 84.7271 50.3472 84.5703 49.962 84.5703C49.5766 84.5703 49.1987 84.7271 48.9263 84.9995C48.6539 85.272 48.4971 85.6499 48.4971 86.0352C48.4971 86.4204 48.6537 86.7983 48.9263 87.0708C49.1987 87.3433 49.5766 87.5 49.962 87.5C50.3472 87.5 50.7252 87.3433 50.9975 87.0708C51.27 86.7983 51.4268 86.4204 51.4268 86.0352C51.4268 85.6499 51.2701 85.272 50.9975 84.9995ZM45.0868 46.3745C45.4721 46.3745 45.85 46.5312 46.1223 46.8037C46.3962 47.0762 46.5517 47.4541 46.5517 47.8394C46.5517 48.2246 46.3962 48.6025 46.1223 48.875C45.85 49.1475 45.4735 49.3042 45.0868 49.3042C44.7016 49.3042 44.3238 49.1475 44.0512 48.875C43.7786 48.6025 43.622 48.2246 43.622 47.8394C43.622 47.4541 43.7787 47.0762 44.0512 46.8037C44.3236 46.5312 44.7016 46.3745 45.0868 46.3745ZM55.9179 46.8037C55.6456 46.5312 55.2677 46.3745 54.8824 46.3745C54.4971 46.3745 54.1192 46.5312 53.8468 46.8037C53.5743 47.0762 53.4176 47.4541 53.4176 47.8394C53.4176 48.2246 53.5741 48.6025 53.8468 48.875C54.1194 49.1475 54.4971 49.3042 54.8824 49.3042C55.2677 49.3042 55.6456 49.1475 55.9179 48.875C56.1918 48.6025 56.3472 48.2246 56.3472 47.8394C56.3472 47.4541 56.1918 47.0762 55.9179 46.8037ZM50.7476 51.7346C51.3199 51.1626 52.2472 51.1626 52.8193 51.7346C53.3913 52.3066 53.3913 53.2342 52.8192 53.8063C52.0314 54.5941 50.9968 54.9879 49.962 54.9879C48.9272 54.9879 47.8926 54.594 47.1048 53.8063C46.5328 53.2342 46.5328 52.3066 47.1048 51.7346C47.6771 51.1626 48.6044 51.1626 49.1765 51.7346C49.6097 52.1678 50.3144 52.1678 50.7476 51.7346ZM79.1711 20.4102H80.1758C80.9847 20.4102 81.6406 21.066 81.6406 21.875C81.6406 22.684 80.9847 23.3398 80.1758 23.3398H79.1711C78.362 23.3398 77.7062 22.684 77.7062 21.875C77.7062 21.066 78.3622 20.4102 79.1711 20.4102ZM76.1199 23.4616C75.311 23.4616 74.655 24.1174 74.655 24.9265V25.9312C74.655 26.7402 75.3108 27.3961 76.1199 27.3961C76.9287 27.3961 77.5847 26.7402 77.5847 25.9312V24.9265C77.5847 24.1174 76.9287 23.4616 76.1199 23.4616ZM20.7474 20.4102H19.7428C18.9339 20.4102 18.2779 21.066 18.2779 21.875C18.2779 22.684 18.9339 23.3398 19.7428 23.3398H20.7474C21.5563 23.3398 22.2122 22.684 22.2122 21.875C22.2122 21.066 21.5563 20.4102 20.7474 20.4102ZM26.8503 20.4102H27.8549C28.6638 20.4102 29.3198 21.066 29.3198 21.875C29.3198 22.684 28.6638 23.3398 27.8549 23.3398H26.8503C26.0413 23.3398 25.3855 22.684 25.3855 21.875C25.3855 21.066 26.0414 20.4102 26.8503 20.4102ZM23.799 23.4616C22.9901 23.4616 22.3342 24.1174 22.3342 24.9265V25.9312C22.3342 26.7402 22.99 27.3961 23.799 27.3961C24.6079 27.3961 25.2638 26.7402 25.2638 25.9312V24.9265C25.2638 24.1174 24.6079 23.4616 23.799 23.4616ZM22.3342 17.8189C22.3342 17.0099 22.9901 16.3541 23.799 16.3541C24.6079 16.3541 25.2638 17.0099 25.2638 17.8189V18.8237C25.2638 19.6327 24.6079 20.2885 23.799 20.2885C22.99 20.2885 22.3342 19.6327 22.3342 18.8237V17.8189ZM50 18.0792C49.1911 18.0792 48.5352 18.735 48.5352 19.544V23.398C48.5352 24.207 49.1911 24.8629 50 24.8629C50.8089 24.8629 51.4648 24.207 51.4648 23.398V19.544C51.4648 18.735 50.8089 18.0792 50 18.0792ZM44.8664 18.3769L42.7228 16.2332C42.1506 15.6612 41.2234 15.6612 40.651 16.2332C40.079 16.8053 40.079 17.7328 40.651 18.305L42.7948 20.4486C43.0809 20.7347 43.4558 20.8777 43.8306 20.8777C44.2055 20.8777 44.5803 20.7347 44.8664 20.4486C45.4384 19.8766 45.4384 18.9491 44.8664 18.3769ZM57.2769 16.1525C57.8492 15.5805 58.7764 15.5805 59.3486 16.1525C59.9206 16.7247 59.9206 17.6522 59.3486 18.2242L57.1333 20.4395C56.8472 20.7256 56.4725 20.8686 56.0975 20.8686C55.7225 20.8686 55.3478 20.7256 55.0616 20.4395C54.4896 19.8673 54.4896 18.9398 55.0616 18.3678L57.2769 16.1525Z" fill="url(#paint0_linear_3601_1885)"/>
<defs>
<linearGradient id="paint0_linear_3601_1885" x1="12.5014" y1="50.0014" x2="87.5053" y2="50.0014" gradientUnits="userSpaceOnUse">
<stop stop-color="#00B2FF"/>
<stop offset="1" stop-color="#0EBEAD"/>
</linearGradient>
</defs>
</svg>
